{"glyphs":{"0":{"ha":806,"x_min":0,"x_max":0,"o":"m 554 972 l 736 790 l 736 182 l 554 0 l 250 0 l 68 182 l 68 742 l 311 742 l 311 182 l 493 182 l 493 790 l 68 790 l 250 972 "},"1":{"ha":467,"x_min":0,"x_max":0,"o":"m 392 972 l 392 790 l 149 790 l 26 972 m 392 742 l 392 0 l 149 0 l 149 742 "},"2":{"ha":776,"x_min":0,"x_max":0,"o":""},"3":{"ha":1685,"x_min":0,"x_max":0,"o":"m 522 925 b 560 896 542 925 554 915 b 565 850 564 883 565 868 l 565 840 b 539 769 565 801 557 778 b 521 765 535 767 528 765 b 482 801 501 765 488 778 b 478 842 479 814 478 828 l 478 849 b 501 919 478 888 486 911 b 522 925 507 924 514 925 m 1304 925 b 1343 893 1325 925 1338 914 b 1349 844 1347 882 1349 865 b 1324 769 1349 803 1340 778 b 1304 765 1318 767 1313 765 b 1265 799 1285 765 1272 776 b 1261 846 1263 811 1261 826 b 1286 921 1261 888 1269 913 b 1304 925 1290 924 1297 925 m 147 922 b 186 901 168 922 181 915 b 189 879 188 896 189 888 b 171 842 189 860 183 847 b 143 838 165 839 156 838 l 115 838 l 115 768 b 115 768 115 768 115 768 l 101 768 b 101 768 101 768 101 768 l 101 922 b 101 922 101 922 101 922 m 272 922 b 275 914 272 922 274 919 l 221 914 b 221 914 221 914 221 914 l 221 854 l 264 854 b 264 853 264 854 264 854 l 264 846 b 264 844 264 846 264 844 l 221 844 l 221 776 l 279 776 b 276 768 278 771 276 768 l 206 768 b 206 768 206 768 206 768 l 206 922 b 206 922 206 922 206 922 m 343 922 b 381 901 363 922 376 915 b 383 882 383 896 383 889 b 365 844 383 861 378 849 b 361 843 364 844 363 843 b 390 768 369 833 379 808 l 389 768 l 375 768 b 369 788 374 768 372 775 b 346 840 360 824 351 840 l 313 840 l 313 768 b 313 768 313 768 313 768 l 299 768 b 299 768 299 768 299 768 l 299 922 b 299 922 299 922 299 922 m 454 922 b 458 908 456 922 457 918 b 458 907 458 908 458 908 b 443 914 451 911 447 914 b 428 897 433 914 428 908 l 428 894 b 443 850 428 883 433 868 b 458 803 453 832 458 817 b 439 771 458 788 451 776 b 425 768 435 768 431 768 l 414 768 b 408 785 413 768 411 774 l 410 785 b 424 776 415 779 419 776 l 425 776 b 443 794 435 776 440 782 b 443 801 443 796 443 799 b 425 850 443 813 438 829 b 413 889 417 867 413 879 l 413 893 b 431 921 413 907 419 915 b 440 922 435 922 438 922 m 599 922 b 656 797 601 919 619 878 l 657 797 l 657 922 b 657 922 657 922 657 922 l 665 922 b 665 922 665 922 665 922 l 665 768 b 665 768 665 768 665 768 l 654 768 b 607 868 653 769 636 804 b 593 899 607 871 601 881 l 593 768 b 593 768 593 768 593 768 l 586 768 b 585 768 585 768 585 768 l 585 922 b 586 922 585 922 585 922 m 732 922 b 738 903 733 922 735 915 b 778 768 764 818 776 772 l 763 768 b 758 779 763 768 761 772 b 749 814 758 782 754 793 l 703 814 b 689 768 694 786 690 771 l 681 768 b 681 768 681 768 681 768 b 725 922 708 867 724 918 l 732 922 m 811 922 b 811 922 811 922 811 922 l 811 776 l 869 776 b 868 768 869 771 868 768 l 797 768 b 797 768 797 768 797 768 l 797 922 b 797 922 797 922 797 922 m 958 922 b 958 922 958 922 958 922 l 958 836 b 967 783 958 807 961 789 b 988 774 969 778 976 774 b 1011 788 999 774 1007 779 b 1015 833 1014 796 1015 810 l 1015 922 b 1015 922 1015 922 1015 922 l 1025 922 b 1025 922 1025 922 1025 922 l 1025 854 b 1019 788 1025 817 1022 794 b 1006 769 1015 779 1011 772 b 986 765 1000 767 994 765 b 951 785 969 765 957 772 b 943 844 946 796 943 815 l 943 922 b 943 922 943 922 943 922 m 1088 922 b 1092 908 1088 922 1089 918 b 1092 907 1092 908 1092 908 b 1075 914 1085 911 1079 914 b 1060 896 1065 914 1060 908 b 1075 850 1060 883 1065 868 b 1090 803 1085 832 1090 815 b 1071 771 1090 788 1085 776 b 1057 768 1067 768 1063 768 l 1046 768 b 1042 785 1046 768 1044 774 b 1056 776 1047 779 1053 776 l 1057 776 b 1075 797 1068 776 1074 783 l 1075 800 b 1075 801 1075 800 1075 800 b 1075 801 1075 801 1075 801 l 1075 803 b 1058 849 1075 814 1069 829 b 1044 892 1050 865 1044 879 b 1064 921 1044 907 1051 917 b 1074 922 1068 922 1071 922 m 1181 922 b 1183 914 1182 922 1182 919 l 1129 914 l 1129 854 l 1172 854 b 1174 853 1172 854 1174 854 l 1174 846 b 1172 844 1174 846 1172 844 l 1129 844 l 1129 776 l 1188 776 b 1188 776 1188 776 1188 776 b 1186 768 1186 771 1186 768 l 1115 768 b 1114 768 1114 768 1114 768 l 1114 922 b 1115 922 1114 922 1115 922 m 1382 922 b 1389 907 1382 922 1385 917 b 1439 797 1392 901 1408 865 l 1439 922 b 1440 922 1439 922 1440 922 l 1447 922 b 1447 922 1447 922 1447 922 l 1447 768 b 1447 768 1447 768 1447 768 l 1436 768 b 1426 789 1436 768 1432 775 b 1376 899 1425 792 1408 828 l 1376 768 b 1375 768 1376 768 1376 768 l 1368 768 b 1368 768 1368 768 1368 768 l 1368 922 b 1368 922 1368 922 1368 922 m 1482 922 b 1482 922 1482 922 1482 922 l 1482 776 l 1540 776 b 1538 768 1539 771 1539 768 l 1468 768 b 1467 768 1468 768 1467 768 l 1467 922 b 1468 922 1468 922 1468 922 m 1538 922 b 1571 857 1538 922 1549 900 b 1603 922 1574 861 1583 883 l 1613 922 b 1575 847 1613 922 1600 897 l 1575 768 b 1575 768 1575 768 1575 768 l 1561 768 b 1560 768 1560 768 1560 768 l 1560 846 b 1522 922 1560 847 1547 872 m 493 846 b 500 788 493 814 496 794 b 522 774 504 779 511 774 b 544 789 533 774 542 779 b 550 846 549 796 550 815 b 543 906 550 879 549 899 b 522 917 539 913 532 917 l 521 917 b 497 897 508 917 501 910 b 493 846 494 889 493 871 m 1276 839 b 1285 783 1276 808 1279 790 b 1306 774 1289 778 1296 774 b 1329 790 1317 774 1325 779 b 1333 839 1332 800 1333 815 l 1333 851 b 1324 908 1333 883 1331 903 b 1306 917 1319 914 1314 917 l 1304 917 b 1282 901 1293 917 1286 911 b 1276 851 1278 893 1276 876 m 115 846 l 146 846 b 168 856 157 846 165 849 b 172 879 171 860 172 868 b 161 911 172 897 168 907 b 140 914 160 913 151 914 l 115 914 m 313 850 l 336 850 b 361 857 350 850 358 851 b 367 882 365 860 367 868 b 358 910 367 897 364 907 b 336 914 354 913 347 914 l 313 914 m 725 893 b 706 822 725 893 719 869 l 746 822 b 725 893 733 867 726 890 m 1144 674 b 1151 664 1147 672 1150 668 b 1163 639 1154 654 1157 646 b 1164 636 1164 638 1164 636 b 1154 614 1164 635 1161 628 b 1092 449 1132 567 1111 511 b 1072 363 1085 424 1079 396 b 1069 333 1071 346 1069 336 b 1075 346 1071 333 1072 338 b 1129 450 1094 393 1113 428 b 1176 485 1146 474 1161 485 l 1178 485 b 1186 483 1183 485 1186 483 l 1194 483 b 1210 475 1203 483 1208 481 l 1210 474 b 1200 450 1210 471 1207 463 b 1163 311 1175 401 1163 354 l 1163 306 b 1204 229 1163 274 1176 249 b 1249 217 1218 221 1233 217 b 1233 201 1244 208 1240 204 b 1201 196 1224 197 1213 196 b 1128 249 1167 196 1142 214 b 1122 282 1125 258 1122 269 l 1122 286 b 1144 414 1122 318 1131 361 b 1149 429 1147 421 1147 426 b 1082 286 1119 372 1097 324 b 1058 222 1071 261 1064 240 b 1050 208 1056 214 1051 208 l 1049 208 b 1039 215 1047 208 1044 211 b 1026 225 1032 218 1028 221 b 1025 243 1025 226 1025 233 l 1025 246 b 1028 306 1025 261 1026 282 b 1000 285 1018 297 1010 290 b 964 271 986 275 975 271 b 940 285 956 271 947 275 b 922 308 935 292 928 300 l 921 311 b 917 301 919 311 918 308 b 897 211 911 285 904 254 b 886 186 893 194 889 186 b 874 193 885 186 881 188 b 857 210 865 197 860 203 b 854 233 854 214 854 222 l 854 243 b 894 463 854 293 867 367 b 942 608 907 506 922 554 b 939 610 942 610 940 610 l 910 610 b 769 590 853 610 806 603 b 735 568 757 585 746 578 l 728 558 b 719 544 724 554 722 549 b 713 567 717 550 714 557 b 711 576 711 571 711 575 b 760 633 711 606 728 624 b 794 639 775 638 788 639 b 896 644 821 643 856 644 b 942 647 922 644 939 646 b 965 658 953 647 960 650 b 969 660 968 660 969 660 l 971 660 b 982 642 976 660 979 654 b 990 625 985 635 988 629 b 993 622 992 625 992 624 b 983 601 993 621 990 614 b 924 440 961 553 942 500 b 904 358 917 418 910 390 b 901 335 903 349 901 340 b 971 489 925 406 949 456 b 1006 513 983 504 994 513 b 1032 492 1018 513 1026 506 b 1033 475 1033 486 1033 481 l 1033 474 b 1013 390 1033 451 1026 424 b 992 357 1007 381 1000 369 b 968 335 982 346 974 338 b 949 325 963 331 956 328 b 944 322 946 325 944 324 b 957 307 944 319 949 315 b 969 303 961 304 965 303 l 971 303 b 1007 326 981 303 992 310 b 1032 361 1018 339 1026 350 b 1043 385 1039 369 1042 378 b 1060 456 1046 404 1051 428 b 1124 647 1076 518 1099 582 b 1132 667 1128 658 1131 665 b 1140 674 1136 671 1139 672 m 1371 672 b 1374 671 1372 672 1374 672 l 1374 669 b 1363 643 1374 668 1369 660 l 1363 642 b 1365 640 1363 640 1364 640 l 1372 640 b 1443 631 1396 640 1419 638 b 1457 619 1453 626 1457 622 b 1456 617 1457 618 1457 617 b 1436 624 1453 618 1447 621 b 1385 629 1419 626 1403 629 b 1363 628 1378 629 1369 628 l 1360 628 b 1354 625 1357 628 1356 628 b 1329 560 1343 600 1335 578 b 1325 549 1326 553 1325 549 b 1329 544 1326 546 1328 544 b 1339 551 1331 544 1333 546 b 1363 578 1349 561 1357 569 b 1381 590 1365 583 1372 588 b 1365 561 1378 585 1374 575 b 1360 546 1363 556 1361 551 b 1368 554 1363 546 1365 549 b 1397 593 1385 576 1394 589 b 1406 597 1401 596 1403 597 b 1413 593 1410 596 1413 594 b 1376 507 1400 564 1388 536 b 1365 460 1369 483 1365 468 b 1367 450 1365 456 1367 451 b 1354 463 1361 451 1357 457 b 1353 472 1353 467 1353 469 b 1369 524 1353 481 1358 499 b 1382 554 1375 538 1379 549 b 1361 526 1374 543 1367 533 b 1354 522 1358 524 1356 522 b 1344 536 1351 522 1347 528 l 1344 539 b 1325 522 1335 528 1329 522 b 1313 538 1322 522 1318 528 b 1311 549 1311 542 1311 544 b 1321 583 1311 556 1314 567 b 1335 624 1326 596 1331 610 b 1335 625 1335 625 1335 625 l 1333 625 b 1311 617 1325 625 1318 622 b 1301 604 1307 613 1304 608 l 1301 603 b 1292 613 1297 604 1294 607 b 1292 617 1292 614 1292 615 b 1322 636 1292 626 1303 633 b 1340 640 1335 638 1340 639 b 1343 647 1342 640 1342 643 b 1349 663 1346 654 1347 660 b 1356 668 1349 665 1351 667 b 1371 672 1358 668 1363 669 m 596 619 b 618 603 608 619 615 614 b 619 599 619 601 619 600 l 619 594 b 607 544 617 575 613 558 b 521 454 590 504 563 475 b 490 442 503 446 492 442 b 457 433 483 439 472 436 b 439 431 444 432 439 431 b 419 385 436 426 431 411 b 385 272 406 350 394 313 b 371 178 376 233 371 203 b 428 57 371 128 390 88 b 515 26 456 38 485 26 l 517 26 b 731 71 564 26 636 42 l 882 118 b 1024 157 928 133 975 146 b 1133 171 1065 167 1101 171 l 1135 171 b 1257 147 1181 171 1221 163 b 1292 128 1268 143 1279 136 b 1315 107 1299 122 1307 115 b 1338 72 1329 92 1338 81 l 1338 71 l 1336 71 b 1149 125 1296 107 1233 125 l 1147 125 b 829 60 1063 125 957 103 b 685 13 768 40 719 24 b 525 -17 618 -7 565 -17 l 517 -17 b 379 40 458 -17 413 1 b 333 178 349 76 333 122 b 358 329 333 224 342 274 b 390 407 369 358 379 385 b 403 432 399 422 403 431 b 347 433 401 433 383 433 b 208 394 278 433 231 421 b 199 379 206 390 203 386 b 193 408 194 390 193 400 b 232 463 193 435 206 453 b 308 471 247 468 272 471 b 407 467 326 471 358 469 b 419 467 408 467 413 467 b 429 476 422 467 426 469 b 472 535 442 494 456 514 b 525 588 494 561 513 578 b 554 607 536 596 546 603 b 596 619 569 615 583 619 m 1481 600 b 1493 578 1488 600 1492 593 b 1494 569 1494 575 1494 572 b 1479 535 1494 557 1490 546 b 1469 531 1476 532 1472 531 l 1465 531 b 1451 540 1461 531 1456 533 b 1451 546 1451 543 1451 544 b 1463 586 1451 560 1456 574 b 1468 589 1465 588 1467 589 l 1469 589 b 1478 578 1475 589 1478 585 l 1478 575 b 1461 546 1478 564 1472 554 b 1461 543 1461 544 1461 544 b 1464 539 1463 540 1463 539 l 1465 539 b 1479 553 1469 540 1475 544 b 1483 575 1482 560 1483 567 b 1481 599 1483 581 1483 589 b 1481 600 1481 600 1481 600 m 1424 593 b 1432 588 1429 592 1432 590 b 1425 575 1432 588 1429 582 b 1410 539 1419 564 1414 553 b 1424 565 1411 540 1415 549 l 1438 590 b 1439 590 1439 590 1439 590 b 1447 567 1444 590 1447 583 l 1447 563 b 1440 533 1447 549 1444 539 b 1433 531 1438 532 1435 531 l 1432 531 b 1421 536 1429 531 1425 533 b 1419 536 1421 536 1421 536 b 1414 525 1419 536 1418 532 b 1382 457 1399 496 1388 474 b 1379 453 1381 454 1379 453 l 1378 453 b 1372 463 1374 456 1372 460 l 1372 464 b 1407 564 1374 475 1385 508 b 1419 592 1414 579 1418 589 b 1422 593 1421 593 1422 593 m 464 468 b 533 494 486 468 508 478 b 563 524 546 506 556 515 b 576 549 568 533 572 542 b 586 582 582 564 586 575 b 588 589 586 582 588 585 b 521 542 568 578 546 561 b 476 496 501 522 486 507 b 457 469 468 486 463 478 l 457 468 m 1469 575 b 1464 560 1467 569 1464 564 b 1464 558 1464 560 1464 558 b 1471 575 1468 564 1471 569 l 1469 575 m 1436 568 b 1422 540 1435 564 1431 556 b 1435 546 1429 540 1433 543 b 1438 558 1438 550 1438 554 l 1438 564 b 1438 568 1438 567 1438 568 l 1436 568 m 746 519 b 768 501 756 519 764 513 b 776 476 772 494 775 486 b 781 469 778 472 779 469 b 822 481 792 472 806 476 b 842 489 835 486 840 488 b 853 497 843 489 847 492 b 865 504 857 501 861 504 b 879 492 871 504 876 500 l 879 488 b 872 460 879 485 878 475 b 826 229 842 356 826 279 b 844 147 826 201 832 174 l 844 146 b 842 144 843 144 843 144 l 839 144 b 796 165 822 144 807 151 b 783 199 788 176 783 188 l 783 203 b 813 356 783 219 793 271 b 835 449 822 397 829 428 b 842 461 836 453 839 457 b 842 461 842 461 842 461 b 783 443 826 456 807 449 b 782 440 782 443 782 443 b 782 417 782 435 782 426 b 767 292 782 382 776 340 b 725 218 753 243 739 218 b 711 229 721 218 717 222 b 700 239 707 235 703 238 b 685 257 693 242 689 247 b 681 315 682 267 681 286 l 681 321 b 644 224 667 271 656 239 b 635 215 640 218 638 215 l 633 215 b 624 224 631 215 628 218 b 614 228 622 225 619 226 b 601 244 608 231 604 236 b 599 269 599 253 599 261 b 613 351 599 293 603 321 b 636 400 619 369 626 386 b 672 432 650 422 663 432 b 693 406 682 432 689 424 b 708 428 697 414 703 422 b 722 433 713 432 717 433 b 736 429 726 433 732 432 l 738 429 l 738 428 b 729 415 738 428 735 424 b 717 385 725 407 721 397 b 704 311 708 358 704 333 l 704 304 b 713 261 704 286 707 272 b 717 256 714 257 715 256 b 732 288 721 258 726 269 b 753 406 746 331 753 371 l 753 415 b 749 449 753 424 751 435 b 743 453 749 450 746 451 b 715 489 725 460 715 472 b 735 517 715 501 722 511 b 746 519 738 518 742 519 m 1331 508 b 1338 503 1333 508 1336 507 b 1338 493 1338 500 1338 497 b 1318 408 1338 481 1331 453 b 1294 272 1303 354 1294 308 b 1317 196 1294 238 1303 213 b 1342 186 1325 189 1333 186 l 1344 186 b 1383 203 1356 186 1368 192 b 1397 217 1389 207 1394 213 b 1432 349 1421 247 1432 292 l 1432 354 b 1426 425 1432 379 1431 403 b 1418 438 1424 433 1421 438 b 1399 407 1414 438 1407 428 b 1375 308 1383 371 1375 338 b 1385 268 1375 292 1378 279 b 1388 265 1386 267 1386 265 b 1374 261 1382 263 1378 261 b 1349 300 1361 261 1353 274 b 1342 317 1346 307 1344 313 b 1338 339 1339 324 1338 332 l 1338 340 b 1360 404 1338 357 1344 378 b 1379 429 1364 411 1371 419 b 1403 450 1390 440 1399 449 b 1431 458 1413 456 1421 458 b 1471 438 1449 458 1461 451 b 1482 389 1479 425 1482 408 l 1482 383 b 1467 293 1482 358 1478 329 b 1444 240 1460 274 1453 256 b 1356 172 1418 194 1389 172 b 1293 201 1332 172 1313 182 b 1269 256 1282 215 1274 233 b 1264 303 1265 272 1264 288 b 1274 360 1264 322 1268 340 b 1274 364 1274 363 1274 364 l 1274 365 b 1231 265 1256 317 1242 283 b 1219 257 1228 260 1224 257 b 1210 267 1215 257 1213 261 b 1197 276 1207 271 1203 275 b 1189 282 1194 276 1192 278 b 1183 306 1185 289 1183 297 l 1183 308 b 1196 379 1183 324 1188 347 b 1221 440 1203 404 1213 424 b 1242 472 1228 454 1235 464 b 1271 490 1253 483 1263 490 b 1293 460 1281 490 1288 481 b 1293 460 1293 460 1293 460 b 1310 492 1303 481 1307 492 b 1317 497 1310 493 1313 494 b 1329 508 1322 504 1326 508 m 939 354 b 956 365 943 356 949 360 b 974 392 964 374 969 382 b 992 432 981 401 986 415 b 1004 478 996 443 999 458 b 988 456 999 474 993 465 b 960 407 978 440 969 424 b 938 354 946 378 938 360 m 1215 306 b 1217 294 1215 303 1215 299 b 1250 365 1224 306 1233 329 l 1283 442 l 1283 443 b 1275 465 1281 453 1279 461 l 1274 467 b 1261 450 1272 467 1267 461 b 1232 388 1250 432 1240 411 b 1218 336 1226 374 1222 357 b 1215 310 1217 322 1215 314 m 593 447 b 613 443 594 447 601 446 b 618 438 615 442 618 440 b 608 404 617 433 614 422 b 572 265 596 367 583 319 b 565 194 568 240 565 217 b 571 167 565 181 567 171 b 576 165 572 165 574 165 b 611 175 579 165 592 168 b 693 193 649 188 675 193 b 746 172 717 193 735 186 l 746 171 b 699 165 739 171 724 169 b 640 149 676 161 657 156 b 597 131 628 144 613 139 b 583 128 593 129 588 128 b 558 146 574 128 565 133 b 547 157 554 150 550 154 b 532 201 538 165 532 181 b 549 293 532 217 538 247 b 553 314 551 306 553 313 l 553 315 l 551 315 b 513 190 538 278 525 236 b 499 106 504 153 499 124 l 499 101 l 499 100 b 497 97 499 97 499 97 l 496 97 b 482 104 492 97 488 100 b 463 181 469 117 463 143 b 476 288 463 210 467 244 l 476 289 b 446 203 463 253 451 224 b 442 192 444 196 443 192 b 442 192 442 192 442 192 b 422 199 436 192 429 194 b 406 235 411 206 406 218 l 406 239 b 435 358 406 263 415 301 b 461 410 447 392 457 410 b 483 406 474 408 482 407 b 486 401 486 404 486 403 b 475 375 486 400 482 390 b 438 253 450 314 438 274 l 438 251 b 514 411 468 322 493 376 b 529 426 521 421 525 426 l 531 426 b 546 419 535 425 539 424 b 549 417 547 418 549 418 b 536 388 549 414 544 406 b 510 306 526 365 518 339 b 494 211 500 267 494 235 b 496 210 496 210 496 210 b 568 417 522 301 547 369 b 586 446 576 432 582 440 b 593 447 589 447 590 447 m 356 415 b 363 406 360 415 361 413 l 363 401 b 338 328 363 392 354 367 b 310 194 318 278 310 233 l 310 186 b 336 65 310 139 318 100 b 338 63 338 64 338 64 b 326 60 338 61 333 60 b 283 83 308 60 294 68 b 271 131 275 97 271 113 l 271 138 b 279 239 271 157 274 190 l 279 240 b 269 222 278 240 275 233 b 235 156 256 194 244 172 b 221 144 231 147 225 144 b 211 154 217 144 214 147 b 199 164 208 160 204 163 b 192 169 196 165 193 167 b 188 189 189 175 188 181 l 188 193 b 204 264 188 207 193 232 b 232 322 213 286 221 306 b 256 354 238 333 246 344 b 286 372 268 367 278 372 l 288 372 b 306 349 296 372 303 364 b 328 393 318 375 325 390 b 344 408 333 400 339 406 b 354 415 350 414 353 415 l 356 415 m 626 265 b 632 246 628 253 629 246 l 633 246 b 643 269 635 246 639 254 b 675 365 650 289 661 321 b 679 381 678 372 679 376 b 672 400 679 386 676 392 l 669 400 b 653 375 665 399 660 390 b 636 324 647 364 642 347 b 628 272 633 313 631 296 b 626 265 626 268 626 265 m 219 189 b 219 182 219 185 219 182 b 231 199 224 186 226 192 b 293 318 256 246 275 285 b 296 328 294 321 296 325 b 290 347 296 333 293 339 b 289 349 289 349 289 349 b 276 336 286 349 282 344 b 235 256 261 314 246 288 b 224 218 228 235 224 222 b 219 189 221 210 219 200 m 581 -115 l 581 -239 b 579 -239 581 -239 581 -239 l 569 -239 b 568 -239 568 -239 568 -239 l 568 -119 b 581 -114 568 -118 572 -117 m 860 -115 l 860 -185 l 894 -154 l 904 -154 b 874 -182 904 -154 893 -164 l 874 -183 l 913 -239 l 899 -239 b 865 -190 882 -217 871 -201 l 864 -190 l 860 -194 l 860 -239 b 860 -239 860 -239 860 -239 l 849 -239 b 849 -239 849 -239 849 -239 l 849 -119 b 860 -114 849 -118 853 -117 m 936 -115 l 936 -160 b 953 -154 940 -156 946 -154 l 956 -154 b 979 -172 968 -154 975 -160 b 982 -189 981 -178 982 -183 l 982 -239 b 982 -239 982 -239 982 -239 l 969 -239 b 969 -239 969 -239 969 -239 l 969 -192 b 961 -162 969 -176 967 -165 b 953 -160 960 -161 956 -160 b 936 -175 944 -160 939 -165 b 936 -179 936 -176 936 -178 l 936 -239 b 935 -239 936 -239 936 -239 l 924 -239 b 924 -239 924 -239 924 -239 l 924 -119 b 936 -114 924 -118 928 -117 m 1086 -132 l 1086 -154 l 1101 -154 b 1101 -154 1101 -154 1101 -154 l 1101 -160 b 1101 -160 1101 -160 1101 -160 l 1086 -160 l 1086 -203 b 1092 -231 1086 -219 1088 -229 b 1097 -232 1093 -232 1096 -232 l 1100 -232 b 1113 -226 1103 -232 1107 -231 b 1110 -239 1111 -235 1110 -239 l 1103 -239 b 1081 -232 1090 -239 1082 -236 b 1075 -201 1076 -226 1075 -217 l 1075 -160 l 1063 -160 b 1063 -160 1063 -160 1063 -160 l 1063 -154 b 1063 -154 1063 -154 1063 -154 l 1075 -154 l 1075 -137 b 1086 -132 1075 -137 1078 -135 m 1226 -153 b 1251 -168 1239 -153 1247 -158 b 1254 -194 1254 -174 1254 -182 l 1254 -199 b 1242 -236 1254 -219 1250 -232 b 1226 -240 1238 -239 1232 -240 b 1208 -235 1219 -240 1214 -237 l 1208 -275 b 1197 -281 1208 -275 1204 -276 l 1196 -281 l 1196 -171 b 1194 -160 1196 -167 1196 -162 b 1203 -156 1194 -158 1199 -157 l 1207 -160 b 1226 -153 1211 -156 1218 -153 m 607 -153 l 607 -158 b 622 -154 611 -156 617 -154 l 626 -154 b 647 -164 636 -154 643 -157 b 647 -165 647 -164 647 -164 b 656 -156 647 -162 651 -160 b 667 -154 660 -154 664 -154 l 671 -154 b 693 -168 682 -154 689 -158 b 696 -192 694 -175 696 -182 l 696 -239 b 696 -239 696 -239 696 -239 l 685 -239 b 683 -239 685 -239 683 -239 l 683 -194 b 679 -164 683 -178 682 -168 b 668 -160 676 -161 672 -160 b 651 -179 658 -160 653 -167 l 651 -239 b 651 -239 651 -239 651 -239 l 640 -239 b 639 -239 639 -239 639 -239 l 639 -203 b 635 -165 639 -181 638 -168 b 624 -160 633 -162 629 -160 b 608 -174 615 -160 610 -165 b 607 -179 607 -175 607 -178 l 607 -239 b 607 -239 607 -239 607 -239 l 596 -239 b 594 -239 594 -239 594 -239 l 594 -158 b 607 -153 594 -157 599 -156 m 794 -153 l 794 -164 b 808 -154 796 -160 800 -157 b 814 -154 810 -154 813 -154 l 831 -154 b 836 -168 832 -154 833 -158 b 815 -160 829 -162 822 -160 b 796 -182 806 -160 800 -168 b 794 -211 794 -190 794 -200 l 794 -239 b 793 -239 794 -239 794 -239 l 782 -239 b 782 -239 782 -239 782 -239 l 782 -158 b 794 -153 782 -157 786 -156 m 1133 -153 l 1133 -196 b 1140 -229 1133 -214 1136 -225 b 1149 -232 1142 -231 1144 -232 l 1151 -232 b 1168 -217 1160 -232 1165 -226 b 1168 -211 1168 -214 1168 -212 l 1168 -158 b 1179 -153 1168 -157 1172 -156 l 1179 -237 b 1161 -276 1179 -258 1174 -272 b 1151 -279 1157 -279 1154 -279 l 1133 -279 b 1129 -265 1133 -279 1132 -275 b 1147 -272 1136 -269 1143 -272 l 1150 -272 b 1167 -253 1158 -272 1164 -267 b 1168 -236 1168 -247 1168 -242 l 1168 -233 b 1150 -239 1163 -237 1157 -239 l 1149 -239 b 1125 -224 1138 -239 1129 -235 b 1121 -200 1122 -218 1121 -210 l 1121 -158 b 1133 -153 1122 -157 1126 -156 m 1517 -153 l 1517 -158 b 1532 -154 1521 -156 1526 -154 l 1536 -154 b 1557 -162 1546 -154 1551 -157 b 1557 -165 1557 -164 1557 -164 b 1564 -157 1557 -162 1560 -160 b 1576 -154 1568 -154 1572 -154 l 1581 -154 b 1604 -171 1593 -154 1600 -160 b 1606 -196 1606 -176 1606 -185 l 1606 -239 b 1606 -239 1606 -239 1606 -239 l 1594 -239 b 1594 -239 1594 -239 1594 -239 l 1594 -203 b 1589 -165 1594 -181 1592 -168 b 1578 -160 1588 -162 1583 -160 b 1563 -174 1569 -160 1565 -165 b 1561 -183 1561 -176 1561 -181 l 1561 -239 b 1561 -239 1561 -239 1561 -239 l 1550 -239 b 1549 -239 1549 -239 1549 -239 l 1549 -192 b 1543 -164 1549 -176 1547 -167 b 1533 -160 1540 -161 1538 -160 b 1518 -172 1525 -160 1521 -164 b 1517 -181 1517 -175 1517 -178 l 1517 -239 b 1517 -239 1517 -239 1517 -239 l 1506 -239 b 1504 -239 1504 -239 1504 -239 l 1504 -158 b 1517 -153 1504 -157 1508 -156 m 1299 -153 b 1322 -168 1310 -153 1318 -158 b 1326 -190 1325 -174 1326 -182 l 1326 -193 b 1313 -196 1326 -193 1322 -194 b 1281 -203 1313 -196 1301 -199 l 1281 -204 b 1290 -231 1281 -219 1283 -228 b 1300 -232 1293 -232 1296 -232 l 1303 -232 b 1322 -225 1308 -232 1315 -229 b 1318 -239 1319 -233 1318 -239 l 1297 -239 b 1268 -204 1278 -239 1268 -228 l 1268 -189 b 1288 -154 1268 -171 1275 -158 b 1299 -153 1292 -153 1294 -153 m 1461 -153 b 1489 -176 1476 -153 1485 -161 b 1490 -194 1490 -182 1490 -187 l 1490 -197 b 1461 -240 1490 -225 1481 -240 b 1431 -197 1440 -240 1431 -225 b 1447 -156 1431 -175 1436 -161 b 1461 -153 1450 -154 1456 -153 m 121 -154 b 133 -187 121 -154 125 -165 l 144 -218 l 158 -179 l 149 -154 l 150 -154 l 161 -154 b 185 -218 161 -154 169 -175 b 208 -154 192 -199 200 -176 l 215 -154 b 185 -239 215 -157 204 -185 l 179 -239 b 161 -189 179 -239 174 -222 b 144 -239 161 -192 156 -208 l 139 -239 b 136 -232 138 -239 138 -236 b 108 -154 118 -182 108 -156 m 240 -154 b 246 -168 240 -154 242 -158 b 263 -218 257 -200 263 -217 b 275 -185 263 -218 267 -207 b 278 -179 275 -185 276 -183 b 268 -154 271 -162 268 -154 l 281 -154 b 290 -181 282 -156 285 -164 b 304 -218 292 -183 296 -196 b 328 -154 311 -197 319 -175 l 333 -154 b 335 -154 335 -154 335 -154 l 304 -239 l 299 -239 b 290 -215 299 -239 296 -231 b 281 -190 285 -200 282 -190 b 264 -239 269 -221 264 -237 l 258 -239 b 250 -217 257 -237 254 -231 b 228 -154 249 -217 242 -194 m 360 -154 b 369 -185 360 -154 363 -164 b 382 -218 371 -186 375 -197 l 396 -179 l 388 -154 l 389 -154 l 400 -154 b 406 -168 400 -154 403 -158 b 424 -218 407 -171 413 -187 b 432 -194 424 -218 426 -211 b 447 -154 442 -169 446 -156 l 454 -154 b 424 -239 454 -154 444 -183 l 418 -239 b 414 -228 418 -239 417 -235 b 400 -189 414 -228 408 -215 b 382 -239 389 -222 383 -239 l 376 -239 b 374 -231 376 -239 376 -236 b 347 -154 357 -182 347 -156 m 522 -154 b 550 -176 538 -154 547 -161 b 550 -192 550 -181 550 -186 l 550 -226 b 554 -239 550 -232 551 -236 l 553 -239 b 543 -239 549 -239 544 -239 b 539 -232 542 -237 540 -235 b 517 -240 533 -237 526 -240 b 494 -222 506 -240 499 -233 b 493 -214 494 -219 493 -217 l 493 -210 b 511 -181 493 -194 500 -186 b 538 -176 519 -178 528 -176 b 533 -164 538 -172 536 -168 b 519 -160 531 -161 525 -160 b 500 -167 511 -160 504 -162 b 497 -168 499 -167 499 -168 b 503 -154 500 -158 501 -154 m 739 -154 b 764 -168 751 -154 758 -158 b 767 -190 765 -174 767 -182 l 767 -225 b 769 -239 767 -232 768 -236 b 760 -239 764 -239 761 -239 b 756 -231 758 -239 757 -236 b 733 -240 750 -236 742 -240 b 711 -224 722 -240 715 -235 b 710 -212 710 -219 710 -215 l 710 -211 b 726 -182 710 -196 715 -186 b 754 -176 733 -178 743 -176 b 750 -164 754 -172 753 -168 b 736 -160 747 -161 743 -160 b 715 -167 728 -160 721 -162 b 714 -168 715 -168 714 -168 b 718 -154 717 -158 718 -154 m 1025 -154 b 1050 -172 1038 -154 1046 -160 b 1053 -199 1053 -176 1053 -186 l 1053 -229 b 1056 -239 1053 -232 1054 -235 b 1044 -239 1050 -239 1046 -239 b 1042 -231 1042 -236 1042 -233 b 1019 -240 1035 -236 1028 -240 b 997 -224 1008 -240 1001 -235 b 996 -211 996 -221 996 -217 b 1011 -182 996 -197 1000 -187 b 1039 -176 1018 -179 1028 -176 l 1040 -176 b 1036 -165 1039 -171 1038 -167 b 1022 -160 1033 -161 1028 -160 b 1000 -168 1014 -160 1007 -162 b 1000 -168 1000 -168 1000 -168 b 1004 -154 1003 -158 1004 -154 m 1415 -154 b 1419 -168 1417 -154 1418 -158 b 1400 -160 1413 -162 1406 -160 b 1382 -167 1390 -160 1385 -162 b 1379 -197 1381 -169 1379 -181 b 1385 -228 1379 -215 1381 -226 b 1397 -232 1386 -231 1390 -232 l 1401 -232 b 1419 -225 1407 -232 1413 -229 b 1415 -239 1418 -235 1417 -239 l 1396 -239 b 1369 -222 1382 -239 1374 -233 b 1365 -196 1367 -215 1365 -207 b 1381 -157 1365 -175 1371 -162 b 1394 -154 1385 -154 1389 -154 m 1208 -214 b 1218 -232 1208 -222 1211 -228 b 1226 -233 1221 -232 1224 -233 b 1239 -225 1232 -233 1238 -231 b 1243 -192 1242 -218 1243 -207 b 1236 -162 1243 -176 1240 -167 b 1226 -160 1233 -161 1229 -160 l 1225 -160 b 1210 -172 1217 -160 1211 -164 b 1208 -179 1208 -175 1208 -178 m 1281 -194 l 1314 -189 l 1314 -187 b 1303 -161 1314 -174 1311 -165 b 1297 -160 1300 -160 1299 -160 b 1283 -169 1290 -160 1286 -162 b 1281 -192 1281 -175 1281 -183 m 1443 -199 b 1451 -231 1443 -217 1446 -226 b 1461 -233 1454 -232 1457 -233 b 1475 -222 1468 -233 1472 -229 b 1478 -199 1476 -217 1478 -208 l 1478 -194 b 1469 -162 1478 -176 1475 -167 b 1461 -160 1467 -161 1464 -160 b 1447 -171 1454 -160 1449 -162 b 1443 -194 1444 -175 1443 -183 m 506 -210 b 521 -231 506 -224 510 -231 b 539 -221 528 -231 535 -228 l 539 -189 b 539 -183 539 -187 539 -186 b 510 -192 525 -183 515 -186 b 506 -210 507 -197 506 -203 m 722 -211 b 733 -231 722 -222 725 -229 l 736 -231 b 754 -221 744 -231 751 -228 l 754 -185 l 754 -183 b 726 -193 740 -183 731 -187 b 722 -208 724 -197 722 -203 m 1007 -211 b 1022 -231 1007 -224 1013 -231 b 1040 -221 1031 -231 1036 -228 l 1040 -183 b 1010 -196 1025 -183 1014 -187 b 1007 -211 1008 -200 1007 -204 m 475 -224 b 482 -231 478 -224 481 -226 l 482 -232 b 476 -239 482 -235 479 -237 b 474 -239 476 -239 475 -239 b 467 -233 471 -239 468 -237 l 467 -231 b 474 -224 467 -228 468 -225 l 475 -224 m 1347 -224 b 1354 -229 1350 -224 1351 -225 b 1354 -232 1354 -231 1354 -232 b 1349 -239 1354 -235 1353 -237 l 1346 -239 b 1339 -233 1343 -239 1340 -237 b 1339 -232 1339 -232 1339 -232 b 1346 -224 1339 -228 1342 -225 l 1347 -224 "},"4":{"ha":832,"x_min":0,"x_max":0,"o":""},"5":{"ha":785,"x_min":0,"x_max":0,"o":""},"6":{"ha":786,"x_min":0,"x_max":0,"o":""},"7":{"ha":785,"x_min":0,"x_max":0,"o":""},"8":{"ha":800,"x_min":0,"x_max":0,"o":""},"9":{"ha":1685,"x_min":0,"x_max":0,"o":"m 522 925 b 560 896 542 925 554 915 b 565 850 564 883 565 868 l 565 840 b 539 769 565 801 557 778 b 521 765 535 767 528 765 b 482 801 501 765 488 778 b 478 842 479 814 478 828 l 478 849 b 501 919 478 888 486 911 b 522 925 507 924 514 925 m 1304 925 b 1343 893 1325 925 1338 914 b 1349 844 1347 882 1349 865 b 1324 769 1349 803 1340 778 b 1304 765 1318 767 1313 765 b 1265 799 1285 765 1272 776 b 1261 846 1263 811 1261 826 b 1286 921 1261 888 1269 913 b 1304 925 1290 924 1297 925 m 147 922 b 186 901 168 922 181 915 b 189 879 188 896 189 888 b 171 842 189 860 183 847 b 143 838 165 839 156 838 l 115 838 l 115 768 b 115 768 115 768 115 768 l 101 768 b 101 768 101 768 101 768 l 101 922 b 101 922 101 922 101 922 m 272 922 b 275 914 272 922 274 919 l 221 914 b 221 914 221 914 221 914 l 221 854 l 264 854 b 264 853 264 854 264 854 l 264 846 b 264 844 264 846 264 844 l 221 844 l 221 776 l 279 776 b 276 768 278 771 276 768 l 206 768 b 206 768 206 768 206 768 l 206 922 b 206 922 206 922 206 922 m 343 922 b 381 901 363 922 376 915 b 383 882 383 896 383 889 b 365 844 383 861 378 849 b 361 843 364 844 363 843 b 390 768 369 833 379 808 l 389 768 l 375 768 b 369 788 374 768 372 775 b 346 840 360 824 351 840 l 313 840 l 313 768 b 313 768 313 768 313 768 l 299 768 b 299 768 299 768 299 768 l 299 922 b 299 922 299 922 299 922 m 454 922 b 458 908 456 922 457 918 b 458 907 458 908 458 908 b 443 914 451 911 447 914 b 428 897 433 914 428 908 l 428 894 b 443 850 428 883 433 868 b 458 803 453 832 458 817 b 439 771 458 788 451 776 b 425 768 435 768 431 768 l 414 768 b 408 785 413 768 411 774 l 410 785 b 424 776 415 779 419 776 l 425 776 b 443 794 435 776 440 782 b 443 801 443 796 443 799 b 425 850 443 813 438 829 b 413 889 417 867 413 879 l 413 893 b 431 921 413 907 419 915 b 440 922 435 922 438 922 m 599 922 b 656 797 601 919 619 878 l 657 797 l 657 922 b 657 922 657 922 657 922 l 665 922 b 665 922 665 922 665 922 l 665 768 b 665 768 665 768 665 768 l 654 768 b 607 868 653 769 636 804 b 593 899 607 871 601 881 l 593 768 b 593 768 593 768 593 768 l 586 768 b 585 768 585 768 585 768 l 585 922 b 586 922 585 922 585 922 m 732 922 b 738 903 733 922 735 915 b 778 768 764 818 776 772 l 763 768 b 758 779 763 768 761 772 b 749 814 758 782 754 793 l 703 814 b 689 768 694 786 690 771 l 681 768 b 681 768 681 768 681 768 b 725 922 708 867 724 918 l 732 922 m 811 922 b 811 922 811 922 811 922 l 811 776 l 869 776 b 868 768 869 771 868 768 l 797 768 b 797 768 797 768 797 768 l 797 922 b 797 922 797 922 797 922 m 958 922 b 958 922 958 922 958 922 l 958 836 b 967 783 958 807 961 789 b 988 774 969 778 976 774 b 1011 788 999 774 1007 779 b 1015 833 1014 796 1015 810 l 1015 922 b 1015 922 1015 922 1015 922 l 1025 922 b 1025 922 1025 922 1025 922 l 1025 854 b 1019 788 1025 817 1022 794 b 1006 769 1015 779 1011 772 b 986 765 1000 767 994 765 b 951 785 969 765 957 772 b 943 844 946 796 943 815 l 943 922 b 943 922 943 922 943 922 m 1088 922 b 1092 908 1088 922 1089 918 b 1092 907 1092 908 1092 908 b 1075 914 1085 911 1079 914 b 1060 896 1065 914 1060 908 b 1075 850 1060 883 1065 868 b 1090 803 1085 832 1090 815 b 1071 771 1090 788 1085 776 b 1057 768 1067 768 1063 768 l 1046 768 b 1042 785 1046 768 1044 774 b 1056 776 1047 779 1053 776 l 1057 776 b 1075 797 1068 776 1074 783 l 1075 800 b 1075 801 1075 800 1075 800 b 1075 801 1075 801 1075 801 l 1075 803 b 1058 849 1075 814 1069 829 b 1044 892 1050 865 1044 879 b 1064 921 1044 907 1051 917 b 1074 922 1068 922 1071 922 m 1181 922 b 1183 914 1182 922 1182 919 l 1129 914 l 1129 854 l 1172 854 b 1174 853 1172 854 1174 854 l 1174 846 b 1172 844 1174 846 1172 844 l 1129 844 l 1129 776 l 1188 776 b 1188 776 1188 776 1188 776 b 1186 768 1186 771 1186 768 l 1115 768 b 1114 768 1114 768 1114 768 l 1114 922 b 1115 922 1114 922 1115 922 m 1382 922 b 1389 907 1382 922 1385 917 b 1439 797 1392 901 1408 865 l 1439 922 b 1440 922 1439 922 1440 922 l 1447 922 b 1447 922 1447 922 1447 922 l 1447 768 b 1447 768 1447 768 1447 768 l 1436 768 b 1426 789 1436 768 1432 775 b 1376 899 1425 792 1408 828 l 1376 768 b 1375 768 1376 768 1376 768 l 1368 768 b 1368 768 1368 768 1368 768 l 1368 922 b 1368 922 1368 922 1368 922 m 1482 922 b 1482 922 1482 922 1482 922 l 1482 776 l 1540 776 b 1538 768 1539 771 1539 768 l 1468 768 b 1467 768 1468 768 1467 768 l 1467 922 b 1468 922 1468 922 1468 922 m 1538 922 b 1571 857 1538 922 1549 900 b 1603 922 1574 861 1583 883 l 1613 922 b 1575 847 1613 922 1600 897 l 1575 768 b 1575 768 1575 768 1575 768 l 1561 768 b 1560 768 1560 768 1560 768 l 1560 846 b 1522 922 1560 847 1547 872 m 493 846 b 500 788 493 814 496 794 b 522 774 504 779 511 774 b 544 789 533 774 542 779 b 550 846 549 796 550 815 b 543 906 550 879 549 899 b 522 917 539 913 532 917 l 521 917 b 497 897 508 917 501 910 b 493 846 494 889 493 871 m 1276 839 b 1285 783 1276 808 1279 790 b 1306 774 1289 778 1296 774 b 1329 790 1317 774 1325 779 b 1333 839 1332 800 1333 815 l 1333 851 b 1324 908 1333 883 1331 903 b 1306 917 1319 914 1314 917 l 1304 917 b 1282 901 1293 917 1286 911 b 1276 851 1278 893 1276 876 m 115 846 l 146 846 b 168 856 157 846 165 849 b 172 879 171 860 172 868 b 161 911 172 897 168 907 b 140 914 160 913 151 914 l 115 914 m 313 850 l 336 850 b 361 857 350 850 358 851 b 367 882 365 860 367 868 b 358 910 367 897 364 907 b 336 914 354 913 347 914 l 313 914 m 725 893 b 706 822 725 893 719 869 l 746 822 b 725 893 733 867 726 890 m 1144 674 b 1151 664 1147 672 1150 668 b 1163 639 1154 654 1157 646 b 1164 636 1164 638 1164 636 b 1154 614 1164 635 1161 628 b 1092 449 1132 567 1111 511 b 1072 363 1085 424 1079 396 b 1069 333 1071 346 1069 336 b 1075 346 1071 333 1072 338 b 1129 450 1094 393 1113 428 b 1176 485 1146 474 1161 485 l 1178 485 b 1186 483 1183 485 1186 483 l 1194 483 b 1210 475 1203 483 1208 481 l 1210 474 b 1200 450 1210 471 1207 463 b 1163 311 1175 401 1163 354 l 1163 306 b 1204 229 1163 274 1176 249 b 1249 217 1218 221 1233 217 b 1233 201 1244 208 1240 204 b 1201 196 1224 197 1213 196 b 1128 249 1167 196 1142 214 b 1122 282 1125 258 1122 269 l 1122 286 b 1144 414 1122 318 1131 361 b 1149 429 1147 421 1147 426 b 1082 286 1119 372 1097 324 b 1058 222 1071 261 1064 240 b 1050 208 1056 214 1051 208 l 1049 208 b 1039 215 1047 208 1044 211 b 1026 225 1032 218 1028 221 b 1025 243 1025 226 1025 233 l 1025 246 b 1028 306 1025 261 1026 282 b 1000 285 1018 297 1010 290 b 964 271 986 275 975 271 b 940 285 956 271 947 275 b 922 308 935 292 928 300 l 921 311 b 917 301 919 311 918 308 b 897 211 911 285 904 254 b 886 186 893 194 889 186 b 874 193 885 186 881 188 b 857 210 865 197 860 203 b 854 233 854 214 854 222 l 854 243 b 894 463 854 293 867 367 b 942 608 907 506 922 554 b 939 610 942 610 940 610 l 910 610 b 769 590 853 610 806 603 b 735 568 757 585 746 578 l 728 558 b 719 544 724 554 722 549 b 713 567 717 550 714 557 b 711 576 711 571 711 575 b 760 633 711 606 728 624 b 794 639 775 638 788 639 b 896 644 821 643 856 644 b 942 647 922 644 939 646 b 965 658 953 647 960 650 b 969 660 968 660 969 660 l 971 660 b 982 642 976 660 979 654 b 990 625 985 635 988 629 b 993 622 992 625 992 624 b 983 601 993 621 990 614 b 924 440 961 553 942 500 b 904 358 917 418 910 390 b 901 335 903 349 901 340 b 971 489 925 406 949 456 b 1006 513 983 504 994 513 b 1032 492 1018 513 1026 506 b 1033 475 1033 486 1033 481 l 1033 474 b 1013 390 1033 451 1026 424 b 992 357 1007 381 1000 369 b 968 335 982 346 974 338 b 949 325 963 331 956 328 b 944 322 946 325 944 324 b 957 307 944 319 949 315 b 969 303 961 304 965 303 l 971 303 b 1007 326 981 303 992 310 b 1032 361 1018 339 1026 350 b 1043 385 1039 369 1042 378 b 1060 456 1046 404 1051 428 b 1124 647 1076 518 1099 582 b 1132 667 1128 658 1131 665 b 1140 674 1136 671 1139 672 m 1371 672 b 1374 671 1372 672 1374 672 l 1374 669 b 1363 643 1374 668 1369 660 l 1363 642 b 1365 640 1363 640 1364 640 l 1372 640 b 1443 631 1396 640 1419 638 b 1457 619 1453 626 1457 622 b 1456 617 1457 618 1457 617 b 1436 624 1453 618 1447 621 b 1385 629 1419 626 1403 629 b 1363 628 1378 629 1369 628 l 1360 628 b 1354 625 1357 628 1356 628 b 1329 560 1343 600 1335 578 b 1325 549 1326 553 1325 549 b 1329 544 1326 546 1328 544 b 1339 551 1331 544 1333 546 b 1363 578 1349 561 1357 569 b 1381 590 1365 583 1372 588 b 1365 561 1378 585 1374 575 b 1360 546 1363 556 1361 551 b 1368 554 1363 546 1365 549 b 1397 593 1385 576 1394 589 b 1406 597 1401 596 1403 597 b 1413 593 1410 596 1413 594 b 1376 507 1400 564 1388 536 b 1365 460 1369 483 1365 468 b 1367 450 1365 456 1367 451 b 1354 463 1361 451 1357 457 b 1353 472 1353 467 1353 469 b 1369 524 1353 481 1358 499 b 1382 554 1375 538 1379 549 b 1361 526 1374 543 1367 533 b 1354 522 1358 524 1356 522 b 1344 536 1351 522 1347 528 l 1344 539 b 1325 522 1335 528 1329 522 b 1313 538 1322 522 1318 528 b 1311 549 1311 542 1311 544 b 1321 583 1311 556 1314 567 b 1335 624 1326 596 1331 610 b 1335 625 1335 625 1335 625 l 1333 625 b 1311 617 1325 625 1318 622 b 1301 604 1307 613 1304 608 l 1301 603 b 1292 613 1297 604 1294 607 b 1292 617 1292 614 1292 615 b 1322 636 1292 626 1303 633 b 1340 640 1335 638 1340 639 b 1343 647 1342 640 1342 643 b 1349 663 1346 654 1347 660 b 1356 668 1349 665 1351 667 b 1371 672 1358 668 1363 669 m 596 619 b 618 603 608 619 615 614 b 619 599 619 601 619 600 l 619 594 b 607 544 617 575 613 558 b 521 454 590 504 563 475 b 490 442 503 446 492 442 b 457 433 483 439 472 436 b 439 431 444 432 439 431 b 419 385 436 426 431 411 b 385 272 406 350 394 313 b 371 178 376 233 371 203 b 428 57 371 128 390 88 b 515 26 456 38 485 26 l 517 26 b 731 71 564 26 636 42 l 882 118 b 1024 157 928 133 975 146 b 1133 171 1065 167 1101 171 l 1135 171 b 1257 147 1181 171 1221 163 b 1292 128 1268 143 1279 136 b 1315 107 1299 122 1307 115 b 1338 72 1329 92 1338 81 l 1338 71 l 1336 71 b 1149 125 1296 107 1233 125 l 1147 125 b 829 60 1063 125 957 103 b 685 13 768 40 719 24 b 525 -17 618 -7 565 -17 l 517 -17 b 379 40 458 -17 413 1 b 333 178 349 76 333 122 b 358 329 333 224 342 274 b 390 407 369 358 379 385 b 403 432 399 422 403 431 b 347 433 401 433 383 433 b 208 394 278 433 231 421 b 199 379 206 390 203 386 b 193 408 194 390 193 400 b 232 463 193 435 206 453 b 308 471 247 468 272 471 b 407 467 326 471 358 469 b 419 467 408 467 413 467 b 429 476 422 467 426 469 b 472 535 442 494 456 514 b 525 588 494 561 513 578 b 554 607 536 596 546 603 b 596 619 569 615 583 619 m 1481 600 b 1493 578 1488 600 1492 593 b 1494 569 1494 575 1494 572 b 1479 535 1494 557 1490 546 b 1469 531 1476 532 1472 531 l 1465 531 b 1451 540 1461 531 1456 533 b 1451 546 1451 543 1451 544 b 1463 586 1451 560 1456 574 b 1468 589 1465 588 1467 589 l 1469 589 b 1478 578 1475 589 1478 585 l 1478 575 b 1461 546 1478 564 1472 554 b 1461 543 1461 544 1461 544 b 1464 539 1463 540 1463 539 l 1465 539 b 1479 553 1469 540 1475 544 b 1483 575 1482 560 1483 567 b 1481 599 1483 581 1483 589 b 1481 600 1481 600 1481 600 m 1424 593 b 1432 588 1429 592 1432 590 b 1425 575 1432 588 1429 582 b 1410 539 1419 564 1414 553 b 1424 565 1411 540 1415 549 l 1438 590 b 1439 590 1439 590 1439 590 b 1447 567 1444 590 1447 583 l 1447 563 b 1440 533 1447 549 1444 539 b 1433 531 1438 532 1435 531 l 1432 531 b 1421 536 1429 531 1425 533 b 1419 536 1421 536 1421 536 b 1414 525 1419 536 1418 532 b 1382 457 1399 496 1388 474 b 1379 453 1381 454 1379 453 l 1378 453 b 1372 463 1374 456 1372 460 l 1372 464 b 1407 564 1374 475 1385 508 b 1419 592 1414 579 1418 589 b 1422 593 1421 593 1422 593 m 464 468 b 533 494 486 468 508 478 b 563 524 546 506 556 515 b 576 549 568 533 572 542 b 586 582 582 564 586 575 b 588 589 586 582 588 585 b 521 542 568 578 546 561 b 476 496 501 522 486 507 b 457 469 468 486 463 478 l 457 468 m 1469 575 b 1464 560 1467 569 1464 564 b 1464 558 1464 560 1464 558 b 1471 575 1468 564 1471 569 l 1469 575 m 1436 568 b 1422 540 1435 564 1431 556 b 1435 546 1429 540 1433 543 b 1438 558 1438 550 1438 554 l 1438 564 b 1438 568 1438 567 1438 568 l 1436 568 m 746 519 b 768 501 756 519 764 513 b 776 476 772 494 775 486 b 781 469 778 472 779 469 b 822 481 792 472 806 476 b 842 489 835 486 840 488 b 853 497 843 489 847 492 b 865 504 857 501 861 504 b 879 492 871 504 876 500 l 879 488 b 872 460 879 485 878 475 b 826 229 842 356 826 279 b 844 147 826 201 832 174 l 844 146 b 842 144 843 144 843 144 l 839 144 b 796 165 822 144 807 151 b 783 199 788 176 783 188 l 783 203 b 813 356 783 219 793 271 b 835 449 822 397 829 428 b 842 461 836 453 839 457 b 842 461 842 461 842 461 b 783 443 826 456 807 449 b 782 440 782 443 782 443 b 782 417 782 435 782 426 b 767 292 782 382 776 340 b 725 218 753 243 739 218 b 711 229 721 218 717 222 b 700 239 707 235 703 238 b 685 257 693 242 689 247 b 681 315 682 267 681 286 l 681 321 b 644 224 667 271 656 239 b 635 215 640 218 638 215 l 633 215 b 624 224 631 215 628 218 b 614 228 622 225 619 226 b 601 244 608 231 604 236 b 599 269 599 253 599 261 b 613 351 599 293 603 321 b 636 400 619 369 626 386 b 672 432 650 422 663 432 b 693 406 682 432 689 424 b 708 428 697 414 703 422 b 722 433 713 432 717 433 b 736 429 726 433 732 432 l 738 429 l 738 428 b 729 415 738 428 735 424 b 717 385 725 407 721 397 b 704 311 708 358 704 333 l 704 304 b 713 261 704 286 707 272 b 717 256 714 257 715 256 b 732 288 721 258 726 269 b 753 406 746 331 753 371 l 753 415 b 749 449 753 424 751 435 b 743 453 749 450 746 451 b 715 489 725 460 715 472 b 735 517 715 501 722 511 b 746 519 738 518 742 519 m 1331 508 b 1338 503 1333 508 1336 507 b 1338 493 1338 500 1338 497 b 1318 408 1338 481 1331 453 b 1294 272 1303 354 1294 308 b 1317 196 1294 238 1303 213 b 1342 186 1325 189 1333 186 l 1344 186 b 1383 203 1356 186 1368 192 b 1397 217 1389 207 1394 213 b 1432 349 1421 247 1432 292 l 1432 354 b 1426 425 1432 379 1431 403 b 1418 438 1424 433 1421 438 b 1399 407 1414 438 1407 428 b 1375 308 1383 371 1375 338 b 1385 268 1375 292 1378 279 b 1388 265 1386 267 1386 265 b 1374 261 1382 263 1378 261 b 1349 300 1361 261 1353 274 b 1342 317 1346 307 1344 313 b 1338 339 1339 324 1338 332 l 1338 340 b 1360 404 1338 357 1344 378 b 1379 429 1364 411 1371 419 b 1403 450 1390 440 1399 449 b 1431 458 1413 456 1421 458 b 1471 438 1449 458 1461 451 b 1482 389 1479 425 1482 408 l 1482 383 b 1467 293 1482 358 1478 329 b 1444 240 1460 274 1453 256 b 1356 172 1418 194 1389 172 b 1293 201 1332 172 1313 182 b 1269 256 1282 215 1274 233 b 1264 303 1265 272 1264 288 b 1274 360 1264 322 1268 340 b 1274 364 1274 363 1274 364 l 1274 365 b 1231 265 1256 317 1242 283 b 1219 257 1228 260 1224 257 b 1210 267 1215 257 1213 261 b 1197 276 1207 271 1203 275 b 1189 282 1194 276 1192 278 b 1183 306 1185 289 1183 297 l 1183 308 b 1196 379 1183 324 1188 347 b 1221 440 1203 404 1213 424 b 1242 472 1228 454 1235 464 b 1271 490 1253 483 1263 490 b 1293 460 1281 490 1288 481 b 1293 460 1293 460 1293 460 b 1310 492 1303 481 1307 492 b 1317 497 1310 493 1313 494 b 1329 508 1322 504 1326 508 m 939 354 b 956 365 943 356 949 360 b 974 392 964 374 969 382 b 992 432 981 401 986 415 b 1004 478 996 443 999 458 b 988 456 999 474 993 465 b 960 407 978 440 969 424 b 938 354 946 378 938 360 m 1215 306 b 1217 294 1215 303 1215 299 b 1250 365 1224 306 1233 329 l 1283 442 l 1283 443 b 1275 465 1281 453 1279 461 l 1274 467 b 1261 450 1272 467 1267 461 b 1232 388 1250 432 1240 411 b 1218 336 1226 374 1222 357 b 1215 310 1217 322 1215 314 m 593 447 b 613 443 594 447 601 446 b 618 438 615 442 618 440 b 608 404 617 433 614 422 b 572 265 596 367 583 319 b 565 194 568 240 565 217 b 571 167 565 181 567 171 b 576 165 572 165 574 165 b 611 175 579 165 592 168 b 693 193 649 188 675 193 b 746 172 717 193 735 186 l 746 171 b 699 165 739 171 724 169 b 640 149 676 161 657 156 b 597 131 628 144 613 139 b 583 128 593 129 588 128 b 558 146 574 128 565 133 b 547 157 554 150 550 154 b 532 201 538 165 532 181 b 549 293 532 217 538 247 b 553 314 551 306 553 313 l 553 315 l 551 315 b 513 190 538 278 525 236 b 499 106 504 153 499 124 l 499 101 l 499 100 b 497 97 499 97 499 97 l 496 97 b 482 104 492 97 488 100 b 463 181 469 117 463 143 b 476 288 463 210 467 244 l 476 289 b 446 203 463 253 451 224 b 442 192 444 196 443 192 b 442 192 442 192 442 192 b 422 199 436 192 429 194 b 406 235 411 206 406 218 l 406 239 b 435 358 406 263 415 301 b 461 410 447 392 457 410 b 483 406 474 408 482 407 b 486 401 486 404 486 403 b 475 375 486 400 482 390 b 438 253 450 314 438 274 l 438 251 b 514 411 468 322 493 376 b 529 426 521 421 525 426 l 531 426 b 546 419 535 425 539 424 b 549 417 547 418 549 418 b 536 388 549 414 544 406 b 510 306 526 365 518 339 b 494 211 500 267 494 235 b 496 210 496 210 496 210 b 568 417 522 301 547 369 b 586 446 576 432 582 440 b 593 447 589 447 590 447 m 356 415 b 363 406 360 415 361 413 l 363 401 b 338 328 363 392 354 367 b 310 194 318 278 310 233 l 310 186 b 336 65 310 139 318 100 b 338 63 338 64 338 64 b 326 60 338 61 333 60 b 283 83 308 60 294 68 b 271 131 275 97 271 113 l 271 138 b 279 239 271 157 274 190 l 279 240 b 269 222 278 240 275 233 b 235 156 256 194 244 172 b 221 144 231 147 225 144 b 211 154 217 144 214 147 b 199 164 208 160 204 163 b 192 169 196 165 193 167 b 188 189 189 175 188 181 l 188 193 b 204 264 188 207 193 232 b 232 322 213 286 221 306 b 256 354 238 333 246 344 b 286 372 268 367 278 372 l 288 372 b 306 349 296 372 303 364 b 328 393 318 375 325 390 b 344 408 333 400 339 406 b 354 415 350 414 353 415 l 356 415 m 626 265 b 632 246 628 253 629 246 l 633 246 b 643 269 635 246 639 254 b 675 365 650 289 661 321 b 679 381 678 372 679 376 b 672 400 679 386 676 392 l 669 400 b 653 375 665 399 660 390 b 636 324 647 364 642 347 b 628 272 633 313 631 296 b 626 265 626 268 626 265 m 219 189 b 219 182 219 185 219 182 b 231 199 224 186 226 192 b 293 318 256 246 275 285 b 296 328 294 321 296 325 b 290 347 296 333 293 339 b 289 349 289 349 289 349 b 276 336 286 349 282 344 b 235 256 261 314 246 288 b 224 218 228 235 224 222 b 219 189 221 210 219 200 m 581 -115 l 581 -239 b 579 -239 581 -239 581 -239 l 569 -239 b 568 -239 568 -239 568 -239 l 568 -119 b 581 -114 568 -118 572 -117 m 860 -115 l 860 -185 l 894 -154 l 904 -154 b 874 -182 904 -154 893 -164 l 874 -183 l 913 -239 l 899 -239 b 865 -190 882 -217 871 -201 l 864 -190 l 860 -194 l 860 -239 b 860 -239 860 -239 860 -239 l 849 -239 b 849 -239 849 -239 849 -239 l 849 -119 b 860 -114 849 -118 853 -117 m 936 -115 l 936 -160 b 953 -154 940 -156 946 -154 l 956 -154 b 979 -172 968 -154 975 -160 b 982 -189 981 -178 982 -183 l 982 -239 b 982 -239 982 -239 982 -239 l 969 -239 b 969 -239 969 -239 969 -239 l 969 -192 b 961 -162 969 -176 967 -165 b 953 -160 960 -161 956 -160 b 936 -175 944 -160 939 -165 b 936 -179 936 -176 936 -178 l 936 -239 b 935 -239 936 -239 936 -239 l 924 -239 b 924 -239 924 -239 924 -239 l 924 -119 b 936 -114 924 -118 928 -117 m 1086 -132 l 1086 -154 l 1101 -154 b 1101 -154 1101 -154 1101 -154 l 1101 -160 b 1101 -160 1101 -160 1101 -160 l 1086 -160 l 1086 -203 b 1092 -231 1086 -219 1088 -229 b 1097 -232 1093 -232 1096 -232 l 1100 -232 b 1113 -226 1103 -232 1107 -231 b 1110 -239 1111 -235 1110 -239 l 1103 -239 b 1081 -232 1090 -239 1082 -236 b 1075 -201 1076 -226 1075 -217 l 1075 -160 l 1063 -160 b 1063 -160 1063 -160 1063 -160 l 1063 -154 b 1063 -154 1063 -154 1063 -154 l 1075 -154 l 1075 -137 b 1086 -132 1075 -137 1078 -135 m 1226 -153 b 1251 -168 1239 -153 1247 -158 b 1254 -194 1254 -174 1254 -182 l 1254 -199 b 1242 -236 1254 -219 1250 -232 b 1226 -240 1238 -239 1232 -240 b 1208 -235 1219 -240 1214 -237 l 1208 -275 b 1197 -281 1208 -275 1204 -276 l 1196 -281 l 1196 -171 b 1194 -160 1196 -167 1196 -162 b 1203 -156 1194 -158 1199 -157 l 1207 -160 b 1226 -153 1211 -156 1218 -153 m 607 -153 l 607 -158 b 622 -154 611 -156 617 -154 l 626 -154 b 647 -164 636 -154 643 -157 b 647 -165 647 -164 647 -164 b 656 -156 647 -162 651 -160 b 667 -154 660 -154 664 -154 l 671 -154 b 693 -168 682 -154 689 -158 b 696 -192 694 -175 696 -182 l 696 -239 b 696 -239 696 -239 696 -239 l 685 -239 b 683 -239 685 -239 683 -239 l 683 -194 b 679 -164 683 -178 682 -168 b 668 -160 676 -161 672 -160 b 651 -179 658 -160 653 -167 l 651 -239 b 651 -239 651 -239 651 -239 l 640 -239 b 639 -239 639 -239 639 -239 l 639 -203 b 635 -165 639 -181 638 -168 b 624 -160 633 -162 629 -160 b 608 -174 615 -160 610 -165 b 607 -179 607 -175 607 -178 l 607 -239 b 607 -239 607 -239 607 -239 l 596 -239 b 594 -239 594 -239 594 -239 l 594 -158 b 607 -153 594 -157 599 -156 m 794 -153 l 794 -164 b 808 -154 796 -160 800 -157 b 814 -154 810 -154 813 -154 l 831 -154 b 836 -168 832 -154 833 -158 b 815 -160 829 -162 822 -160 b 796 -182 806 -160 800 -168 b 794 -211 794 -190 794 -200 l 794 -239 b 793 -239 794 -239 794 -239 l 782 -239 b 782 -239 782 -239 782 -239 l 782 -158 b 794 -153 782 -157 786 -156 m 1133 -153 l 1133 -196 b 1140 -229 1133 -214 1136 -225 b 1149 -232 1142 -231 1144 -232 l 1151 -232 b 1168 -217 1160 -232 1165 -226 b 1168 -211 1168 -214 1168 -212 l 1168 -158 b 1179 -153 1168 -157 1172 -156 l 1179 -237 b 1161 -276 1179 -258 1174 -272 b 1151 -279 1157 -279 1154 -279 l 1133 -279 b 1129 -265 1133 -279 1132 -275 b 1147 -272 1136 -269 1143 -272 l 1150 -272 b 1167 -253 1158 -272 1164 -267 b 1168 -236 1168 -247 1168 -242 l 1168 -233 b 1150 -239 1163 -237 1157 -239 l 1149 -239 b 1125 -224 1138 -239 1129 -235 b 1121 -200 1122 -218 1121 -210 l 1121 -158 b 1133 -153 1122 -157 1126 -156 m 1517 -153 l 1517 -158 b 1532 -154 1521 -156 1526 -154 l 1536 -154 b 1557 -162 1546 -154 1551 -157 b 1557 -165 1557 -164 1557 -164 b 1564 -157 1557 -162 1560 -160 b 1576 -154 1568 -154 1572 -154 l 1581 -154 b 1604 -171 1593 -154 1600 -160 b 1606 -196 1606 -176 1606 -185 l 1606 -239 b 1606 -239 1606 -239 1606 -239 l 1594 -239 b 1594 -239 1594 -239 1594 -239 l 1594 -203 b 1589 -165 1594 -181 1592 -168 b 1578 -160 1588 -162 1583 -160 b 1563 -174 1569 -160 1565 -165 b 1561 -183 1561 -176 1561 -181 l 1561 -239 b 1561 -239 1561 -239 1561 -239 l 1550 -239 b 1549 -239 1549 -239 1549 -239 l 1549 -192 b 1543 -164 1549 -176 1547 -167 b 1533 -160 1540 -161 1538 -160 b 1518 -172 1525 -160 1521 -164 b 1517 -181 1517 -175 1517 -178 l 1517 -239 b 1517 -239 1517 -239 1517 -239 l 1506 -239 b 1504 -239 1504 -239 1504 -239 l 1504 -158 b 1517 -153 1504 -157 1508 -156 m 1299 -153 b 1322 -168 1310 -153 1318 -158 b 1326 -190 1325 -174 1326 -182 l 1326 -193 b 1313 -196 1326 -193 1322 -194 b 1281 -203 1313 -196 1301 -199 l 1281 -204 b 1290 -231 1281 -219 1283 -228 b 1300 -232 1293 -232 1296 -232 l 1303 -232 b 1322 -225 1308 -232 1315 -229 b 1318 -239 1319 -233 1318 -239 l 1297 -239 b 1268 -204 1278 -239 1268 -228 l 1268 -189 b 1288 -154 1268 -171 1275 -158 b 1299 -153 1292 -153 1294 -153 m 1461 -153 b 1489 -176 1476 -153 1485 -161 b 1490 -194 1490 -182 1490 -187 l 1490 -197 b 1461 -240 1490 -225 1481 -240 b 1431 -197 1440 -240 1431 -225 b 1447 -156 1431 -175 1436 -161 b 1461 -153 1450 -154 1456 -153 m 121 -154 b 133 -187 121 -154 125 -165 l 144 -218 l 158 -179 l 149 -154 l 150 -154 l 161 -154 b 185 -218 161 -154 169 -175 b 208 -154 192 -199 200 -176 l 215 -154 b 185 -239 215 -157 204 -185 l 179 -239 b 161 -189 179 -239 174 -222 b 144 -239 161 -192 156 -208 l 139 -239 b 136 -232 138 -239 138 -236 b 108 -154 118 -182 108 -156 m 240 -154 b 246 -168 240 -154 242 -158 b 263 -218 257 -200 263 -217 b 275 -185 263 -218 267 -207 b 278 -179 275 -185 276 -183 b 268 -154 271 -162 268 -154 l 281 -154 b 290 -181 282 -156 285 -164 b 304 -218 292 -183 296 -196 b 328 -154 311 -197 319 -175 l 333 -154 b 335 -154 335 -154 335 -154 l 304 -239 l 299 -239 b 290 -215 299 -239 296 -231 b 281 -190 285 -200 282 -190 b 264 -239 269 -221 264 -237 l 258 -239 b 250 -217 257 -237 254 -231 b 228 -154 249 -217 242 -194 m 360 -154 b 369 -185 360 -154 363 -164 b 382 -218 371 -186 375 -197 l 396 -179 l 388 -154 l 389 -154 l 400 -154 b 406 -168 400 -154 403 -158 b 424 -218 407 -171 413 -187 b 432 -194 424 -218 426 -211 b 447 -154 442 -169 446 -156 l 454 -154 b 424 -239 454 -154 444 -183 l 418 -239 b 414 -228 418 -239 417 -235 b 400 -189 414 -228 408 -215 b 382 -239 389 -222 383 -239 l 376 -239 b 374 -231 376 -239 376 -236 b 347 -154 357 -182 347 -156 m 522 -154 b 550 -176 538 -154 547 -161 b 550 -192 550 -181 550 -186 l 550 -226 b 554 -239 550 -232 551 -236 l 553 -239 b 543 -239 549 -239 544 -239 b 539 -232 542 -237 540 -235 b 517 -240 533 -237 526 -240 b 494 -222 506 -240 499 -233 b 493 -214 494 -219 493 -217 l 493 -210 b 511 -181 493 -194 500 -186 b 538 -176 519 -178 528 -176 b 533 -164 538 -172 536 -168 b 519 -160 531 -161 525 -160 b 500 -167 511 -160 504 -162 b 497 -168 499 -167 499 -168 b 503 -154 500 -158 501 -154 m 739 -154 b 764 -168 751 -154 758 -158 b 767 -190 765 -174 767 -182 l 767 -225 b 769 -239 767 -232 768 -236 b 760 -239 764 -239 761 -239 b 756 -231 758 -239 757 -236 b 733 -240 750 -236 742 -240 b 711 -224 722 -240 715 -235 b 710 -212 710 -219 710 -215 l 710 -211 b 726 -182 710 -196 715 -186 b 754 -176 733 -178 743 -176 b 750 -164 754 -172 753 -168 b 736 -160 747 -161 743 -160 b 715 -167 728 -160 721 -162 b 714 -168 715 -168 714 -168 b 718 -154 717 -158 718 -154 m 1025 -154 b 1050 -172 1038 -154 1046 -160 b 1053 -199 1053 -176 1053 -186 l 1053 -229 b 1056 -239 1053 -232 1054 -235 b 1044 -239 1050 -239 1046 -239 b 1042 -231 1042 -236 1042 -233 b 1019 -240 1035 -236 1028 -240 b 997 -224 1008 -240 1001 -235 b 996 -211 996 -221 996 -217 b 1011 -182 996 -197 1000 -187 b 1039 -176 1018 -179 1028 -176 l 1040 -176 b 1036 -165 1039 -171 1038 -167 b 1022 -160 1033 -161 1028 -160 b 1000 -168 1014 -160 1007 -162 b 1000 -168 1000 -168 1000 -168 b 1004 -154 1003 -158 1004 -154 m 1415 -154 b 1419 -168 1417 -154 1418 -158 b 1400 -160 1413 -162 1406 -160 b 1382 -167 1390 -160 1385 -162 b 1379 -197 1381 -169 1379 -181 b 1385 -228 1379 -215 1381 -226 b 1397 -232 1386 -231 1390 -232 l 1401 -232 b 1419 -225 1407 -232 1413 -229 b 1415 -239 1418 -235 1417 -239 l 1396 -239 b 1369 -222 1382 -239 1374 -233 b 1365 -196 1367 -215 1365 -207 b 1381 -157 1365 -175 1371 -162 b 1394 -154 1385 -154 1389 -154 m 1208 -214 b 1218 -232 1208 -222 1211 -228 b 1226 -233 1221 -232 1224 -233 b 1239 -225 1232 -233 1238 -231 b 1243 -192 1242 -218 1243 -207 b 1236 -162 1243 -176 1240 -167 b 1226 -160 1233 -161 1229 -160 l 1225 -160 b 1210 -172 1217 -160 1211 -164 b 1208 -179 1208 -175 1208 -178 m 1281 -194 l 1314 -189 l 1314 -187 b 1303 -161 1314 -174 1311 -165 b 1297 -160 1300 -160 1299 -160 b 1283 -169 1290 -160 1286 -162 b 1281 -192 1281 -175 1281 -183 m 1443 -199 b 1451 -231 1443 -217 1446 -226 b 1461 -233 1454 -232 1457 -233 b 1475 -222 1468 -233 1472 -229 b 1478 -199 1476 -217 1478 -208 l 1478 -194 b 1469 -162 1478 -176 1475 -167 b 1461 -160 1467 -161 1464 -160 b 1447 -171 1454 -160 1449 -162 b 1443 -194 1444 -175 1443 -183 m 506 -210 b 521 -231 506 -224 510 -231 b 539 -221 528 -231 535 -228 l 539 -189 b 539 -183 539 -187 539 -186 b 510 -192 525 -183 515 -186 b 506 -210 507 -197 506 -203 m 722 -211 b 733 -231 722 -222 725 -229 l 736 -231 b 754 -221 744 -231 751 -228 l 754 -185 l 754 -183 b 726 -193 740 -183 731 -187 b 722 -208 724 -197 722 -203 m 1007 -211 b 1022 -231 1007 -224 1013 -231 b 1040 -221 1031 -231 1036 -228 l 1040 -183 b 1010 -196 1025 -183 1014 -187 b 1007 -211 1008 -200 1007 -204 m 475 -224 b 482 -231 478 -224 481 -226 l 482 -232 b 476 -239 482 -235 479 -237 b 474 -239 476 -239 475 -239 b 467 -233 471 -239 468 -237 l 467 -231 b 474 -224 467 -228 468 -225 l 475 -224 m 1347 -224 b 1354 -229 1350 -224 1351 -225 b 1354 -232 1354 -231 1354 -232 b 1349 -239 1354 -235 1353 -237 l 1346 -239 b 1339 -233 1343 -239 1340 -237 b 1339 -232 1339 -232 1339 -232 b 1346 -224 1339 -228 1342 -225 l 1347 -224 "},"\u0000":{"ha":0,"x_min":0,"x_max":0,"o":""},"\u001d":{"ha":0,"x_min":0,"x_max":0,"o":""}," ":{"ha":414,"x_min":0,"x_max":0,"o":""},"":{"ha":414,"x_min":0,"x_max":0,"o":""},"!":{"ha":1685,"x_min":0,"x_max":0,"o":"m 522 925 b 560 896 542 925 554 915 b 565 850 564 883 565 868 l 565 840 b 539 769 565 801 557 778 b 521 765 535 767 528 765 b 482 801 501 765 488 778 b 478 842 479 814 478 828 l 478 849 b 501 919 478 888 486 911 b 522 925 507 924 514 925 m 1304 925 b 1343 893 1325 925 1338 914 b 1349 844 1347 882 1349 865 b 1324 769 1349 803 1340 778 b 1304 765 1318 767 1313 765 b 1265 799 1285 765 1272 776 b 1261 846 1263 811 1261 826 b 1286 921 1261 888 1269 913 b 1304 925 1290 924 1297 925 m 147 922 b 186 901 168 922 181 915 b 189 879 188 896 189 888 b 171 842 189 860 183 847 b 143 838 165 839 156 838 l 115 838 l 115 768 b 115 768 115 768 115 768 l 101 768 b 101 768 101 768 101 768 l 101 922 b 101 922 101 922 101 922 m 272 922 b 275 914 272 922 274 919 l 221 914 b 221 914 221 914 221 914 l 221 854 l 264 854 b 264 853 264 854 264 854 l 264 846 b 264 844 264 846 264 844 l 221 844 l 221 776 l 279 776 b 276 768 278 771 276 768 l 206 768 b 206 768 206 768 206 768 l 206 922 b 206 922 206 922 206 922 m 343 922 b 381 901 363 922 376 915 b 383 882 383 896 383 889 b 365 844 383 861 378 849 b 361 843 364 844 363 843 b 390 768 369 833 379 808 l 389 768 l 375 768 b 369 788 374 768 372 775 b 346 840 360 824 351 840 l 313 840 l 313 768 b 313 768 313 768 313 768 l 299 768 b 299 768 299 768 299 768 l 299 922 b 299 922 299 922 299 922 m 454 922 b 458 908 456 922 457 918 b 458 907 458 908 458 908 b 443 914 451 911 447 914 b 428 897 433 914 428 908 l 428 894 b 443 850 428 883 433 868 b 458 803 453 832 458 817 b 439 771 458 788 451 776 b 425 768 435 768 431 768 l 414 768 b 408 785 413 768 411 774 l 410 785 b 424 776 415 779 419 776 l 425 776 b 443 794 435 776 440 782 b 443 801 443 796 443 799 b 425 850 443 813 438 829 b 413 889 417 867 413 879 l 413 893 b 431 921 413 907 419 915 b 440 922 435 922 438 922 m 599 922 b 656 797 601 919 619 878 l 657 797 l 657 922 b 657 922 657 922 657 922 l 665 922 b 665 922 665 922 665 922 l 665 768 b 665 768 665 768 665 768 l 654 768 b 607 868 653 769 636 804 b 593 899 607 871 601 881 l 593 768 b 593 768 593 768 593 768 l 586 768 b 585 768 585 768 585 768 l 585 922 b 586 922 585 922 585 922 m 732 922 b 738 903 733 922 735 915 b 778 768 764 818 776 772 l 763 768 b 758 779 763 768 761 772 b 749 814 758 782 754 793 l 703 814 b 689 768 694 786 690 771 l 681 768 b 681 768 681 768 681 768 b 725 922 708 867 724 918 l 732 922 m 811 922 b 811 922 811 922 811 922 l 811 776 l 869 776 b 868 768 869 771 868 768 l 797 768 b 797 768 797 768 797 768 l 797 922 b 797 922 797 922 797 922 m 958 922 b 958 922 958 922 958 922 l 958 836 b 967 783 958 807 961 789 b 988 774 969 778 976 774 b 1011 788 999 774 1007 779 b 1015 833 1014 796 1015 810 l 1015 922 b 1015 922 1015 922 1015 922 l 1025 922 b 1025 922 1025 922 1025 922 l 1025 854 b 1019 788 1025 817 1022 794 b 1006 769 1015 779 1011 772 b 986 765 1000 767 994 765 b 951 785 969 765 957 772 b 943 844 946 796 943 815 l 943 922 b 943 922 943 922 943 922 m 1088 922 b 1092 908 1088 922 1089 918 b 1092 907 1092 908 1092 908 b 1075 914 1085 911 1079 914 b 1060 896 1065 914 1060 908 b 1075 850 1060 883 1065 868 b 1090 803 1085 832 1090 815 b 1071 771 1090 788 1085 776 b 1057 768 1067 768 1063 768 l 1046 768 b 1042 785 1046 768 1044 774 b 1056 776 1047 779 1053 776 l 1057 776 b 1075 797 1068 776 1074 783 l 1075 800 b 1075 801 1075 800 1075 800 b 1075 801 1075 801 1075 801 l 1075 803 b 1058 849 1075 814 1069 829 b 1044 892 1050 865 1044 879 b 1064 921 1044 907 1051 917 b 1074 922 1068 922 1071 922 m 1181 922 b 1183 914 1182 922 1182 919 l 1129 914 l 1129 854 l 1172 854 b 1174 853 1172 854 1174 854 l 1174 846 b 1172 844 1174 846 1172 844 l 1129 844 l 1129 776 l 1188 776 b 1188 776 1188 776 1188 776 b 1186 768 1186 771 1186 768 l 1115 768 b 1114 768 1114 768 1114 768 l 1114 922 b 1115 922 1114 922 1115 922 m 1382 922 b 1389 907 1382 922 1385 917 b 1439 797 1392 901 1408 865 l 1439 922 b 1440 922 1439 922 1440 922 l 1447 922 b 1447 922 1447 922 1447 922 l 1447 768 b 1447 768 1447 768 1447 768 l 1436 768 b 1426 789 1436 768 1432 775 b 1376 899 1425 792 1408 828 l 1376 768 b 1375 768 1376 768 1376 768 l 1368 768 b 1368 768 1368 768 1368 768 l 1368 922 b 1368 922 1368 922 1368 922 m 1482 922 b 1482 922 1482 922 1482 922 l 1482 776 l 1540 776 b 1538 768 1539 771 1539 768 l 1468 768 b 1467 768 1468 768 1467 768 l 1467 922 b 1468 922 1468 922 1468 922 m 1538 922 b 1571 857 1538 922 1549 900 b 1603 922 1574 861 1583 883 l 1613 922 b 1575 847 1613 922 1600 897 l 1575 768 b 1575 768 1575 768 1575 768 l 1561 768 b 1560 768 1560 768 1560 768 l 1560 846 b 1522 922 1560 847 1547 872 m 493 846 b 500 788 493 814 496 794 b 522 774 504 779 511 774 b 544 789 533 774 542 779 b 550 846 549 796 550 815 b 543 906 550 879 549 899 b 522 917 539 913 532 917 l 521 917 b 497 897 508 917 501 910 b 493 846 494 889 493 871 m 1276 839 b 1285 783 1276 808 1279 790 b 1306 774 1289 778 1296 774 b 1329 790 1317 774 1325 779 b 1333 839 1332 800 1333 815 l 1333 851 b 1324 908 1333 883 1331 903 b 1306 917 1319 914 1314 917 l 1304 917 b 1282 901 1293 917 1286 911 b 1276 851 1278 893 1276 876 m 115 846 l 146 846 b 168 856 157 846 165 849 b 172 879 171 860 172 868 b 161 911 172 897 168 907 b 140 914 160 913 151 914 l 115 914 m 313 850 l 336 850 b 361 857 350 850 358 851 b 367 882 365 860 367 868 b 358 910 367 897 364 907 b 336 914 354 913 347 914 l 313 914 m 725 893 b 706 822 725 893 719 869 l 746 822 b 725 893 733 867 726 890 m 1144 674 b 1151 664 1147 672 1150 668 b 1163 639 1154 654 1157 646 b 1164 636 1164 638 1164 636 b 1154 614 1164 635 1161 628 b 1092 449 1132 567 1111 511 b 1072 363 1085 424 1079 396 b 1069 333 1071 346 1069 336 b 1075 346 1071 333 1072 338 b 1129 450 1094 393 1113 428 b 1176 485 1146 474 1161 485 l 1178 485 b 1186 483 1183 485 1186 483 l 1194 483 b 1210 475 1203 483 1208 481 l 1210 474 b 1200 450 1210 471 1207 463 b 1163 311 1175 401 1163 354 l 1163 306 b 1204 229 1163 274 1176 249 b 1249 217 1218 221 1233 217 b 1233 201 1244 208 1240 204 b 1201 196 1224 197 1213 196 b 1128 249 1167 196 1142 214 b 1122 282 1125 258 1122 269 l 1122 286 b 1144 414 1122 318 1131 361 b 1149 429 1147 421 1147 426 b 1082 286 1119 372 1097 324 b 1058 222 1071 261 1064 240 b 1050 208 1056 214 1051 208 l 1049 208 b 1039 215 1047 208 1044 211 b 1026 225 1032 218 1028 221 b 1025 243 1025 226 1025 233 l 1025 246 b 1028 306 1025 261 1026 282 b 1000 285 1018 297 1010 290 b 964 271 986 275 975 271 b 940 285 956 271 947 275 b 922 308 935 292 928 300 l 921 311 b 917 301 919 311 918 308 b 897 211 911 285 904 254 b 886 186 893 194 889 186 b 874 193 885 186 881 188 b 857 210 865 197 860 203 b 854 233 854 214 854 222 l 854 243 b 894 463 854 293 867 367 b 942 608 907 506 922 554 b 939 610 942 610 940 610 l 910 610 b 769 590 853 610 806 603 b 735 568 757 585 746 578 l 728 558 b 719 544 724 554 722 549 b 713 567 717 550 714 557 b 711 576 711 571 711 575 b 760 633 711 606 728 624 b 794 639 775 638 788 639 b 896 644 821 643 856 644 b 942 647 922 644 939 646 b 965 658 953 647 960 650 b 969 660 968 660 969 660 l 971 660 b 982 642 976 660 979 654 b 990 625 985 635 988 629 b 993 622 992 625 992 624 b 983 601 993 621 990 614 b 924 440 961 553 942 500 b 904 358 917 418 910 390 b 901 335 903 349 901 340 b 971 489 925 406 949 456 b 1006 513 983 504 994 513 b 1032 492 1018 513 1026 506 b 1033 475 1033 486 1033 481 l 1033 474 b 1013 390 1033 451 1026 424 b 992 357 1007 381 1000 369 b 968 335 982 346 974 338 b 949 325 963 331 956 328 b 944 322 946 325 944 324 b 957 307 944 319 949 315 b 969 303 961 304 965 303 l 971 303 b 1007 326 981 303 992 310 b 1032 361 1018 339 1026 350 b 1043 385 1039 369 1042 378 b 1060 456 1046 404 1051 428 b 1124 647 1076 518 1099 582 b 1132 667 1128 658 1131 665 b 1140 674 1136 671 1139 672 m 1371 672 b 1374 671 1372 672 1374 672 l 1374 669 b 1363 643 1374 668 1369 660 l 1363 642 b 1365 640 1363 640 1364 640 l 1372 640 b 1443 631 1396 640 1419 638 b 1457 619 1453 626 1457 622 b 1456 617 1457 618 1457 617 b 1436 624 1453 618 1447 621 b 1385 629 1419 626 1403 629 b 1363 628 1378 629 1369 628 l 1360 628 b 1354 625 1357 628 1356 628 b 1329 560 1343 600 1335 578 b 1325 549 1326 553 1325 549 b 1329 544 1326 546 1328 544 b 1339 551 1331 544 1333 546 b 1363 578 1349 561 1357 569 b 1381 590 1365 583 1372 588 b 1365 561 1378 585 1374 575 b 1360 546 1363 556 1361 551 b 1368 554 1363 546 1365 549 b 1397 593 1385 576 1394 589 b 1406 597 1401 596 1403 597 b 1413 593 1410 596 1413 594 b 1376 507 1400 564 1388 536 b 1365 460 1369 483 1365 468 b 1367 450 1365 456 1367 451 b 1354 463 1361 451 1357 457 b 1353 472 1353 467 1353 469 b 1369 524 1353 481 1358 499 b 1382 554 1375 538 1379 549 b 1361 526 1374 543 1367 533 b 1354 522 1358 524 1356 522 b 1344 536 1351 522 1347 528 l 1344 539 b 1325 522 1335 528 1329 522 b 1313 538 1322 522 1318 528 b 1311 549 1311 542 1311 544 b 1321 583 1311 556 1314 567 b 1335 624 1326 596 1331 610 b 1335 625 1335 625 1335 625 l 1333 625 b 1311 617 1325 625 1318 622 b 1301 604 1307 613 1304 608 l 1301 603 b 1292 613 1297 604 1294 607 b 1292 617 1292 614 1292 615 b 1322 636 1292 626 1303 633 b 1340 640 1335 638 1340 639 b 1343 647 1342 640 1342 643 b 1349 663 1346 654 1347 660 b 1356 668 1349 665 1351 667 b 1371 672 1358 668 1363 669 m 596 619 b 618 603 608 619 615 614 b 619 599 619 601 619 600 l 619 594 b 607 544 617 575 613 558 b 521 454 590 504 563 475 b 490 442 503 446 492 442 b 457 433 483 439 472 436 b 439 431 444 432 439 431 b 419 385 436 426 431 411 b 385 272 406 350 394 313 b 371 178 376 233 371 203 b 428 57 371 128 390 88 b 515 26 456 38 485 26 l 517 26 b 731 71 564 26 636 42 l 882 118 b 1024 157 928 133 975 146 b 1133 171 1065 167 1101 171 l 1135 171 b 1257 147 1181 171 1221 163 b 1292 128 1268 143 1279 136 b 1315 107 1299 122 1307 115 b 1338 72 1329 92 1338 81 l 1338 71 l 1336 71 b 1149 125 1296 107 1233 125 l 1147 125 b 829 60 1063 125 957 103 b 685 13 768 40 719 24 b 525 -17 618 -7 565 -17 l 517 -17 b 379 40 458 -17 413 1 b 333 178 349 76 333 122 b 358 329 333 224 342 274 b 390 407 369 358 379 385 b 403 432 399 422 403 431 b 347 433 401 433 383 433 b 208 394 278 433 231 421 b 199 379 206 390 203 386 b 193 408 194 390 193 400 b 232 463 193 435 206 453 b 308 471 247 468 272 471 b 407 467 326 471 358 469 b 419 467 408 467 413 467 b 429 476 422 467 426 469 b 472 535 442 494 456 514 b 525 588 494 561 513 578 b 554 607 536 596 546 603 b 596 619 569 615 583 619 m 1481 600 b 1493 578 1488 600 1492 593 b 1494 569 1494 575 1494 572 b 1479 535 1494 557 1490 546 b 1469 531 1476 532 1472 531 l 1465 531 b 1451 540 1461 531 1456 533 b 1451 546 1451 543 1451 544 b 1463 586 1451 560 1456 574 b 1468 589 1465 588 1467 589 l 1469 589 b 1478 578 1475 589 1478 585 l 1478 575 b 1461 546 1478 564 1472 554 b 1461 543 1461 544 1461 544 b 1464 539 1463 540 1463 539 l 1465 539 b 1479 553 1469 540 1475 544 b 1483 575 1482 560 1483 567 b 1481 599 1483 581 1483 589 b 1481 600 1481 600 1481 600 m 1424 593 b 1432 588 1429 592 1432 590 b 1425 575 1432 588 1429 582 b 1410 539 1419 564 1414 553 b 1424 565 1411 540 1415 549 l 1438 590 b 1439 590 1439 590 1439 590 b 1447 567 1444 590 1447 583 l 1447 563 b 1440 533 1447 549 1444 539 b 1433 531 1438 532 1435 531 l 1432 531 b 1421 536 1429 531 1425 533 b 1419 536 1421 536 1421 536 b 1414 525 1419 536 1418 532 b 1382 457 1399 496 1388 474 b 1379 453 1381 454 1379 453 l 1378 453 b 1372 463 1374 456 1372 460 l 1372 464 b 1407 564 1374 475 1385 508 b 1419 592 1414 579 1418 589 b 1422 593 1421 593 1422 593 m 464 468 b 533 494 486 468 508 478 b 563 524 546 506 556 515 b 576 549 568 533 572 542 b 586 582 582 564 586 575 b 588 589 586 582 588 585 b 521 542 568 578 546 561 b 476 496 501 522 486 507 b 457 469 468 486 463 478 l 457 468 m 1469 575 b 1464 560 1467 569 1464 564 b 1464 558 1464 560 1464 558 b 1471 575 1468 564 1471 569 l 1469 575 m 1436 568 b 1422 540 1435 564 1431 556 b 1435 546 1429 540 1433 543 b 1438 558 1438 550 1438 554 l 1438 564 b 1438 568 1438 567 1438 568 l 1436 568 m 746 519 b 768 501 756 519 764 513 b 776 476 772 494 775 486 b 781 469 778 472 779 469 b 822 481 792 472 806 476 b 842 489 835 486 840 488 b 853 497 843 489 847 492 b 865 504 857 501 861 504 b 879 492 871 504 876 500 l 879 488 b 872 460 879 485 878 475 b 826 229 842 356 826 279 b 844 147 826 201 832 174 l 844 146 b 842 144 843 144 843 144 l 839 144 b 796 165 822 144 807 151 b 783 199 788 176 783 188 l 783 203 b 813 356 783 219 793 271 b 835 449 822 397 829 428 b 842 461 836 453 839 457 b 842 461 842 461 842 461 b 783 443 826 456 807 449 b 782 440 782 443 782 443 b 782 417 782 435 782 426 b 767 292 782 382 776 340 b 725 218 753 243 739 218 b 711 229 721 218 717 222 b 700 239 707 235 703 238 b 685 257 693 242 689 247 b 681 315 682 267 681 286 l 681 321 b 644 224 667 271 656 239 b 635 215 640 218 638 215 l 633 215 b 624 224 631 215 628 218 b 614 228 622 225 619 226 b 601 244 608 231 604 236 b 599 269 599 253 599 261 b 613 351 599 293 603 321 b 636 400 619 369 626 386 b 672 432 650 422 663 432 b 693 406 682 432 689 424 b 708 428 697 414 703 422 b 722 433 713 432 717 433 b 736 429 726 433 732 432 l 738 429 l 738 428 b 729 415 738 428 735 424 b 717 385 725 407 721 397 b 704 311 708 358 704 333 l 704 304 b 713 261 704 286 707 272 b 717 256 714 257 715 256 b 732 288 721 258 726 269 b 753 406 746 331 753 371 l 753 415 b 749 449 753 424 751 435 b 743 453 749 450 746 451 b 715 489 725 460 715 472 b 735 517 715 501 722 511 b 746 519 738 518 742 519 m 1331 508 b 1338 503 1333 508 1336 507 b 1338 493 1338 500 1338 497 b 1318 408 1338 481 1331 453 b 1294 272 1303 354 1294 308 b 1317 196 1294 238 1303 213 b 1342 186 1325 189 1333 186 l 1344 186 b 1383 203 1356 186 1368 192 b 1397 217 1389 207 1394 213 b 1432 349 1421 247 1432 292 l 1432 354 b 1426 425 1432 379 1431 403 b 1418 438 1424 433 1421 438 b 1399 407 1414 438 1407 428 b 1375 308 1383 371 1375 338 b 1385 268 1375 292 1378 279 b 1388 265 1386 267 1386 265 b 1374 261 1382 263 1378 261 b 1349 300 1361 261 1353 274 b 1342 317 1346 307 1344 313 b 1338 339 1339 324 1338 332 l 1338 340 b 1360 404 1338 357 1344 378 b 1379 429 1364 411 1371 419 b 1403 450 1390 440 1399 449 b 1431 458 1413 456 1421 458 b 1471 438 1449 458 1461 451 b 1482 389 1479 425 1482 408 l 1482 383 b 1467 293 1482 358 1478 329 b 1444 240 1460 274 1453 256 b 1356 172 1418 194 1389 172 b 1293 201 1332 172 1313 182 b 1269 256 1282 215 1274 233 b 1264 303 1265 272 1264 288 b 1274 360 1264 322 1268 340 b 1274 364 1274 363 1274 364 l 1274 365 b 1231 265 1256 317 1242 283 b 1219 257 1228 260 1224 257 b 1210 267 1215 257 1213 261 b 1197 276 1207 271 1203 275 b 1189 282 1194 276 1192 278 b 1183 306 1185 289 1183 297 l 1183 308 b 1196 379 1183 324 1188 347 b 1221 440 1203 404 1213 424 b 1242 472 1228 454 1235 464 b 1271 490 1253 483 1263 490 b 1293 460 1281 490 1288 481 b 1293 460 1293 460 1293 460 b 1310 492 1303 481 1307 492 b 1317 497 1310 493 1313 494 b 1329 508 1322 504 1326 508 m 939 354 b 956 365 943 356 949 360 b 974 392 964 374 969 382 b 992 432 981 401 986 415 b 1004 478 996 443 999 458 b 988 456 999 474 993 465 b 960 407 978 440 969 424 b 938 354 946 378 938 360 m 1215 306 b 1217 294 1215 303 1215 299 b 1250 365 1224 306 1233 329 l 1283 442 l 1283 443 b 1275 465 1281 453 1279 461 l 1274 467 b 1261 450 1272 467 1267 461 b 1232 388 1250 432 1240 411 b 1218 336 1226 374 1222 357 b 1215 310 1217 322 1215 314 m 593 447 b 613 443 594 447 601 446 b 618 438 615 442 618 440 b 608 404 617 433 614 422 b 572 265 596 367 583 319 b 565 194 568 240 565 217 b 571 167 565 181 567 171 b 576 165 572 165 574 165 b 611 175 579 165 592 168 b 693 193 649 188 675 193 b 746 172 717 193 735 186 l 746 171 b 699 165 739 171 724 169 b 640 149 676 161 657 156 b 597 131 628 144 613 139 b 583 128 593 129 588 128 b 558 146 574 128 565 133 b 547 157 554 150 550 154 b 532 201 538 165 532 181 b 549 293 532 217 538 247 b 553 314 551 306 553 313 l 553 315 l 551 315 b 513 190 538 278 525 236 b 499 106 504 153 499 124 l 499 101 l 499 100 b 497 97 499 97 499 97 l 496 97 b 482 104 492 97 488 100 b 463 181 469 117 463 143 b 476 288 463 210 467 244 l 476 289 b 446 203 463 253 451 224 b 442 192 444 196 443 192 b 442 192 442 192 442 192 b 422 199 436 192 429 194 b 406 235 411 206 406 218 l 406 239 b 435 358 406 263 415 301 b 461 410 447 392 457 410 b 483 406 474 408 482 407 b 486 401 486 404 486 403 b 475 375 486 400 482 390 b 438 253 450 314 438 274 l 438 251 b 514 411 468 322 493 376 b 529 426 521 421 525 426 l 531 426 b 546 419 535 425 539 424 b 549 417 547 418 549 418 b 536 388 549 414 544 406 b 510 306 526 365 518 339 b 494 211 500 267 494 235 b 496 210 496 210 496 210 b 568 417 522 301 547 369 b 586 446 576 432 582 440 b 593 447 589 447 590 447 m 356 415 b 363 406 360 415 361 413 l 363 401 b 338 328 363 392 354 367 b 310 194 318 278 310 233 l 310 186 b 336 65 310 139 318 100 b 338 63 338 64 338 64 b 326 60 338 61 333 60 b 283 83 308 60 294 68 b 271 131 275 97 271 113 l 271 138 b 279 239 271 157 274 190 l 279 240 b 269 222 278 240 275 233 b 235 156 256 194 244 172 b 221 144 231 147 225 144 b 211 154 217 144 214 147 b 199 164 208 160 204 163 b 192 169 196 165 193 167 b 188 189 189 175 188 181 l 188 193 b 204 264 188 207 193 232 b 232 322 213 286 221 306 b 256 354 238 333 246 344 b 286 372 268 367 278 372 l 288 372 b 306 349 296 372 303 364 b 328 393 318 375 325 390 b 344 408 333 400 339 406 b 354 415 350 414 353 415 l 356 415 m 626 265 b 632 246 628 253 629 246 l 633 246 b 643 269 635 246 639 254 b 675 365 650 289 661 321 b 679 381 678 372 679 376 b 672 400 679 386 676 392 l 669 400 b 653 375 665 399 660 390 b 636 324 647 364 642 347 b 628 272 633 313 631 296 b 626 265 626 268 626 265 m 219 189 b 219 182 219 185 219 182 b 231 199 224 186 226 192 b 293 318 256 246 275 285 b 296 328 294 321 296 325 b 290 347 296 333 293 339 b 289 349 289 349 289 349 b 276 336 286 349 282 344 b 235 256 261 314 246 288 b 224 218 228 235 224 222 b 219 189 221 210 219 200 m 581 -115 l 581 -239 b 579 -239 581 -239 581 -239 l 569 -239 b 568 -239 568 -239 568 -239 l 568 -119 b 581 -114 568 -118 572 -117 m 860 -115 l 860 -185 l 894 -154 l 904 -154 b 874 -182 904 -154 893 -164 l 874 -183 l 913 -239 l 899 -239 b 865 -190 882 -217 871 -201 l 864 -190 l 860 -194 l 860 -239 b 860 -239 860 -239 860 -239 l 849 -239 b 849 -239 849 -239 849 -239 l 849 -119 b 860 -114 849 -118 853 -117 m 936 -115 l 936 -160 b 953 -154 940 -156 946 -154 l 956 -154 b 979 -172 968 -154 975 -160 b 982 -189 981 -178 982 -183 l 982 -239 b 982 -239 982 -239 982 -239 l 969 -239 b 969 -239 969 -239 969 -239 l 969 -192 b 961 -162 969 -176 967 -165 b 953 -160 960 -161 956 -160 b 936 -175 944 -160 939 -165 b 936 -179 936 -176 936 -178 l 936 -239 b 935 -239 936 -239 936 -239 l 924 -239 b 924 -239 924 -239 924 -239 l 924 -119 b 936 -114 924 -118 928 -117 m 1086 -132 l 1086 -154 l 1101 -154 b 1101 -154 1101 -154 1101 -154 l 1101 -160 b 1101 -160 1101 -160 1101 -160 l 1086 -160 l 1086 -203 b 1092 -231 1086 -219 1088 -229 b 1097 -232 1093 -232 1096 -232 l 1100 -232 b 1113 -226 1103 -232 1107 -231 b 1110 -239 1111 -235 1110 -239 l 1103 -239 b 1081 -232 1090 -239 1082 -236 b 1075 -201 1076 -226 1075 -217 l 1075 -160 l 1063 -160 b 1063 -160 1063 -160 1063 -160 l 1063 -154 b 1063 -154 1063 -154 1063 -154 l 1075 -154 l 1075 -137 b 1086 -132 1075 -137 1078 -135 m 1226 -153 b 1251 -168 1239 -153 1247 -158 b 1254 -194 1254 -174 1254 -182 l 1254 -199 b 1242 -236 1254 -219 1250 -232 b 1226 -240 1238 -239 1232 -240 b 1208 -235 1219 -240 1214 -237 l 1208 -275 b 1197 -281 1208 -275 1204 -276 l 1196 -281 l 1196 -171 b 1194 -160 1196 -167 1196 -162 b 1203 -156 1194 -158 1199 -157 l 1207 -160 b 1226 -153 1211 -156 1218 -153 m 607 -153 l 607 -158 b 622 -154 611 -156 617 -154 l 626 -154 b 647 -164 636 -154 643 -157 b 647 -165 647 -164 647 -164 b 656 -156 647 -162 651 -160 b 667 -154 660 -154 664 -154 l 671 -154 b 693 -168 682 -154 689 -158 b 696 -192 694 -175 696 -182 l 696 -239 b 696 -239 696 -239 696 -239 l 685 -239 b 683 -239 685 -239 683 -239 l 683 -194 b 679 -164 683 -178 682 -168 b 668 -160 676 -161 672 -160 b 651 -179 658 -160 653 -167 l 651 -239 b 651 -239 651 -239 651 -239 l 640 -239 b 639 -239 639 -239 639 -239 l 639 -203 b 635 -165 639 -181 638 -168 b 624 -160 633 -162 629 -160 b 608 -174 615 -160 610 -165 b 607 -179 607 -175 607 -178 l 607 -239 b 607 -239 607 -239 607 -239 l 596 -239 b 594 -239 594 -239 594 -239 l 594 -158 b 607 -153 594 -157 599 -156 m 794 -153 l 794 -164 b 808 -154 796 -160 800 -157 b 814 -154 810 -154 813 -154 l 831 -154 b 836 -168 832 -154 833 -158 b 815 -160 829 -162 822 -160 b 796 -182 806 -160 800 -168 b 794 -211 794 -190 794 -200 l 794 -239 b 793 -239 794 -239 794 -239 l 782 -239 b 782 -239 782 -239 782 -239 l 782 -158 b 794 -153 782 -157 786 -156 m 1133 -153 l 1133 -196 b 1140 -229 1133 -214 1136 -225 b 1149 -232 1142 -231 1144 -232 l 1151 -232 b 1168 -217 1160 -232 1165 -226 b 1168 -211 1168 -214 1168 -212 l 1168 -158 b 1179 -153 1168 -157 1172 -156 l 1179 -237 b 1161 -276 1179 -258 1174 -272 b 1151 -279 1157 -279 1154 -279 l 1133 -279 b 1129 -265 1133 -279 1132 -275 b 1147 -272 1136 -269 1143 -272 l 1150 -272 b 1167 -253 1158 -272 1164 -267 b 1168 -236 1168 -247 1168 -242 l 1168 -233 b 1150 -239 1163 -237 1157 -239 l 1149 -239 b 1125 -224 1138 -239 1129 -235 b 1121 -200 1122 -218 1121 -210 l 1121 -158 b 1133 -153 1122 -157 1126 -156 m 1517 -153 l 1517 -158 b 1532 -154 1521 -156 1526 -154 l 1536 -154 b 1557 -162 1546 -154 1551 -157 b 1557 -165 1557 -164 1557 -164 b 1564 -157 1557 -162 1560 -160 b 1576 -154 1568 -154 1572 -154 l 1581 -154 b 1604 -171 1593 -154 1600 -160 b 1606 -196 1606 -176 1606 -185 l 1606 -239 b 1606 -239 1606 -239 1606 -239 l 1594 -239 b 1594 -239 1594 -239 1594 -239 l 1594 -203 b 1589 -165 1594 -181 1592 -168 b 1578 -160 1588 -162 1583 -160 b 1563 -174 1569 -160 1565 -165 b 1561 -183 1561 -176 1561 -181 l 1561 -239 b 1561 -239 1561 -239 1561 -239 l 1550 -239 b 1549 -239 1549 -239 1549 -239 l 1549 -192 b 1543 -164 1549 -176 1547 -167 b 1533 -160 1540 -161 1538 -160 b 1518 -172 1525 -160 1521 -164 b 1517 -181 1517 -175 1517 -178 l 1517 -239 b 1517 -239 1517 -239 1517 -239 l 1506 -239 b 1504 -239 1504 -239 1504 -239 l 1504 -158 b 1517 -153 1504 -157 1508 -156 m 1299 -153 b 1322 -168 1310 -153 1318 -158 b 1326 -190 1325 -174 1326 -182 l 1326 -193 b 1313 -196 1326 -193 1322 -194 b 1281 -203 1313 -196 1301 -199 l 1281 -204 b 1290 -231 1281 -219 1283 -228 b 1300 -232 1293 -232 1296 -232 l 1303 -232 b 1322 -225 1308 -232 1315 -229 b 1318 -239 1319 -233 1318 -239 l 1297 -239 b 1268 -204 1278 -239 1268 -228 l 1268 -189 b 1288 -154 1268 -171 1275 -158 b 1299 -153 1292 -153 1294 -153 m 1461 -153 b 1489 -176 1476 -153 1485 -161 b 1490 -194 1490 -182 1490 -187 l 1490 -197 b 1461 -240 1490 -225 1481 -240 b 1431 -197 1440 -240 1431 -225 b 1447 -156 1431 -175 1436 -161 b 1461 -153 1450 -154 1456 -153 m 121 -154 b 133 -187 121 -154 125 -165 l 144 -218 l 158 -179 l 149 -154 l 150 -154 l 161 -154 b 185 -218 161 -154 169 -175 b 208 -154 192 -199 200 -176 l 215 -154 b 185 -239 215 -157 204 -185 l 179 -239 b 161 -189 179 -239 174 -222 b 144 -239 161 -192 156 -208 l 139 -239 b 136 -232 138 -239 138 -236 b 108 -154 118 -182 108 -156 m 240 -154 b 246 -168 240 -154 242 -158 b 263 -218 257 -200 263 -217 b 275 -185 263 -218 267 -207 b 278 -179 275 -185 276 -183 b 268 -154 271 -162 268 -154 l 281 -154 b 290 -181 282 -156 285 -164 b 304 -218 292 -183 296 -196 b 328 -154 311 -197 319 -175 l 333 -154 b 335 -154 335 -154 335 -154 l 304 -239 l 299 -239 b 290 -215 299 -239 296 -231 b 281 -190 285 -200 282 -190 b 264 -239 269 -221 264 -237 l 258 -239 b 250 -217 257 -237 254 -231 b 228 -154 249 -217 242 -194 m 360 -154 b 369 -185 360 -154 363 -164 b 382 -218 371 -186 375 -197 l 396 -179 l 388 -154 l 389 -154 l 400 -154 b 406 -168 400 -154 403 -158 b 424 -218 407 -171 413 -187 b 432 -194 424 -218 426 -211 b 447 -154 442 -169 446 -156 l 454 -154 b 424 -239 454 -154 444 -183 l 418 -239 b 414 -228 418 -239 417 -235 b 400 -189 414 -228 408 -215 b 382 -239 389 -222 383 -239 l 376 -239 b 374 -231 376 -239 376 -236 b 347 -154 357 -182 347 -156 m 522 -154 b 550 -176 538 -154 547 -161 b 550 -192 550 -181 550 -186 l 550 -226 b 554 -239 550 -232 551 -236 l 553 -239 b 543 -239 549 -239 544 -239 b 539 -232 542 -237 540 -235 b 517 -240 533 -237 526 -240 b 494 -222 506 -240 499 -233 b 493 -214 494 -219 493 -217 l 493 -210 b 511 -181 493 -194 500 -186 b 538 -176 519 -178 528 -176 b 533 -164 538 -172 536 -168 b 519 -160 531 -161 525 -160 b 500 -167 511 -160 504 -162 b 497 -168 499 -167 499 -168 b 503 -154 500 -158 501 -154 m 739 -154 b 764 -168 751 -154 758 -158 b 767 -190 765 -174 767 -182 l 767 -225 b 769 -239 767 -232 768 -236 b 760 -239 764 -239 761 -239 b 756 -231 758 -239 757 -236 b 733 -240 750 -236 742 -240 b 711 -224 722 -240 715 -235 b 710 -212 710 -219 710 -215 l 710 -211 b 726 -182 710 -196 715 -186 b 754 -176 733 -178 743 -176 b 750 -164 754 -172 753 -168 b 736 -160 747 -161 743 -160 b 715 -167 728 -160 721 -162 b 714 -168 715 -168 714 -168 b 718 -154 717 -158 718 -154 m 1025 -154 b 1050 -172 1038 -154 1046 -160 b 1053 -199 1053 -176 1053 -186 l 1053 -229 b 1056 -239 1053 -232 1054 -235 b 1044 -239 1050 -239 1046 -239 b 1042 -231 1042 -236 1042 -233 b 1019 -240 1035 -236 1028 -240 b 997 -224 1008 -240 1001 -235 b 996 -211 996 -221 996 -217 b 1011 -182 996 -197 1000 -187 b 1039 -176 1018 -179 1028 -176 l 1040 -176 b 1036 -165 1039 -171 1038 -167 b 1022 -160 1033 -161 1028 -160 b 1000 -168 1014 -160 1007 -162 b 1000 -168 1000 -168 1000 -168 b 1004 -154 1003 -158 1004 -154 m 1415 -154 b 1419 -168 1417 -154 1418 -158 b 1400 -160 1413 -162 1406 -160 b 1382 -167 1390 -160 1385 -162 b 1379 -197 1381 -169 1379 -181 b 1385 -228 1379 -215 1381 -226 b 1397 -232 1386 -231 1390 -232 l 1401 -232 b 1419 -225 1407 -232 1413 -229 b 1415 -239 1418 -235 1417 -239 l 1396 -239 b 1369 -222 1382 -239 1374 -233 b 1365 -196 1367 -215 1365 -207 b 1381 -157 1365 -175 1371 -162 b 1394 -154 1385 -154 1389 -154 m 1208 -214 b 1218 -232 1208 -222 1211 -228 b 1226 -233 1221 -232 1224 -233 b 1239 -225 1232 -233 1238 -231 b 1243 -192 1242 -218 1243 -207 b 1236 -162 1243 -176 1240 -167 b 1226 -160 1233 -161 1229 -160 l 1225 -160 b 1210 -172 1217 -160 1211 -164 b 1208 -179 1208 -175 1208 -178 m 1281 -194 l 1314 -189 l 1314 -187 b 1303 -161 1314 -174 1311 -165 b 1297 -160 1300 -160 1299 -160 b 1283 -169 1290 -160 1286 -162 b 1281 -192 1281 -175 1281 -183 m 1443 -199 b 1451 -231 1443 -217 1446 -226 b 1461 -233 1454 -232 1457 -233 b 1475 -222 1468 -233 1472 -229 b 1478 -199 1476 -217 1478 -208 l 1478 -194 b 1469 -162 1478 -176 1475 -167 b 1461 -160 1467 -161 1464 -160 b 1447 -171 1454 -160 1449 -162 b 1443 -194 1444 -175 1443 -183 m 506 -210 b 521 -231 506 -224 510 -231 b 539 -221 528 -231 535 -228 l 539 -189 b 539 -183 539 -187 539 -186 b 510 -192 525 -183 515 -186 b 506 -210 507 -197 506 -203 m 722 -211 b 733 -231 722 -222 725 -229 l 736 -231 b 754 -221 744 -231 751 -228 l 754 -185 l 754 -183 b 726 -193 740 -183 731 -187 b 722 -208 724 -197 722 -203 m 1007 -211 b 1022 -231 1007 -224 1013 -231 b 1040 -221 1031 -231 1036 -228 l 1040 -183 b 1010 -196 1025 -183 1014 -187 b 1007 -211 1008 -200 1007 -204 m 475 -224 b 482 -231 478 -224 481 -226 l 482 -232 b 476 -239 482 -235 479 -237 b 474 -239 476 -239 475 -239 b 467 -233 471 -239 468 -237 l 467 -231 b 474 -224 467 -228 468 -225 l 475 -224 m 1347 -224 b 1354 -229 1350 -224 1351 -225 b 1354 -232 1354 -231 1354 -232 b 1349 -239 1354 -235 1353 -237 l 1346 -239 b 1339 -233 1343 -239 1340 -237 b 1339 -232 1339 -232 1339 -232 b 1346 -224 1339 -228 1342 -225 l 1347 -224 "},"\"":{"ha":597,"x_min":0,"x_max":0,"o":"m 268 1093 l 238 728 l 56 728 l 25 1093 m 572 1093 l 542 728 l 360 728 l 329 1093 "},"#":{"ha":1685,"x_min":0,"x_max":0,"o":"m 522 925 b 560 896 542 925 554 915 b 565 850 564 883 565 868 l 565 840 b 539 769 565 801 557 778 b 521 765 535 767 528 765 b 482 801 501 765 488 778 b 478 842 479 814 478 828 l 478 849 b 501 919 478 888 486 911 b 522 925 507 924 514 925 m 1304 925 b 1343 893 1325 925 1338 914 b 1349 844 1347 882 1349 865 b 1324 769 1349 803 1340 778 b 1304 765 1318 767 1313 765 b 1265 799 1285 765 1272 776 b 1261 846 1263 811 1261 826 b 1286 921 1261 888 1269 913 b 1304 925 1290 924 1297 925 m 147 922 b 186 901 168 922 181 915 b 189 879 188 896 189 888 b 171 842 189 860 183 847 b 143 838 165 839 156 838 l 115 838 l 115 768 b 115 768 115 768 115 768 l 101 768 b 101 768 101 768 101 768 l 101 922 b 101 922 101 922 101 922 m 272 922 b 275 914 272 922 274 919 l 221 914 b 221 914 221 914 221 914 l 221 854 l 264 854 b 264 853 264 854 264 854 l 264 846 b 264 844 264 846 264 844 l 221 844 l 221 776 l 279 776 b 276 768 278 771 276 768 l 206 768 b 206 768 206 768 206 768 l 206 922 b 206 922 206 922 206 922 m 343 922 b 381 901 363 922 376 915 b 383 882 383 896 383 889 b 365 844 383 861 378 849 b 361 843 364 844 363 843 b 390 768 369 833 379 808 l 389 768 l 375 768 b 369 788 374 768 372 775 b 346 840 360 824 351 840 l 313 840 l 313 768 b 313 768 313 768 313 768 l 299 768 b 299 768 299 768 299 768 l 299 922 b 299 922 299 922 299 922 m 454 922 b 458 908 456 922 457 918 b 458 907 458 908 458 908 b 443 914 451 911 447 914 b 428 897 433 914 428 908 l 428 894 b 443 850 428 883 433 868 b 458 803 453 832 458 817 b 439 771 458 788 451 776 b 425 768 435 768 431 768 l 414 768 b 408 785 413 768 411 774 l 410 785 b 424 776 415 779 419 776 l 425 776 b 443 794 435 776 440 782 b 443 801 443 796 443 799 b 425 850 443 813 438 829 b 413 889 417 867 413 879 l 413 893 b 431 921 413 907 419 915 b 440 922 435 922 438 922 m 599 922 b 656 797 601 919 619 878 l 657 797 l 657 922 b 657 922 657 922 657 922 l 665 922 b 665 922 665 922 665 922 l 665 768 b 665 768 665 768 665 768 l 654 768 b 607 868 653 769 636 804 b 593 899 607 871 601 881 l 593 768 b 593 768 593 768 593 768 l 586 768 b 585 768 585 768 585 768 l 585 922 b 586 922 585 922 585 922 m 732 922 b 738 903 733 922 735 915 b 778 768 764 818 776 772 l 763 768 b 758 779 763 768 761 772 b 749 814 758 782 754 793 l 703 814 b 689 768 694 786 690 771 l 681 768 b 681 768 681 768 681 768 b 725 922 708 867 724 918 l 732 922 m 811 922 b 811 922 811 922 811 922 l 811 776 l 869 776 b 868 768 869 771 868 768 l 797 768 b 797 768 797 768 797 768 l 797 922 b 797 922 797 922 797 922 m 958 922 b 958 922 958 922 958 922 l 958 836 b 967 783 958 807 961 789 b 988 774 969 778 976 774 b 1011 788 999 774 1007 779 b 1015 833 1014 796 1015 810 l 1015 922 b 1015 922 1015 922 1015 922 l 1025 922 b 1025 922 1025 922 1025 922 l 1025 854 b 1019 788 1025 817 1022 794 b 1006 769 1015 779 1011 772 b 986 765 1000 767 994 765 b 951 785 969 765 957 772 b 943 844 946 796 943 815 l 943 922 b 943 922 943 922 943 922 m 1088 922 b 1092 908 1088 922 1089 918 b 1092 907 1092 908 1092 908 b 1075 914 1085 911 1079 914 b 1060 896 1065 914 1060 908 b 1075 850 1060 883 1065 868 b 1090 803 1085 832 1090 815 b 1071 771 1090 788 1085 776 b 1057 768 1067 768 1063 768 l 1046 768 b 1042 785 1046 768 1044 774 b 1056 776 1047 779 1053 776 l 1057 776 b 1075 797 1068 776 1074 783 l 1075 800 b 1075 801 1075 800 1075 800 b 1075 801 1075 801 1075 801 l 1075 803 b 1058 849 1075 814 1069 829 b 1044 892 1050 865 1044 879 b 1064 921 1044 907 1051 917 b 1074 922 1068 922 1071 922 m 1181 922 b 1183 914 1182 922 1182 919 l 1129 914 l 1129 854 l 1172 854 b 1174 853 1172 854 1174 854 l 1174 846 b 1172 844 1174 846 1172 844 l 1129 844 l 1129 776 l 1188 776 b 1188 776 1188 776 1188 776 b 1186 768 1186 771 1186 768 l 1115 768 b 1114 768 1114 768 1114 768 l 1114 922 b 1115 922 1114 922 1115 922 m 1382 922 b 1389 907 1382 922 1385 917 b 1439 797 1392 901 1408 865 l 1439 922 b 1440 922 1439 922 1440 922 l 1447 922 b 1447 922 1447 922 1447 922 l 1447 768 b 1447 768 1447 768 1447 768 l 1436 768 b 1426 789 1436 768 1432 775 b 1376 899 1425 792 1408 828 l 1376 768 b 1375 768 1376 768 1376 768 l 1368 768 b 1368 768 1368 768 1368 768 l 1368 922 b 1368 922 1368 922 1368 922 m 1482 922 b 1482 922 1482 922 1482 922 l 1482 776 l 1540 776 b 1538 768 1539 771 1539 768 l 1468 768 b 1467 768 1468 768 1467 768 l 1467 922 b 1468 922 1468 922 1468 922 m 1538 922 b 1571 857 1538 922 1549 900 b 1603 922 1574 861 1583 883 l 1613 922 b 1575 847 1613 922 1600 897 l 1575 768 b 1575 768 1575 768 1575 768 l 1561 768 b 1560 768 1560 768 1560 768 l 1560 846 b 1522 922 1560 847 1547 872 m 493 846 b 500 788 493 814 496 794 b 522 774 504 779 511 774 b 544 789 533 774 542 779 b 550 846 549 796 550 815 b 543 906 550 879 549 899 b 522 917 539 913 532 917 l 521 917 b 497 897 508 917 501 910 b 493 846 494 889 493 871 m 1276 839 b 1285 783 1276 808 1279 790 b 1306 774 1289 778 1296 774 b 1329 790 1317 774 1325 779 b 1333 839 1332 800 1333 815 l 1333 851 b 1324 908 1333 883 1331 903 b 1306 917 1319 914 1314 917 l 1304 917 b 1282 901 1293 917 1286 911 b 1276 851 1278 893 1276 876 m 115 846 l 146 846 b 168 856 157 846 165 849 b 172 879 171 860 172 868 b 161 911 172 897 168 907 b 140 914 160 913 151 914 l 115 914 m 313 850 l 336 850 b 361 857 350 850 358 851 b 367 882 365 860 367 868 b 358 910 367 897 364 907 b 336 914 354 913 347 914 l 313 914 m 725 893 b 706 822 725 893 719 869 l 746 822 b 725 893 733 867 726 890 m 1144 674 b 1151 664 1147 672 1150 668 b 1163 639 1154 654 1157 646 b 1164 636 1164 638 1164 636 b 1154 614 1164 635 1161 628 b 1092 449 1132 567 1111 511 b 1072 363 1085 424 1079 396 b 1069 333 1071 346 1069 336 b 1075 346 1071 333 1072 338 b 1129 450 1094 393 1113 428 b 1176 485 1146 474 1161 485 l 1178 485 b 1186 483 1183 485 1186 483 l 1194 483 b 1210 475 1203 483 1208 481 l 1210 474 b 1200 450 1210 471 1207 463 b 1163 311 1175 401 1163 354 l 1163 306 b 1204 229 1163 274 1176 249 b 1249 217 1218 221 1233 217 b 1233 201 1244 208 1240 204 b 1201 196 1224 197 1213 196 b 1128 249 1167 196 1142 214 b 1122 282 1125 258 1122 269 l 1122 286 b 1144 414 1122 318 1131 361 b 1149 429 1147 421 1147 426 b 1082 286 1119 372 1097 324 b 1058 222 1071 261 1064 240 b 1050 208 1056 214 1051 208 l 1049 208 b 1039 215 1047 208 1044 211 b 1026 225 1032 218 1028 221 b 1025 243 1025 226 1025 233 l 1025 246 b 1028 306 1025 261 1026 282 b 1000 285 1018 297 1010 290 b 964 271 986 275 975 271 b 940 285 956 271 947 275 b 922 308 935 292 928 300 l 921 311 b 917 301 919 311 918 308 b 897 211 911 285 904 254 b 886 186 893 194 889 186 b 874 193 885 186 881 188 b 857 210 865 197 860 203 b 854 233 854 214 854 222 l 854 243 b 894 463 854 293 867 367 b 942 608 907 506 922 554 b 939 610 942 610 940 610 l 910 610 b 769 590 853 610 806 603 b 735 568 757 585 746 578 l 728 558 b 719 544 724 554 722 549 b 713 567 717 550 714 557 b 711 576 711 571 711 575 b 760 633 711 606 728 624 b 794 639 775 638 788 639 b 896 644 821 643 856 644 b 942 647 922 644 939 646 b 965 658 953 647 960 650 b 969 660 968 660 969 660 l 971 660 b 982 642 976 660 979 654 b 990 625 985 635 988 629 b 993 622 992 625 992 624 b 983 601 993 621 990 614 b 924 440 961 553 942 500 b 904 358 917 418 910 390 b 901 335 903 349 901 340 b 971 489 925 406 949 456 b 1006 513 983 504 994 513 b 1032 492 1018 513 1026 506 b 1033 475 1033 486 1033 481 l 1033 474 b 1013 390 1033 451 1026 424 b 992 357 1007 381 1000 369 b 968 335 982 346 974 338 b 949 325 963 331 956 328 b 944 322 946 325 944 324 b 957 307 944 319 949 315 b 969 303 961 304 965 303 l 971 303 b 1007 326 981 303 992 310 b 1032 361 1018 339 1026 350 b 1043 385 1039 369 1042 378 b 1060 456 1046 404 1051 428 b 1124 647 1076 518 1099 582 b 1132 667 1128 658 1131 665 b 1140 674 1136 671 1139 672 m 1371 672 b 1374 671 1372 672 1374 672 l 1374 669 b 1363 643 1374 668 1369 660 l 1363 642 b 1365 640 1363 640 1364 640 l 1372 640 b 1443 631 1396 640 1419 638 b 1457 619 1453 626 1457 622 b 1456 617 1457 618 1457 617 b 1436 624 1453 618 1447 621 b 1385 629 1419 626 1403 629 b 1363 628 1378 629 1369 628 l 1360 628 b 1354 625 1357 628 1356 628 b 1329 560 1343 600 1335 578 b 1325 549 1326 553 1325 549 b 1329 544 1326 546 1328 544 b 1339 551 1331 544 1333 546 b 1363 578 1349 561 1357 569 b 1381 590 1365 583 1372 588 b 1365 561 1378 585 1374 575 b 1360 546 1363 556 1361 551 b 1368 554 1363 546 1365 549 b 1397 593 1385 576 1394 589 b 1406 597 1401 596 1403 597 b 1413 593 1410 596 1413 594 b 1376 507 1400 564 1388 536 b 1365 460 1369 483 1365 468 b 1367 450 1365 456 1367 451 b 1354 463 1361 451 1357 457 b 1353 472 1353 467 1353 469 b 1369 524 1353 481 1358 499 b 1382 554 1375 538 1379 549 b 1361 526 1374 543 1367 533 b 1354 522 1358 524 1356 522 b 1344 536 1351 522 1347 528 l 1344 539 b 1325 522 1335 528 1329 522 b 1313 538 1322 522 1318 528 b 1311 549 1311 542 1311 544 b 1321 583 1311 556 1314 567 b 1335 624 1326 596 1331 610 b 1335 625 1335 625 1335 625 l 1333 625 b 1311 617 1325 625 1318 622 b 1301 604 1307 613 1304 608 l 1301 603 b 1292 613 1297 604 1294 607 b 1292 617 1292 614 1292 615 b 1322 636 1292 626 1303 633 b 1340 640 1335 638 1340 639 b 1343 647 1342 640 1342 643 b 1349 663 1346 654 1347 660 b 1356 668 1349 665 1351 667 b 1371 672 1358 668 1363 669 m 596 619 b 618 603 608 619 615 614 b 619 599 619 601 619 600 l 619 594 b 607 544 617 575 613 558 b 521 454 590 504 563 475 b 490 442 503 446 492 442 b 457 433 483 439 472 436 b 439 431 444 432 439 431 b 419 385 436 426 431 411 b 385 272 406 350 394 313 b 371 178 376 233 371 203 b 428 57 371 128 390 88 b 515 26 456 38 485 26 l 517 26 b 731 71 564 26 636 42 l 882 118 b 1024 157 928 133 975 146 b 1133 171 1065 167 1101 171 l 1135 171 b 1257 147 1181 171 1221 163 b 1292 128 1268 143 1279 136 b 1315 107 1299 122 1307 115 b 1338 72 1329 92 1338 81 l 1338 71 l 1336 71 b 1149 125 1296 107 1233 125 l 1147 125 b 829 60 1063 125 957 103 b 685 13 768 40 719 24 b 525 -17 618 -7 565 -17 l 517 -17 b 379 40 458 -17 413 1 b 333 178 349 76 333 122 b 358 329 333 224 342 274 b 390 407 369 358 379 385 b 403 432 399 422 403 431 b 347 433 401 433 383 433 b 208 394 278 433 231 421 b 199 379 206 390 203 386 b 193 408 194 390 193 400 b 232 463 193 435 206 453 b 308 471 247 468 272 471 b 407 467 326 471 358 469 b 419 467 408 467 413 467 b 429 476 422 467 426 469 b 472 535 442 494 456 514 b 525 588 494 561 513 578 b 554 607 536 596 546 603 b 596 619 569 615 583 619 m 1481 600 b 1493 578 1488 600 1492 593 b 1494 569 1494 575 1494 572 b 1479 535 1494 557 1490 546 b 1469 531 1476 532 1472 531 l 1465 531 b 1451 540 1461 531 1456 533 b 1451 546 1451 543 1451 544 b 1463 586 1451 560 1456 574 b 1468 589 1465 588 1467 589 l 1469 589 b 1478 578 1475 589 1478 585 l 1478 575 b 1461 546 1478 564 1472 554 b 1461 543 1461 544 1461 544 b 1464 539 1463 540 1463 539 l 1465 539 b 1479 553 1469 540 1475 544 b 1483 575 1482 560 1483 567 b 1481 599 1483 581 1483 589 b 1481 600 1481 600 1481 600 m 1424 593 b 1432 588 1429 592 1432 590 b 1425 575 1432 588 1429 582 b 1410 539 1419 564 1414 553 b 1424 565 1411 540 1415 549 l 1438 590 b 1439 590 1439 590 1439 590 b 1447 567 1444 590 1447 583 l 1447 563 b 1440 533 1447 549 1444 539 b 1433 531 1438 532 1435 531 l 1432 531 b 1421 536 1429 531 1425 533 b 1419 536 1421 536 1421 536 b 1414 525 1419 536 1418 532 b 1382 457 1399 496 1388 474 b 1379 453 1381 454 1379 453 l 1378 453 b 1372 463 1374 456 1372 460 l 1372 464 b 1407 564 1374 475 1385 508 b 1419 592 1414 579 1418 589 b 1422 593 1421 593 1422 593 m 464 468 b 533 494 486 468 508 478 b 563 524 546 506 556 515 b 576 549 568 533 572 542 b 586 582 582 564 586 575 b 588 589 586 582 588 585 b 521 542 568 578 546 561 b 476 496 501 522 486 507 b 457 469 468 486 463 478 l 457 468 m 1469 575 b 1464 560 1467 569 1464 564 b 1464 558 1464 560 1464 558 b 1471 575 1468 564 1471 569 l 1469 575 m 1436 568 b 1422 540 1435 564 1431 556 b 1435 546 1429 540 1433 543 b 1438 558 1438 550 1438 554 l 1438 564 b 1438 568 1438 567 1438 568 l 1436 568 m 746 519 b 768 501 756 519 764 513 b 776 476 772 494 775 486 b 781 469 778 472 779 469 b 822 481 792 472 806 476 b 842 489 835 486 840 488 b 853 497 843 489 847 492 b 865 504 857 501 861 504 b 879 492 871 504 876 500 l 879 488 b 872 460 879 485 878 475 b 826 229 842 356 826 279 b 844 147 826 201 832 174 l 844 146 b 842 144 843 144 843 144 l 839 144 b 796 165 822 144 807 151 b 783 199 788 176 783 188 l 783 203 b 813 356 783 219 793 271 b 835 449 822 397 829 428 b 842 461 836 453 839 457 b 842 461 842 461 842 461 b 783 443 826 456 807 449 b 782 440 782 443 782 443 b 782 417 782 435 782 426 b 767 292 782 382 776 340 b 725 218 753 243 739 218 b 711 229 721 218 717 222 b 700 239 707 235 703 238 b 685 257 693 242 689 247 b 681 315 682 267 681 286 l 681 321 b 644 224 667 271 656 239 b 635 215 640 218 638 215 l 633 215 b 624 224 631 215 628 218 b 614 228 622 225 619 226 b 601 244 608 231 604 236 b 599 269 599 253 599 261 b 613 351 599 293 603 321 b 636 400 619 369 626 386 b 672 432 650 422 663 432 b 693 406 682 432 689 424 b 708 428 697 414 703 422 b 722 433 713 432 717 433 b 736 429 726 433 732 432 l 738 429 l 738 428 b 729 415 738 428 735 424 b 717 385 725 407 721 397 b 704 311 708 358 704 333 l 704 304 b 713 261 704 286 707 272 b 717 256 714 257 715 256 b 732 288 721 258 726 269 b 753 406 746 331 753 371 l 753 415 b 749 449 753 424 751 435 b 743 453 749 450 746 451 b 715 489 725 460 715 472 b 735 517 715 501 722 511 b 746 519 738 518 742 519 m 1331 508 b 1338 503 1333 508 1336 507 b 1338 493 1338 500 1338 497 b 1318 408 1338 481 1331 453 b 1294 272 1303 354 1294 308 b 1317 196 1294 238 1303 213 b 1342 186 1325 189 1333 186 l 1344 186 b 1383 203 1356 186 1368 192 b 1397 217 1389 207 1394 213 b 1432 349 1421 247 1432 292 l 1432 354 b 1426 425 1432 379 1431 403 b 1418 438 1424 433 1421 438 b 1399 407 1414 438 1407 428 b 1375 308 1383 371 1375 338 b 1385 268 1375 292 1378 279 b 1388 265 1386 267 1386 265 b 1374 261 1382 263 1378 261 b 1349 300 1361 261 1353 274 b 1342 317 1346 307 1344 313 b 1338 339 1339 324 1338 332 l 1338 340 b 1360 404 1338 357 1344 378 b 1379 429 1364 411 1371 419 b 1403 450 1390 440 1399 449 b 1431 458 1413 456 1421 458 b 1471 438 1449 458 1461 451 b 1482 389 1479 425 1482 408 l 1482 383 b 1467 293 1482 358 1478 329 b 1444 240 1460 274 1453 256 b 1356 172 1418 194 1389 172 b 1293 201 1332 172 1313 182 b 1269 256 1282 215 1274 233 b 1264 303 1265 272 1264 288 b 1274 360 1264 322 1268 340 b 1274 364 1274 363 1274 364 l 1274 365 b 1231 265 1256 317 1242 283 b 1219 257 1228 260 1224 257 b 1210 267 1215 257 1213 261 b 1197 276 1207 271 1203 275 b 1189 282 1194 276 1192 278 b 1183 306 1185 289 1183 297 l 1183 308 b 1196 379 1183 324 1188 347 b 1221 440 1203 404 1213 424 b 1242 472 1228 454 1235 464 b 1271 490 1253 483 1263 490 b 1293 460 1281 490 1288 481 b 1293 460 1293 460 1293 460 b 1310 492 1303 481 1307 492 b 1317 497 1310 493 1313 494 b 1329 508 1322 504 1326 508 m 939 354 b 956 365 943 356 949 360 b 974 392 964 374 969 382 b 992 432 981 401 986 415 b 1004 478 996 443 999 458 b 988 456 999 474 993 465 b 960 407 978 440 969 424 b 938 354 946 378 938 360 m 1215 306 b 1217 294 1215 303 1215 299 b 1250 365 1224 306 1233 329 l 1283 442 l 1283 443 b 1275 465 1281 453 1279 461 l 1274 467 b 1261 450 1272 467 1267 461 b 1232 388 1250 432 1240 411 b 1218 336 1226 374 1222 357 b 1215 310 1217 322 1215 314 m 593 447 b 613 443 594 447 601 446 b 618 438 615 442 618 440 b 608 404 617 433 614 422 b 572 265 596 367 583 319 b 565 194 568 240 565 217 b 571 167 565 181 567 171 b 576 165 572 165 574 165 b 611 175 579 165 592 168 b 693 193 649 188 675 193 b 746 172 717 193 735 186 l 746 171 b 699 165 739 171 724 169 b 640 149 676 161 657 156 b 597 131 628 144 613 139 b 583 128 593 129 588 128 b 558 146 574 128 565 133 b 547 157 554 150 550 154 b 532 201 538 165 532 181 b 549 293 532 217 538 247 b 553 314 551 306 553 313 l 553 315 l 551 315 b 513 190 538 278 525 236 b 499 106 504 153 499 124 l 499 101 l 499 100 b 497 97 499 97 499 97 l 496 97 b 482 104 492 97 488 100 b 463 181 469 117 463 143 b 476 288 463 210 467 244 l 476 289 b 446 203 463 253 451 224 b 442 192 444 196 443 192 b 442 192 442 192 442 192 b 422 199 436 192 429 194 b 406 235 411 206 406 218 l 406 239 b 435 358 406 263 415 301 b 461 410 447 392 457 410 b 483 406 474 408 482 407 b 486 401 486 404 486 403 b 475 375 486 400 482 390 b 438 253 450 314 438 274 l 438 251 b 514 411 468 322 493 376 b 529 426 521 421 525 426 l 531 426 b 546 419 535 425 539 424 b 549 417 547 418 549 418 b 536 388 549 414 544 406 b 510 306 526 365 518 339 b 494 211 500 267 494 235 b 496 210 496 210 496 210 b 568 417 522 301 547 369 b 586 446 576 432 582 440 b 593 447 589 447 590 447 m 356 415 b 363 406 360 415 361 413 l 363 401 b 338 328 363 392 354 367 b 310 194 318 278 310 233 l 310 186 b 336 65 310 139 318 100 b 338 63 338 64 338 64 b 326 60 338 61 333 60 b 283 83 308 60 294 68 b 271 131 275 97 271 113 l 271 138 b 279 239 271 157 274 190 l 279 240 b 269 222 278 240 275 233 b 235 156 256 194 244 172 b 221 144 231 147 225 144 b 211 154 217 144 214 147 b 199 164 208 160 204 163 b 192 169 196 165 193 167 b 188 189 189 175 188 181 l 188 193 b 204 264 188 207 193 232 b 232 322 213 286 221 306 b 256 354 238 333 246 344 b 286 372 268 367 278 372 l 288 372 b 306 349 296 372 303 364 b 328 393 318 375 325 390 b 344 408 333 400 339 406 b 354 415 350 414 353 415 l 356 415 m 626 265 b 632 246 628 253 629 246 l 633 246 b 643 269 635 246 639 254 b 675 365 650 289 661 321 b 679 381 678 372 679 376 b 672 400 679 386 676 392 l 669 400 b 653 375 665 399 660 390 b 636 324 647 364 642 347 b 628 272 633 313 631 296 b 626 265 626 268 626 265 m 219 189 b 219 182 219 185 219 182 b 231 199 224 186 226 192 b 293 318 256 246 275 285 b 296 328 294 321 296 325 b 290 347 296 333 293 339 b 289 349 289 349 289 349 b 276 336 286 349 282 344 b 235 256 261 314 246 288 b 224 218 228 235 224 222 b 219 189 221 210 219 200 m 581 -115 l 581 -239 b 579 -239 581 -239 581 -239 l 569 -239 b 568 -239 568 -239 568 -239 l 568 -119 b 581 -114 568 -118 572 -117 m 860 -115 l 860 -185 l 894 -154 l 904 -154 b 874 -182 904 -154 893 -164 l 874 -183 l 913 -239 l 899 -239 b 865 -190 882 -217 871 -201 l 864 -190 l 860 -194 l 860 -239 b 860 -239 860 -239 860 -239 l 849 -239 b 849 -239 849 -239 849 -239 l 849 -119 b 860 -114 849 -118 853 -117 m 936 -115 l 936 -160 b 953 -154 940 -156 946 -154 l 956 -154 b 979 -172 968 -154 975 -160 b 982 -189 981 -178 982 -183 l 982 -239 b 982 -239 982 -239 982 -239 l 969 -239 b 969 -239 969 -239 969 -239 l 969 -192 b 961 -162 969 -176 967 -165 b 953 -160 960 -161 956 -160 b 936 -175 944 -160 939 -165 b 936 -179 936 -176 936 -178 l 936 -239 b 935 -239 936 -239 936 -239 l 924 -239 b 924 -239 924 -239 924 -239 l 924 -119 b 936 -114 924 -118 928 -117 m 1086 -132 l 1086 -154 l 1101 -154 b 1101 -154 1101 -154 1101 -154 l 1101 -160 b 1101 -160 1101 -160 1101 -160 l 1086 -160 l 1086 -203 b 1092 -231 1086 -219 1088 -229 b 1097 -232 1093 -232 1096 -232 l 1100 -232 b 1113 -226 1103 -232 1107 -231 b 1110 -239 1111 -235 1110 -239 l 1103 -239 b 1081 -232 1090 -239 1082 -236 b 1075 -201 1076 -226 1075 -217 l 1075 -160 l 1063 -160 b 1063 -160 1063 -160 1063 -160 l 1063 -154 b 1063 -154 1063 -154 1063 -154 l 1075 -154 l 1075 -137 b 1086 -132 1075 -137 1078 -135 m 1226 -153 b 1251 -168 1239 -153 1247 -158 b 1254 -194 1254 -174 1254 -182 l 1254 -199 b 1242 -236 1254 -219 1250 -232 b 1226 -240 1238 -239 1232 -240 b 1208 -235 1219 -240 1214 -237 l 1208 -275 b 1197 -281 1208 -275 1204 -276 l 1196 -281 l 1196 -171 b 1194 -160 1196 -167 1196 -162 b 1203 -156 1194 -158 1199 -157 l 1207 -160 b 1226 -153 1211 -156 1218 -153 m 607 -153 l 607 -158 b 622 -154 611 -156 617 -154 l 626 -154 b 647 -164 636 -154 643 -157 b 647 -165 647 -164 647 -164 b 656 -156 647 -162 651 -160 b 667 -154 660 -154 664 -154 l 671 -154 b 693 -168 682 -154 689 -158 b 696 -192 694 -175 696 -182 l 696 -239 b 696 -239 696 -239 696 -239 l 685 -239 b 683 -239 685 -239 683 -239 l 683 -194 b 679 -164 683 -178 682 -168 b 668 -160 676 -161 672 -160 b 651 -179 658 -160 653 -167 l 651 -239 b 651 -239 651 -239 651 -239 l 640 -239 b 639 -239 639 -239 639 -239 l 639 -203 b 635 -165 639 -181 638 -168 b 624 -160 633 -162 629 -160 b 608 -174 615 -160 610 -165 b 607 -179 607 -175 607 -178 l 607 -239 b 607 -239 607 -239 607 -239 l 596 -239 b 594 -239 594 -239 594 -239 l 594 -158 b 607 -153 594 -157 599 -156 m 794 -153 l 794 -164 b 808 -154 796 -160 800 -157 b 814 -154 810 -154 813 -154 l 831 -154 b 836 -168 832 -154 833 -158 b 815 -160 829 -162 822 -160 b 796 -182 806 -160 800 -168 b 794 -211 794 -190 794 -200 l 794 -239 b 793 -239 794 -239 794 -239 l 782 -239 b 782 -239 782 -239 782 -239 l 782 -158 b 794 -153 782 -157 786 -156 m 1133 -153 l 1133 -196 b 1140 -229 1133 -214 1136 -225 b 1149 -232 1142 -231 1144 -232 l 1151 -232 b 1168 -217 1160 -232 1165 -226 b 1168 -211 1168 -214 1168 -212 l 1168 -158 b 1179 -153 1168 -157 1172 -156 l 1179 -237 b 1161 -276 1179 -258 1174 -272 b 1151 -279 1157 -279 1154 -279 l 1133 -279 b 1129 -265 1133 -279 1132 -275 b 1147 -272 1136 -269 1143 -272 l 1150 -272 b 1167 -253 1158 -272 1164 -267 b 1168 -236 1168 -247 1168 -242 l 1168 -233 b 1150 -239 1163 -237 1157 -239 l 1149 -239 b 1125 -224 1138 -239 1129 -235 b 1121 -200 1122 -218 1121 -210 l 1121 -158 b 1133 -153 1122 -157 1126 -156 m 1517 -153 l 1517 -158 b 1532 -154 1521 -156 1526 -154 l 1536 -154 b 1557 -162 1546 -154 1551 -157 b 1557 -165 1557 -164 1557 -164 b 1564 -157 1557 -162 1560 -160 b 1576 -154 1568 -154 1572 -154 l 1581 -154 b 1604 -171 1593 -154 1600 -160 b 1606 -196 1606 -176 1606 -185 l 1606 -239 b 1606 -239 1606 -239 1606 -239 l 1594 -239 b 1594 -239 1594 -239 1594 -239 l 1594 -203 b 1589 -165 1594 -181 1592 -168 b 1578 -160 1588 -162 1583 -160 b 1563 -174 1569 -160 1565 -165 b 1561 -183 1561 -176 1561 -181 l 1561 -239 b 1561 -239 1561 -239 1561 -239 l 1550 -239 b 1549 -239 1549 -239 1549 -239 l 1549 -192 b 1543 -164 1549 -176 1547 -167 b 1533 -160 1540 -161 1538 -160 b 1518 -172 1525 -160 1521 -164 b 1517 -181 1517 -175 1517 -178 l 1517 -239 b 1517 -239 1517 -239 1517 -239 l 1506 -239 b 1504 -239 1504 -239 1504 -239 l 1504 -158 b 1517 -153 1504 -157 1508 -156 m 1299 -153 b 1322 -168 1310 -153 1318 -158 b 1326 -190 1325 -174 1326 -182 l 1326 -193 b 1313 -196 1326 -193 1322 -194 b 1281 -203 1313 -196 1301 -199 l 1281 -204 b 1290 -231 1281 -219 1283 -228 b 1300 -232 1293 -232 1296 -232 l 1303 -232 b 1322 -225 1308 -232 1315 -229 b 1318 -239 1319 -233 1318 -239 l 1297 -239 b 1268 -204 1278 -239 1268 -228 l 1268 -189 b 1288 -154 1268 -171 1275 -158 b 1299 -153 1292 -153 1294 -153 m 1461 -153 b 1489 -176 1476 -153 1485 -161 b 1490 -194 1490 -182 1490 -187 l 1490 -197 b 1461 -240 1490 -225 1481 -240 b 1431 -197 1440 -240 1431 -225 b 1447 -156 1431 -175 1436 -161 b 1461 -153 1450 -154 1456 -153 m 121 -154 b 133 -187 121 -154 125 -165 l 144 -218 l 158 -179 l 149 -154 l 150 -154 l 161 -154 b 185 -218 161 -154 169 -175 b 208 -154 192 -199 200 -176 l 215 -154 b 185 -239 215 -157 204 -185 l 179 -239 b 161 -189 179 -239 174 -222 b 144 -239 161 -192 156 -208 l 139 -239 b 136 -232 138 -239 138 -236 b 108 -154 118 -182 108 -156 m 240 -154 b 246 -168 240 -154 242 -158 b 263 -218 257 -200 263 -217 b 275 -185 263 -218 267 -207 b 278 -179 275 -185 276 -183 b 268 -154 271 -162 268 -154 l 281 -154 b 290 -181 282 -156 285 -164 b 304 -218 292 -183 296 -196 b 328 -154 311 -197 319 -175 l 333 -154 b 335 -154 335 -154 335 -154 l 304 -239 l 299 -239 b 290 -215 299 -239 296 -231 b 281 -190 285 -200 282 -190 b 264 -239 269 -221 264 -237 l 258 -239 b 250 -217 257 -237 254 -231 b 228 -154 249 -217 242 -194 m 360 -154 b 369 -185 360 -154 363 -164 b 382 -218 371 -186 375 -197 l 396 -179 l 388 -154 l 389 -154 l 400 -154 b 406 -168 400 -154 403 -158 b 424 -218 407 -171 413 -187 b 432 -194 424 -218 426 -211 b 447 -154 442 -169 446 -156 l 454 -154 b 424 -239 454 -154 444 -183 l 418 -239 b 414 -228 418 -239 417 -235 b 400 -189 414 -228 408 -215 b 382 -239 389 -222 383 -239 l 376 -239 b 374 -231 376 -239 376 -236 b 347 -154 357 -182 347 -156 m 522 -154 b 550 -176 538 -154 547 -161 b 550 -192 550 -181 550 -186 l 550 -226 b 554 -239 550 -232 551 -236 l 553 -239 b 543 -239 549 -239 544 -239 b 539 -232 542 -237 540 -235 b 517 -240 533 -237 526 -240 b 494 -222 506 -240 499 -233 b 493 -214 494 -219 493 -217 l 493 -210 b 511 -181 493 -194 500 -186 b 538 -176 519 -178 528 -176 b 533 -164 538 -172 536 -168 b 519 -160 531 -161 525 -160 b 500 -167 511 -160 504 -162 b 497 -168 499 -167 499 -168 b 503 -154 500 -158 501 -154 m 739 -154 b 764 -168 751 -154 758 -158 b 767 -190 765 -174 767 -182 l 767 -225 b 769 -239 767 -232 768 -236 b 760 -239 764 -239 761 -239 b 756 -231 758 -239 757 -236 b 733 -240 750 -236 742 -240 b 711 -224 722 -240 715 -235 b 710 -212 710 -219 710 -215 l 710 -211 b 726 -182 710 -196 715 -186 b 754 -176 733 -178 743 -176 b 750 -164 754 -172 753 -168 b 736 -160 747 -161 743 -160 b 715 -167 728 -160 721 -162 b 714 -168 715 -168 714 -168 b 718 -154 717 -158 718 -154 m 1025 -154 b 1050 -172 1038 -154 1046 -160 b 1053 -199 1053 -176 1053 -186 l 1053 -229 b 1056 -239 1053 -232 1054 -235 b 1044 -239 1050 -239 1046 -239 b 1042 -231 1042 -236 1042 -233 b 1019 -240 1035 -236 1028 -240 b 997 -224 1008 -240 1001 -235 b 996 -211 996 -221 996 -217 b 1011 -182 996 -197 1000 -187 b 1039 -176 1018 -179 1028 -176 l 1040 -176 b 1036 -165 1039 -171 1038 -167 b 1022 -160 1033 -161 1028 -160 b 1000 -168 1014 -160 1007 -162 b 1000 -168 1000 -168 1000 -168 b 1004 -154 1003 -158 1004 -154 m 1415 -154 b 1419 -168 1417 -154 1418 -158 b 1400 -160 1413 -162 1406 -160 b 1382 -167 1390 -160 1385 -162 b 1379 -197 1381 -169 1379 -181 b 1385 -228 1379 -215 1381 -226 b 1397 -232 1386 -231 1390 -232 l 1401 -232 b 1419 -225 1407 -232 1413 -229 b 1415 -239 1418 -235 1417 -239 l 1396 -239 b 1369 -222 1382 -239 1374 -233 b 1365 -196 1367 -215 1365 -207 b 1381 -157 1365 -175 1371 -162 b 1394 -154 1385 -154 1389 -154 m 1208 -214 b 1218 -232 1208 -222 1211 -228 b 1226 -233 1221 -232 1224 -233 b 1239 -225 1232 -233 1238 -231 b 1243 -192 1242 -218 1243 -207 b 1236 -162 1243 -176 1240 -167 b 1226 -160 1233 -161 1229 -160 l 1225 -160 b 1210 -172 1217 -160 1211 -164 b 1208 -179 1208 -175 1208 -178 m 1281 -194 l 1314 -189 l 1314 -187 b 1303 -161 1314 -174 1311 -165 b 1297 -160 1300 -160 1299 -160 b 1283 -169 1290 -160 1286 -162 b 1281 -192 1281 -175 1281 -183 m 1443 -199 b 1451 -231 1443 -217 1446 -226 b 1461 -233 1454 -232 1457 -233 b 1475 -222 1468 -233 1472 -229 b 1478 -199 1476 -217 1478 -208 l 1478 -194 b 1469 -162 1478 -176 1475 -167 b 1461 -160 1467 -161 1464 -160 b 1447 -171 1454 -160 1449 -162 b 1443 -194 1444 -175 1443 -183 m 506 -210 b 521 -231 506 -224 510 -231 b 539 -221 528 -231 535 -228 l 539 -189 b 539 -183 539 -187 539 -186 b 510 -192 525 -183 515 -186 b 506 -210 507 -197 506 -203 m 722 -211 b 733 -231 722 -222 725 -229 l 736 -231 b 754 -221 744 -231 751 -228 l 754 -185 l 754 -183 b 726 -193 740 -183 731 -187 b 722 -208 724 -197 722 -203 m 1007 -211 b 1022 -231 1007 -224 1013 -231 b 1040 -221 1031 -231 1036 -228 l 1040 -183 b 1010 -196 1025 -183 1014 -187 b 1007 -211 1008 -200 1007 -204 m 475 -224 b 482 -231 478 -224 481 -226 l 482 -232 b 476 -239 482 -235 479 -237 b 474 -239 476 -239 475 -239 b 467 -233 471 -239 468 -237 l 467 -231 b 474 -224 467 -228 468 -225 l 475 -224 m 1347 -224 b 1354 -229 1350 -224 1351 -225 b 1354 -232 1354 -231 1354 -232 b 1349 -239 1354 -235 1353 -237 l 1346 -239 b 1339 -233 1343 -239 1340 -237 b 1339 -232 1339 -232 1339 -232 b 1346 -224 1339 -228 1342 -225 l 1347 -224 "},"$":{"ha":1685,"x_min":0,"x_max":0,"o":"m 522 925 b 560 896 542 925 554 915 b 565 850 564 883 565 868 l 565 840 b 539 769 565 801 557 778 b 521 765 535 767 528 765 b 482 801 501 765 488 778 b 478 842 479 814 478 828 l 478 849 b 501 919 478 888 486 911 b 522 925 507 924 514 925 m 1304 925 b 1343 893 1325 925 1338 914 b 1349 844 1347 882 1349 865 b 1324 769 1349 803 1340 778 b 1304 765 1318 767 1313 765 b 1265 799 1285 765 1272 776 b 1261 846 1263 811 1261 826 b 1286 921 1261 888 1269 913 b 1304 925 1290 924 1297 925 m 147 922 b 186 901 168 922 181 915 b 189 879 188 896 189 888 b 171 842 189 860 183 847 b 143 838 165 839 156 838 l 115 838 l 115 768 b 115 768 115 768 115 768 l 101 768 b 101 768 101 768 101 768 l 101 922 b 101 922 101 922 101 922 m 272 922 b 275 914 272 922 274 919 l 221 914 b 221 914 221 914 221 914 l 221 854 l 264 854 b 264 853 264 854 264 854 l 264 846 b 264 844 264 846 264 844 l 221 844 l 221 776 l 279 776 b 276 768 278 771 276 768 l 206 768 b 206 768 206 768 206 768 l 206 922 b 206 922 206 922 206 922 m 343 922 b 381 901 363 922 376 915 b 383 882 383 896 383 889 b 365 844 383 861 378 849 b 361 843 364 844 363 843 b 390 768 369 833 379 808 l 389 768 l 375 768 b 369 788 374 768 372 775 b 346 840 360 824 351 840 l 313 840 l 313 768 b 313 768 313 768 313 768 l 299 768 b 299 768 299 768 299 768 l 299 922 b 299 922 299 922 299 922 m 454 922 b 458 908 456 922 457 918 b 458 907 458 908 458 908 b 443 914 451 911 447 914 b 428 897 433 914 428 908 l 428 894 b 443 850 428 883 433 868 b 458 803 453 832 458 817 b 439 771 458 788 451 776 b 425 768 435 768 431 768 l 414 768 b 408 785 413 768 411 774 l 410 785 b 424 776 415 779 419 776 l 425 776 b 443 794 435 776 440 782 b 443 801 443 796 443 799 b 425 850 443 813 438 829 b 413 889 417 867 413 879 l 413 893 b 431 921 413 907 419 915 b 440 922 435 922 438 922 m 599 922 b 656 797 601 919 619 878 l 657 797 l 657 922 b 657 922 657 922 657 922 l 665 922 b 665 922 665 922 665 922 l 665 768 b 665 768 665 768 665 768 l 654 768 b 607 868 653 769 636 804 b 593 899 607 871 601 881 l 593 768 b 593 768 593 768 593 768 l 586 768 b 585 768 585 768 585 768 l 585 922 b 586 922 585 922 585 922 m 732 922 b 738 903 733 922 735 915 b 778 768 764 818 776 772 l 763 768 b 758 779 763 768 761 772 b 749 814 758 782 754 793 l 703 814 b 689 768 694 786 690 771 l 681 768 b 681 768 681 768 681 768 b 725 922 708 867 724 918 l 732 922 m 811 922 b 811 922 811 922 811 922 l 811 776 l 869 776 b 868 768 869 771 868 768 l 797 768 b 797 768 797 768 797 768 l 797 922 b 797 922 797 922 797 922 m 958 922 b 958 922 958 922 958 922 l 958 836 b 967 783 958 807 961 789 b 988 774 969 778 976 774 b 1011 788 999 774 1007 779 b 1015 833 1014 796 1015 810 l 1015 922 b 1015 922 1015 922 1015 922 l 1025 922 b 1025 922 1025 922 1025 922 l 1025 854 b 1019 788 1025 817 1022 794 b 1006 769 1015 779 1011 772 b 986 765 1000 767 994 765 b 951 785 969 765 957 772 b 943 844 946 796 943 815 l 943 922 b 943 922 943 922 943 922 m 1088 922 b 1092 908 1088 922 1089 918 b 1092 907 1092 908 1092 908 b 1075 914 1085 911 1079 914 b 1060 896 1065 914 1060 908 b 1075 850 1060 883 1065 868 b 1090 803 1085 832 1090 815 b 1071 771 1090 788 1085 776 b 1057 768 1067 768 1063 768 l 1046 768 b 1042 785 1046 768 1044 774 b 1056 776 1047 779 1053 776 l 1057 776 b 1075 797 1068 776 1074 783 l 1075 800 b 1075 801 1075 800 1075 800 b 1075 801 1075 801 1075 801 l 1075 803 b 1058 849 1075 814 1069 829 b 1044 892 1050 865 1044 879 b 1064 921 1044 907 1051 917 b 1074 922 1068 922 1071 922 m 1181 922 b 1183 914 1182 922 1182 919 l 1129 914 l 1129 854 l 1172 854 b 1174 853 1172 854 1174 854 l 1174 846 b 1172 844 1174 846 1172 844 l 1129 844 l 1129 776 l 1188 776 b 1188 776 1188 776 1188 776 b 1186 768 1186 771 1186 768 l 1115 768 b 1114 768 1114 768 1114 768 l 1114 922 b 1115 922 1114 922 1115 922 m 1382 922 b 1389 907 1382 922 1385 917 b 1439 797 1392 901 1408 865 l 1439 922 b 1440 922 1439 922 1440 922 l 1447 922 b 1447 922 1447 922 1447 922 l 1447 768 b 1447 768 1447 768 1447 768 l 1436 768 b 1426 789 1436 768 1432 775 b 1376 899 1425 792 1408 828 l 1376 768 b 1375 768 1376 768 1376 768 l 1368 768 b 1368 768 1368 768 1368 768 l 1368 922 b 1368 922 1368 922 1368 922 m 1482 922 b 1482 922 1482 922 1482 922 l 1482 776 l 1540 776 b 1538 768 1539 771 1539 768 l 1468 768 b 1467 768 1468 768 1467 768 l 1467 922 b 1468 922 1468 922 1468 922 m 1538 922 b 1571 857 1538 922 1549 900 b 1603 922 1574 861 1583 883 l 1613 922 b 1575 847 1613 922 1600 897 l 1575 768 b 1575 768 1575 768 1575 768 l 1561 768 b 1560 768 1560 768 1560 768 l 1560 846 b 1522 922 1560 847 1547 872 m 493 846 b 500 788 493 814 496 794 b 522 774 504 779 511 774 b 544 789 533 774 542 779 b 550 846 549 796 550 815 b 543 906 550 879 549 899 b 522 917 539 913 532 917 l 521 917 b 497 897 508 917 501 910 b 493 846 494 889 493 871 m 1276 839 b 1285 783 1276 808 1279 790 b 1306 774 1289 778 1296 774 b 1329 790 1317 774 1325 779 b 1333 839 1332 800 1333 815 l 1333 851 b 1324 908 1333 883 1331 903 b 1306 917 1319 914 1314 917 l 1304 917 b 1282 901 1293 917 1286 911 b 1276 851 1278 893 1276 876 m 115 846 l 146 846 b 168 856 157 846 165 849 b 172 879 171 860 172 868 b 161 911 172 897 168 907 b 140 914 160 913 151 914 l 115 914 m 313 850 l 336 850 b 361 857 350 850 358 851 b 367 882 365 860 367 868 b 358 910 367 897 364 907 b 336 914 354 913 347 914 l 313 914 m 725 893 b 706 822 725 893 719 869 l 746 822 b 725 893 733 867 726 890 m 1144 674 b 1151 664 1147 672 1150 668 b 1163 639 1154 654 1157 646 b 1164 636 1164 638 1164 636 b 1154 614 1164 635 1161 628 b 1092 449 1132 567 1111 511 b 1072 363 1085 424 1079 396 b 1069 333 1071 346 1069 336 b 1075 346 1071 333 1072 338 b 1129 450 1094 393 1113 428 b 1176 485 1146 474 1161 485 l 1178 485 b 1186 483 1183 485 1186 483 l 1194 483 b 1210 475 1203 483 1208 481 l 1210 474 b 1200 450 1210 471 1207 463 b 1163 311 1175 401 1163 354 l 1163 306 b 1204 229 1163 274 1176 249 b 1249 217 1218 221 1233 217 b 1233 201 1244 208 1240 204 b 1201 196 1224 197 1213 196 b 1128 249 1167 196 1142 214 b 1122 282 1125 258 1122 269 l 1122 286 b 1144 414 1122 318 1131 361 b 1149 429 1147 421 1147 426 b 1082 286 1119 372 1097 324 b 1058 222 1071 261 1064 240 b 1050 208 1056 214 1051 208 l 1049 208 b 1039 215 1047 208 1044 211 b 1026 225 1032 218 1028 221 b 1025 243 1025 226 1025 233 l 1025 246 b 1028 306 1025 261 1026 282 b 1000 285 1018 297 1010 290 b 964 271 986 275 975 271 b 940 285 956 271 947 275 b 922 308 935 292 928 300 l 921 311 b 917 301 919 311 918 308 b 897 211 911 285 904 254 b 886 186 893 194 889 186 b 874 193 885 186 881 188 b 857 210 865 197 860 203 b 854 233 854 214 854 222 l 854 243 b 894 463 854 293 867 367 b 942 608 907 506 922 554 b 939 610 942 610 940 610 l 910 610 b 769 590 853 610 806 603 b 735 568 757 585 746 578 l 728 558 b 719 544 724 554 722 549 b 713 567 717 550 714 557 b 711 576 711 571 711 575 b 760 633 711 606 728 624 b 794 639 775 638 788 639 b 896 644 821 643 856 644 b 942 647 922 644 939 646 b 965 658 953 647 960 650 b 969 660 968 660 969 660 l 971 660 b 982 642 976 660 979 654 b 990 625 985 635 988 629 b 993 622 992 625 992 624 b 983 601 993 621 990 614 b 924 440 961 553 942 500 b 904 358 917 418 910 390 b 901 335 903 349 901 340 b 971 489 925 406 949 456 b 1006 513 983 504 994 513 b 1032 492 1018 513 1026 506 b 1033 475 1033 486 1033 481 l 1033 474 b 1013 390 1033 451 1026 424 b 992 357 1007 381 1000 369 b 968 335 982 346 974 338 b 949 325 963 331 956 328 b 944 322 946 325 944 324 b 957 307 944 319 949 315 b 969 303 961 304 965 303 l 971 303 b 1007 326 981 303 992 310 b 1032 361 1018 339 1026 350 b 1043 385 1039 369 1042 378 b 1060 456 1046 404 1051 428 b 1124 647 1076 518 1099 582 b 1132 667 1128 658 1131 665 b 1140 674 1136 671 1139 672 m 1371 672 b 1374 671 1372 672 1374 672 l 1374 669 b 1363 643 1374 668 1369 660 l 1363 642 b 1365 640 1363 640 1364 640 l 1372 640 b 1443 631 1396 640 1419 638 b 1457 619 1453 626 1457 622 b 1456 617 1457 618 1457 617 b 1436 624 1453 618 1447 621 b 1385 629 1419 626 1403 629 b 1363 628 1378 629 1369 628 l 1360 628 b 1354 625 1357 628 1356 628 b 1329 560 1343 600 1335 578 b 1325 549 1326 553 1325 549 b 1329 544 1326 546 1328 544 b 1339 551 1331 544 1333 546 b 1363 578 1349 561 1357 569 b 1381 590 1365 583 1372 588 b 1365 561 1378 585 1374 575 b 1360 546 1363 556 1361 551 b 1368 554 1363 546 1365 549 b 1397 593 1385 576 1394 589 b 1406 597 1401 596 1403 597 b 1413 593 1410 596 1413 594 b 1376 507 1400 564 1388 536 b 1365 460 1369 483 1365 468 b 1367 450 1365 456 1367 451 b 1354 463 1361 451 1357 457 b 1353 472 1353 467 1353 469 b 1369 524 1353 481 1358 499 b 1382 554 1375 538 1379 549 b 1361 526 1374 543 1367 533 b 1354 522 1358 524 1356 522 b 1344 536 1351 522 1347 528 l 1344 539 b 1325 522 1335 528 1329 522 b 1313 538 1322 522 1318 528 b 1311 549 1311 542 1311 544 b 1321 583 1311 556 1314 567 b 1335 624 1326 596 1331 610 b 1335 625 1335 625 1335 625 l 1333 625 b 1311 617 1325 625 1318 622 b 1301 604 1307 613 1304 608 l 1301 603 b 1292 613 1297 604 1294 607 b 1292 617 1292 614 1292 615 b 1322 636 1292 626 1303 633 b 1340 640 1335 638 1340 639 b 1343 647 1342 640 1342 643 b 1349 663 1346 654 1347 660 b 1356 668 1349 665 1351 667 b 1371 672 1358 668 1363 669 m 596 619 b 618 603 608 619 615 614 b 619 599 619 601 619 600 l 619 594 b 607 544 617 575 613 558 b 521 454 590 504 563 475 b 490 442 503 446 492 442 b 457 433 483 439 472 436 b 439 431 444 432 439 431 b 419 385 436 426 431 411 b 385 272 406 350 394 313 b 371 178 376 233 371 203 b 428 57 371 128 390 88 b 515 26 456 38 485 26 l 517 26 b 731 71 564 26 636 42 l 882 118 b 1024 157 928 133 975 146 b 1133 171 1065 167 1101 171 l 1135 171 b 1257 147 1181 171 1221 163 b 1292 128 1268 143 1279 136 b 1315 107 1299 122 1307 115 b 1338 72 1329 92 1338 81 l 1338 71 l 1336 71 b 1149 125 1296 107 1233 125 l 1147 125 b 829 60 1063 125 957 103 b 685 13 768 40 719 24 b 525 -17 618 -7 565 -17 l 517 -17 b 379 40 458 -17 413 1 b 333 178 349 76 333 122 b 358 329 333 224 342 274 b 390 407 369 358 379 385 b 403 432 399 422 403 431 b 347 433 401 433 383 433 b 208 394 278 433 231 421 b 199 379 206 390 203 386 b 193 408 194 390 193 400 b 232 463 193 435 206 453 b 308 471 247 468 272 471 b 407 467 326 471 358 469 b 419 467 408 467 413 467 b 429 476 422 467 426 469 b 472 535 442 494 456 514 b 525 588 494 561 513 578 b 554 607 536 596 546 603 b 596 619 569 615 583 619 m 1481 600 b 1493 578 1488 600 1492 593 b 1494 569 1494 575 1494 572 b 1479 535 1494 557 1490 546 b 1469 531 1476 532 1472 531 l 1465 531 b 1451 540 1461 531 1456 533 b 1451 546 1451 543 1451 544 b 1463 586 1451 560 1456 574 b 1468 589 1465 588 1467 589 l 1469 589 b 1478 578 1475 589 1478 585 l 1478 575 b 1461 546 1478 564 1472 554 b 1461 543 1461 544 1461 544 b 1464 539 1463 540 1463 539 l 1465 539 b 1479 553 1469 540 1475 544 b 1483 575 1482 560 1483 567 b 1481 599 1483 581 1483 589 b 1481 600 1481 600 1481 600 m 1424 593 b 1432 588 1429 592 1432 590 b 1425 575 1432 588 1429 582 b 1410 539 1419 564 1414 553 b 1424 565 1411 540 1415 549 l 1438 590 b 1439 590 1439 590 1439 590 b 1447 567 1444 590 1447 583 l 1447 563 b 1440 533 1447 549 1444 539 b 1433 531 1438 532 1435 531 l 1432 531 b 1421 536 1429 531 1425 533 b 1419 536 1421 536 1421 536 b 1414 525 1419 536 1418 532 b 1382 457 1399 496 1388 474 b 1379 453 1381 454 1379 453 l 1378 453 b 1372 463 1374 456 1372 460 l 1372 464 b 1407 564 1374 475 1385 508 b 1419 592 1414 579 1418 589 b 1422 593 1421 593 1422 593 m 464 468 b 533 494 486 468 508 478 b 563 524 546 506 556 515 b 576 549 568 533 572 542 b 586 582 582 564 586 575 b 588 589 586 582 588 585 b 521 542 568 578 546 561 b 476 496 501 522 486 507 b 457 469 468 486 463 478 l 457 468 m 1469 575 b 1464 560 1467 569 1464 564 b 1464 558 1464 560 1464 558 b 1471 575 1468 564 1471 569 l 1469 575 m 1436 568 b 1422 540 1435 564 1431 556 b 1435 546 1429 540 1433 543 b 1438 558 1438 550 1438 554 l 1438 564 b 1438 568 1438 567 1438 568 l 1436 568 m 746 519 b 768 501 756 519 764 513 b 776 476 772 494 775 486 b 781 469 778 472 779 469 b 822 481 792 472 806 476 b 842 489 835 486 840 488 b 853 497 843 489 847 492 b 865 504 857 501 861 504 b 879 492 871 504 876 500 l 879 488 b 872 460 879 485 878 475 b 826 229 842 356 826 279 b 844 147 826 201 832 174 l 844 146 b 842 144 843 144 843 144 l 839 144 b 796 165 822 144 807 151 b 783 199 788 176 783 188 l 783 203 b 813 356 783 219 793 271 b 835 449 822 397 829 428 b 842 461 836 453 839 457 b 842 461 842 461 842 461 b 783 443 826 456 807 449 b 782 440 782 443 782 443 b 782 417 782 435 782 426 b 767 292 782 382 776 340 b 725 218 753 243 739 218 b 711 229 721 218 717 222 b 700 239 707 235 703 238 b 685 257 693 242 689 247 b 681 315 682 267 681 286 l 681 321 b 644 224 667 271 656 239 b 635 215 640 218 638 215 l 633 215 b 624 224 631 215 628 218 b 614 228 622 225 619 226 b 601 244 608 231 604 236 b 599 269 599 253 599 261 b 613 351 599 293 603 321 b 636 400 619 369 626 386 b 672 432 650 422 663 432 b 693 406 682 432 689 424 b 708 428 697 414 703 422 b 722 433 713 432 717 433 b 736 429 726 433 732 432 l 738 429 l 738 428 b 729 415 738 428 735 424 b 717 385 725 407 721 397 b 704 311 708 358 704 333 l 704 304 b 713 261 704 286 707 272 b 717 256 714 257 715 256 b 732 288 721 258 726 269 b 753 406 746 331 753 371 l 753 415 b 749 449 753 424 751 435 b 743 453 749 450 746 451 b 715 489 725 460 715 472 b 735 517 715 501 722 511 b 746 519 738 518 742 519 m 1331 508 b 1338 503 1333 508 1336 507 b 1338 493 1338 500 1338 497 b 1318 408 1338 481 1331 453 b 1294 272 1303 354 1294 308 b 1317 196 1294 238 1303 213 b 1342 186 1325 189 1333 186 l 1344 186 b 1383 203 1356 186 1368 192 b 1397 217 1389 207 1394 213 b 1432 349 1421 247 1432 292 l 1432 354 b 1426 425 1432 379 1431 403 b 1418 438 1424 433 1421 438 b 1399 407 1414 438 1407 428 b 1375 308 1383 371 1375 338 b 1385 268 1375 292 1378 279 b 1388 265 1386 267 1386 265 b 1374 261 1382 263 1378 261 b 1349 300 1361 261 1353 274 b 1342 317 1346 307 1344 313 b 1338 339 1339 324 1338 332 l 1338 340 b 1360 404 1338 357 1344 378 b 1379 429 1364 411 1371 419 b 1403 450 1390 440 1399 449 b 1431 458 1413 456 1421 458 b 1471 438 1449 458 1461 451 b 1482 389 1479 425 1482 408 l 1482 383 b 1467 293 1482 358 1478 329 b 1444 240 1460 274 1453 256 b 1356 172 1418 194 1389 172 b 1293 201 1332 172 1313 182 b 1269 256 1282 215 1274 233 b 1264 303 1265 272 1264 288 b 1274 360 1264 322 1268 340 b 1274 364 1274 363 1274 364 l 1274 365 b 1231 265 1256 317 1242 283 b 1219 257 1228 260 1224 257 b 1210 267 1215 257 1213 261 b 1197 276 1207 271 1203 275 b 1189 282 1194 276 1192 278 b 1183 306 1185 289 1183 297 l 1183 308 b 1196 379 1183 324 1188 347 b 1221 440 1203 404 1213 424 b 1242 472 1228 454 1235 464 b 1271 490 1253 483 1263 490 b 1293 460 1281 490 1288 481 b 1293 460 1293 460 1293 460 b 1310 492 1303 481 1307 492 b 1317 497 1310 493 1313 494 b 1329 508 1322 504 1326 508 m 939 354 b 956 365 943 356 949 360 b 974 392 964 374 969 382 b 992 432 981 401 986 415 b 1004 478 996 443 999 458 b 988 456 999 474 993 465 b 960 407 978 440 969 424 b 938 354 946 378 938 360 m 1215 306 b 1217 294 1215 303 1215 299 b 1250 365 1224 306 1233 329 l 1283 442 l 1283 443 b 1275 465 1281 453 1279 461 l 1274 467 b 1261 450 1272 467 1267 461 b 1232 388 1250 432 1240 411 b 1218 336 1226 374 1222 357 b 1215 310 1217 322 1215 314 m 593 447 b 613 443 594 447 601 446 b 618 438 615 442 618 440 b 608 404 617 433 614 422 b 572 265 596 367 583 319 b 565 194 568 240 565 217 b 571 167 565 181 567 171 b 576 165 572 165 574 165 b 611 175 579 165 592 168 b 693 193 649 188 675 193 b 746 172 717 193 735 186 l 746 171 b 699 165 739 171 724 169 b 640 149 676 161 657 156 b 597 131 628 144 613 139 b 583 128 593 129 588 128 b 558 146 574 128 565 133 b 547 157 554 150 550 154 b 532 201 538 165 532 181 b 549 293 532 217 538 247 b 553 314 551 306 553 313 l 553 315 l 551 315 b 513 190 538 278 525 236 b 499 106 504 153 499 124 l 499 101 l 499 100 b 497 97 499 97 499 97 l 496 97 b 482 104 492 97 488 100 b 463 181 469 117 463 143 b 476 288 463 210 467 244 l 476 289 b 446 203 463 253 451 224 b 442 192 444 196 443 192 b 442 192 442 192 442 192 b 422 199 436 192 429 194 b 406 235 411 206 406 218 l 406 239 b 435 358 406 263 415 301 b 461 410 447 392 457 410 b 483 406 474 408 482 407 b 486 401 486 404 486 403 b 475 375 486 400 482 390 b 438 253 450 314 438 274 l 438 251 b 514 411 468 322 493 376 b 529 426 521 421 525 426 l 531 426 b 546 419 535 425 539 424 b 549 417 547 418 549 418 b 536 388 549 414 544 406 b 510 306 526 365 518 339 b 494 211 500 267 494 235 b 496 210 496 210 496 210 b 568 417 522 301 547 369 b 586 446 576 432 582 440 b 593 447 589 447 590 447 m 356 415 b 363 406 360 415 361 413 l 363 401 b 338 328 363 392 354 367 b 310 194 318 278 310 233 l 310 186 b 336 65 310 139 318 100 b 338 63 338 64 338 64 b 326 60 338 61 333 60 b 283 83 308 60 294 68 b 271 131 275 97 271 113 l 271 138 b 279 239 271 157 274 190 l 279 240 b 269 222 278 240 275 233 b 235 156 256 194 244 172 b 221 144 231 147 225 144 b 211 154 217 144 214 147 b 199 164 208 160 204 163 b 192 169 196 165 193 167 b 188 189 189 175 188 181 l 188 193 b 204 264 188 207 193 232 b 232 322 213 286 221 306 b 256 354 238 333 246 344 b 286 372 268 367 278 372 l 288 372 b 306 349 296 372 303 364 b 328 393 318 375 325 390 b 344 408 333 400 339 406 b 354 415 350 414 353 415 l 356 415 m 626 265 b 632 246 628 253 629 246 l 633 246 b 643 269 635 246 639 254 b 675 365 650 289 661 321 b 679 381 678 372 679 376 b 672 400 679 386 676 392 l 669 400 b 653 375 665 399 660 390 b 636 324 647 364 642 347 b 628 272 633 313 631 296 b 626 265 626 268 626 265 m 219 189 b 219 182 219 185 219 182 b 231 199 224 186 226 192 b 293 318 256 246 275 285 b 296 328 294 321 296 325 b 290 347 296 333 293 339 b 289 349 289 349 289 349 b 276 336 286 349 282 344 b 235 256 261 314 246 288 b 224 218 228 235 224 222 b 219 189 221 210 219 200 m 581 -115 l 581 -239 b 579 -239 581 -239 581 -239 l 569 -239 b 568 -239 568 -239 568 -239 l 568 -119 b 581 -114 568 -118 572 -117 m 860 -115 l 860 -185 l 894 -154 l 904 -154 b 874 -182 904 -154 893 -164 l 874 -183 l 913 -239 l 899 -239 b 865 -190 882 -217 871 -201 l 864 -190 l 860 -194 l 860 -239 b 860 -239 860 -239 860 -239 l 849 -239 b 849 -239 849 -239 849 -239 l 849 -119 b 860 -114 849 -118 853 -117 m 936 -115 l 936 -160 b 953 -154 940 -156 946 -154 l 956 -154 b 979 -172 968 -154 975 -160 b 982 -189 981 -178 982 -183 l 982 -239 b 982 -239 982 -239 982 -239 l 969 -239 b 969 -239 969 -239 969 -239 l 969 -192 b 961 -162 969 -176 967 -165 b 953 -160 960 -161 956 -160 b 936 -175 944 -160 939 -165 b 936 -179 936 -176 936 -178 l 936 -239 b 935 -239 936 -239 936 -239 l 924 -239 b 924 -239 924 -239 924 -239 l 924 -119 b 936 -114 924 -118 928 -117 m 1086 -132 l 1086 -154 l 1101 -154 b 1101 -154 1101 -154 1101 -154 l 1101 -160 b 1101 -160 1101 -160 1101 -160 l 1086 -160 l 1086 -203 b 1092 -231 1086 -219 1088 -229 b 1097 -232 1093 -232 1096 -232 l 1100 -232 b 1113 -226 1103 -232 1107 -231 b 1110 -239 1111 -235 1110 -239 l 1103 -239 b 1081 -232 1090 -239 1082 -236 b 1075 -201 1076 -226 1075 -217 l 1075 -160 l 1063 -160 b 1063 -160 1063 -160 1063 -160 l 1063 -154 b 1063 -154 1063 -154 1063 -154 l 1075 -154 l 1075 -137 b 1086 -132 1075 -137 1078 -135 m 1226 -153 b 1251 -168 1239 -153 1247 -158 b 1254 -194 1254 -174 1254 -182 l 1254 -199 b 1242 -236 1254 -219 1250 -232 b 1226 -240 1238 -239 1232 -240 b 1208 -235 1219 -240 1214 -237 l 1208 -275 b 1197 -281 1208 -275 1204 -276 l 1196 -281 l 1196 -171 b 1194 -160 1196 -167 1196 -162 b 1203 -156 1194 -158 1199 -157 l 1207 -160 b 1226 -153 1211 -156 1218 -153 m 607 -153 l 607 -158 b 622 -154 611 -156 617 -154 l 626 -154 b 647 -164 636 -154 643 -157 b 647 -165 647 -164 647 -164 b 656 -156 647 -162 651 -160 b 667 -154 660 -154 664 -154 l 671 -154 b 693 -168 682 -154 689 -158 b 696 -192 694 -175 696 -182 l 696 -239 b 696 -239 696 -239 696 -239 l 685 -239 b 683 -239 685 -239 683 -239 l 683 -194 b 679 -164 683 -178 682 -168 b 668 -160 676 -161 672 -160 b 651 -179 658 -160 653 -167 l 651 -239 b 651 -239 651 -239 651 -239 l 640 -239 b 639 -239 639 -239 639 -239 l 639 -203 b 635 -165 639 -181 638 -168 b 624 -160 633 -162 629 -160 b 608 -174 615 -160 610 -165 b 607 -179 607 -175 607 -178 l 607 -239 b 607 -239 607 -239 607 -239 l 596 -239 b 594 -239 594 -239 594 -239 l 594 -158 b 607 -153 594 -157 599 -156 m 794 -153 l 794 -164 b 808 -154 796 -160 800 -157 b 814 -154 810 -154 813 -154 l 831 -154 b 836 -168 832 -154 833 -158 b 815 -160 829 -162 822 -160 b 796 -182 806 -160 800 -168 b 794 -211 794 -190 794 -200 l 794 -239 b 793 -239 794 -239 794 -239 l 782 -239 b 782 -239 782 -239 782 -239 l 782 -158 b 794 -153 782 -157 786 -156 m 1133 -153 l 1133 -196 b 1140 -229 1133 -214 1136 -225 b 1149 -232 1142 -231 1144 -232 l 1151 -232 b 1168 -217 1160 -232 1165 -226 b 1168 -211 1168 -214 1168 -212 l 1168 -158 b 1179 -153 1168 -157 1172 -156 l 1179 -237 b 1161 -276 1179 -258 1174 -272 b 1151 -279 1157 -279 1154 -279 l 1133 -279 b 1129 -265 1133 -279 1132 -275 b 1147 -272 1136 -269 1143 -272 l 1150 -272 b 1167 -253 1158 -272 1164 -267 b 1168 -236 1168 -247 1168 -242 l 1168 -233 b 1150 -239 1163 -237 1157 -239 l 1149 -239 b 1125 -224 1138 -239 1129 -235 b 1121 -200 1122 -218 1121 -210 l 1121 -158 b 1133 -153 1122 -157 1126 -156 m 1517 -153 l 1517 -158 b 1532 -154 1521 -156 1526 -154 l 1536 -154 b 1557 -162 1546 -154 1551 -157 b 1557 -165 1557 -164 1557 -164 b 1564 -157 1557 -162 1560 -160 b 1576 -154 1568 -154 1572 -154 l 1581 -154 b 1604 -171 1593 -154 1600 -160 b 1606 -196 1606 -176 1606 -185 l 1606 -239 b 1606 -239 1606 -239 1606 -239 l 1594 -239 b 1594 -239 1594 -239 1594 -239 l 1594 -203 b 1589 -165 1594 -181 1592 -168 b 1578 -160 1588 -162 1583 -160 b 1563 -174 1569 -160 1565 -165 b 1561 -183 1561 -176 1561 -181 l 1561 -239 b 1561 -239 1561 -239 1561 -239 l 1550 -239 b 1549 -239 1549 -239 1549 -239 l 1549 -192 b 1543 -164 1549 -176 1547 -167 b 1533 -160 1540 -161 1538 -160 b 1518 -172 1525 -160 1521 -164 b 1517 -181 1517 -175 1517 -178 l 1517 -239 b 1517 -239 1517 -239 1517 -239 l 1506 -239 b 1504 -239 1504 -239 1504 -239 l 1504 -158 b 1517 -153 1504 -157 1508 -156 m 1299 -153 b 1322 -168 1310 -153 1318 -158 b 1326 -190 1325 -174 1326 -182 l 1326 -193 b 1313 -196 1326 -193 1322 -194 b 1281 -203 1313 -196 1301 -199 l 1281 -204 b 1290 -231 1281 -219 1283 -228 b 1300 -232 1293 -232 1296 -232 l 1303 -232 b 1322 -225 1308 -232 1315 -229 b 1318 -239 1319 -233 1318 -239 l 1297 -239 b 1268 -204 1278 -239 1268 -228 l 1268 -189 b 1288 -154 1268 -171 1275 -158 b 1299 -153 1292 -153 1294 -153 m 1461 -153 b 1489 -176 1476 -153 1485 -161 b 1490 -194 1490 -182 1490 -187 l 1490 -197 b 1461 -240 1490 -225 1481 -240 b 1431 -197 1440 -240 1431 -225 b 1447 -156 1431 -175 1436 -161 b 1461 -153 1450 -154 1456 -153 m 121 -154 b 133 -187 121 -154 125 -165 l 144 -218 l 158 -179 l 149 -154 l 150 -154 l 161 -154 b 185 -218 161 -154 169 -175 b 208 -154 192 -199 200 -176 l 215 -154 b 185 -239 215 -157 204 -185 l 179 -239 b 161 -189 179 -239 174 -222 b 144 -239 161 -192 156 -208 l 139 -239 b 136 -232 138 -239 138 -236 b 108 -154 118 -182 108 -156 m 240 -154 b 246 -168 240 -154 242 -158 b 263 -218 257 -200 263 -217 b 275 -185 263 -218 267 -207 b 278 -179 275 -185 276 -183 b 268 -154 271 -162 268 -154 l 281 -154 b 290 -181 282 -156 285 -164 b 304 -218 292 -183 296 -196 b 328 -154 311 -197 319 -175 l 333 -154 b 335 -154 335 -154 335 -154 l 304 -239 l 299 -239 b 290 -215 299 -239 296 -231 b 281 -190 285 -200 282 -190 b 264 -239 269 -221 264 -237 l 258 -239 b 250 -217 257 -237 254 -231 b 228 -154 249 -217 242 -194 m 360 -154 b 369 -185 360 -154 363 -164 b 382 -218 371 -186 375 -197 l 396 -179 l 388 -154 l 389 -154 l 400 -154 b 406 -168 400 -154 403 -158 b 424 -218 407 -171 413 -187 b 432 -194 424 -218 426 -211 b 447 -154 442 -169 446 -156 l 454 -154 b 424 -239 454 -154 444 -183 l 418 -239 b 414 -228 418 -239 417 -235 b 400 -189 414 -228 408 -215 b 382 -239 389 -222 383 -239 l 376 -239 b 374 -231 376 -239 376 -236 b 347 -154 357 -182 347 -156 m 522 -154 b 550 -176 538 -154 547 -161 b 550 -192 550 -181 550 -186 l 550 -226 b 554 -239 550 -232 551 -236 l 553 -239 b 543 -239 549 -239 544 -239 b 539 -232 542 -237 540 -235 b 517 -240 533 -237 526 -240 b 494 -222 506 -240 499 -233 b 493 -214 494 -219 493 -217 l 493 -210 b 511 -181 493 -194 500 -186 b 538 -176 519 -178 528 -176 b 533 -164 538 -172 536 -168 b 519 -160 531 -161 525 -160 b 500 -167 511 -160 504 -162 b 497 -168 499 -167 499 -168 b 503 -154 500 -158 501 -154 m 739 -154 b 764 -168 751 -154 758 -158 b 767 -190 765 -174 767 -182 l 767 -225 b 769 -239 767 -232 768 -236 b 760 -239 764 -239 761 -239 b 756 -231 758 -239 757 -236 b 733 -240 750 -236 742 -240 b 711 -224 722 -240 715 -235 b 710 -212 710 -219 710 -215 l 710 -211 b 726 -182 710 -196 715 -186 b 754 -176 733 -178 743 -176 b 750 -164 754 -172 753 -168 b 736 -160 747 -161 743 -160 b 715 -167 728 -160 721 -162 b 714 -168 715 -168 714 -168 b 718 -154 717 -158 718 -154 m 1025 -154 b 1050 -172 1038 -154 1046 -160 b 1053 -199 1053 -176 1053 -186 l 1053 -229 b 1056 -239 1053 -232 1054 -235 b 1044 -239 1050 -239 1046 -239 b 1042 -231 1042 -236 1042 -233 b 1019 -240 1035 -236 1028 -240 b 997 -224 1008 -240 1001 -235 b 996 -211 996 -221 996 -217 b 1011 -182 996 -197 1000 -187 b 1039 -176 1018 -179 1028 -176 l 1040 -176 b 1036 -165 1039 -171 1038 -167 b 1022 -160 1033 -161 1028 -160 b 1000 -168 1014 -160 1007 -162 b 1000 -168 1000 -168 1000 -168 b 1004 -154 1003 -158 1004 -154 m 1415 -154 b 1419 -168 1417 -154 1418 -158 b 1400 -160 1413 -162 1406 -160 b 1382 -167 1390 -160 1385 -162 b 1379 -197 1381 -169 1379 -181 b 1385 -228 1379 -215 1381 -226 b 1397 -232 1386 -231 1390 -232 l 1401 -232 b 1419 -225 1407 -232 1413 -229 b 1415 -239 1418 -235 1417 -239 l 1396 -239 b 1369 -222 1382 -239 1374 -233 b 1365 -196 1367 -215 1365 -207 b 1381 -157 1365 -175 1371 -162 b 1394 -154 1385 -154 1389 -154 m 1208 -214 b 1218 -232 1208 -222 1211 -228 b 1226 -233 1221 -232 1224 -233 b 1239 -225 1232 -233 1238 -231 b 1243 -192 1242 -218 1243 -207 b 1236 -162 1243 -176 1240 -167 b 1226 -160 1233 -161 1229 -160 l 1225 -160 b 1210 -172 1217 -160 1211 -164 b 1208 -179 1208 -175 1208 -178 m 1281 -194 l 1314 -189 l 1314 -187 b 1303 -161 1314 -174 1311 -165 b 1297 -160 1300 -160 1299 -160 b 1283 -169 1290 -160 1286 -162 b 1281 -192 1281 -175 1281 -183 m 1443 -199 b 1451 -231 1443 -217 1446 -226 b 1461 -233 1454 -232 1457 -233 b 1475 -222 1468 -233 1472 -229 b 1478 -199 1476 -217 1478 -208 l 1478 -194 b 1469 -162 1478 -176 1475 -167 b 1461 -160 1467 -161 1464 -160 b 1447 -171 1454 -160 1449 -162 b 1443 -194 1444 -175 1443 -183 m 506 -210 b 521 -231 506 -224 510 -231 b 539 -221 528 -231 535 -228 l 539 -189 b 539 -183 539 -187 539 -186 b 510 -192 525 -183 515 -186 b 506 -210 507 -197 506 -203 m 722 -211 b 733 -231 722 -222 725 -229 l 736 -231 b 754 -221 744 -231 751 -228 l 754 -185 l 754 -183 b 726 -193 740 -183 731 -187 b 722 -208 724 -197 722 -203 m 1007 -211 b 1022 -231 1007 -224 1013 -231 b 1040 -221 1031 -231 1036 -228 l 1040 -183 b 1010 -196 1025 -183 1014 -187 b 1007 -211 1008 -200 1007 -204 m 475 -224 b 482 -231 478 -224 481 -226 l 482 -232 b 476 -239 482 -235 479 -237 b 474 -239 476 -239 475 -239 b 467 -233 471 -239 468 -237 l 467 -231 b 474 -224 467 -228 468 -225 l 475 -224 m 1347 -224 b 1354 -229 1350 -224 1351 -225 b 1354 -232 1354 -231 1354 -232 b 1349 -239 1354 -235 1353 -237 l 1346 -239 b 1339 -233 1343 -239 1340 -237 b 1339 -232 1339 -232 1339 -232 b 1346 -224 1339 -228 1342 -225 l 1347 -224 "},"%":{"ha":1529,"x_min":0,"x_max":0,"o":"m 1493 333 l 1493 182 l 1311 -1 l 1068 -1 l 886 182 l 886 333 l 1068 515 l 1311 515 m 1250 333 l 1129 333 l 1129 182 l 1250 182 m 643 638 l 460 454 l 217 454 l 35 638 l 35 789 l 217 971 l 278 971 l 460 971 l 643 789 m 400 789 l 278 789 l 278 638 l 400 638 m 1007 971 l 764 -1 l 521 -1 l 764 971 "},"&":{"ha":1685,"x_min":0,"x_max":0,"o":"m 522 925 b 560 896 542 925 554 915 b 565 850 564 883 565 868 l 565 840 b 539 769 565 801 557 778 b 521 765 535 767 528 765 b 482 801 501 765 488 778 b 478 842 479 814 478 828 l 478 849 b 501 919 478 888 486 911 b 522 925 507 924 514 925 m 1304 925 b 1343 893 1325 925 1338 914 b 1349 844 1347 882 1349 865 b 1324 769 1349 803 1340 778 b 1304 765 1318 767 1313 765 b 1265 799 1285 765 1272 776 b 1261 846 1263 811 1261 826 b 1286 921 1261 888 1269 913 b 1304 925 1290 924 1297 925 m 147 922 b 186 901 168 922 181 915 b 189 879 188 896 189 888 b 171 842 189 860 183 847 b 143 838 165 839 156 838 l 115 838 l 115 768 b 115 768 115 768 115 768 l 101 768 b 101 768 101 768 101 768 l 101 922 b 101 922 101 922 101 922 m 272 922 b 275 914 272 922 274 919 l 221 914 b 221 914 221 914 221 914 l 221 854 l 264 854 b 264 853 264 854 264 854 l 264 846 b 264 844 264 846 264 844 l 221 844 l 221 776 l 279 776 b 276 768 278 771 276 768 l 206 768 b 206 768 206 768 206 768 l 206 922 b 206 922 206 922 206 922 m 343 922 b 381 901 363 922 376 915 b 383 882 383 896 383 889 b 365 844 383 861 378 849 b 361 843 364 844 363 843 b 390 768 369 833 379 808 l 389 768 l 375 768 b 369 788 374 768 372 775 b 346 840 360 824 351 840 l 313 840 l 313 768 b 313 768 313 768 313 768 l 299 768 b 299 768 299 768 299 768 l 299 922 b 299 922 299 922 299 922 m 454 922 b 458 908 456 922 457 918 b 458 907 458 908 458 908 b 443 914 451 911 447 914 b 428 897 433 914 428 908 l 428 894 b 443 850 428 883 433 868 b 458 803 453 832 458 817 b 439 771 458 788 451 776 b 425 768 435 768 431 768 l 414 768 b 408 785 413 768 411 774 l 410 785 b 424 776 415 779 419 776 l 425 776 b 443 794 435 776 440 782 b 443 801 443 796 443 799 b 425 850 443 813 438 829 b 413 889 417 867 413 879 l 413 893 b 431 921 413 907 419 915 b 440 922 435 922 438 922 m 599 922 b 656 797 601 919 619 878 l 657 797 l 657 922 b 657 922 657 922 657 922 l 665 922 b 665 922 665 922 665 922 l 665 768 b 665 768 665 768 665 768 l 654 768 b 607 868 653 769 636 804 b 593 899 607 871 601 881 l 593 768 b 593 768 593 768 593 768 l 586 768 b 585 768 585 768 585 768 l 585 922 b 586 922 585 922 585 922 m 732 922 b 738 903 733 922 735 915 b 778 768 764 818 776 772 l 763 768 b 758 779 763 768 761 772 b 749 814 758 782 754 793 l 703 814 b 689 768 694 786 690 771 l 681 768 b 681 768 681 768 681 768 b 725 922 708 867 724 918 l 732 922 m 811 922 b 811 922 811 922 811 922 l 811 776 l 869 776 b 868 768 869 771 868 768 l 797 768 b 797 768 797 768 797 768 l 797 922 b 797 922 797 922 797 922 m 958 922 b 958 922 958 922 958 922 l 958 836 b 967 783 958 807 961 789 b 988 774 969 778 976 774 b 1011 788 999 774 1007 779 b 1015 833 1014 796 1015 810 l 1015 922 b 1015 922 1015 922 1015 922 l 1025 922 b 1025 922 1025 922 1025 922 l 1025 854 b 1019 788 1025 817 1022 794 b 1006 769 1015 779 1011 772 b 986 765 1000 767 994 765 b 951 785 969 765 957 772 b 943 844 946 796 943 815 l 943 922 b 943 922 943 922 943 922 m 1088 922 b 1092 908 1088 922 1089 918 b 1092 907 1092 908 1092 908 b 1075 914 1085 911 1079 914 b 1060 896 1065 914 1060 908 b 1075 850 1060 883 1065 868 b 1090 803 1085 832 1090 815 b 1071 771 1090 788 1085 776 b 1057 768 1067 768 1063 768 l 1046 768 b 1042 785 1046 768 1044 774 b 1056 776 1047 779 1053 776 l 1057 776 b 1075 797 1068 776 1074 783 l 1075 800 b 1075 801 1075 800 1075 800 b 1075 801 1075 801 1075 801 l 1075 803 b 1058 849 1075 814 1069 829 b 1044 892 1050 865 1044 879 b 1064 921 1044 907 1051 917 b 1074 922 1068 922 1071 922 m 1181 922 b 1183 914 1182 922 1182 919 l 1129 914 l 1129 854 l 1172 854 b 1174 853 1172 854 1174 854 l 1174 846 b 1172 844 1174 846 1172 844 l 1129 844 l 1129 776 l 1188 776 b 1188 776 1188 776 1188 776 b 1186 768 1186 771 1186 768 l 1115 768 b 1114 768 1114 768 1114 768 l 1114 922 b 1115 922 1114 922 1115 922 m 1382 922 b 1389 907 1382 922 1385 917 b 1439 797 1392 901 1408 865 l 1439 922 b 1440 922 1439 922 1440 922 l 1447 922 b 1447 922 1447 922 1447 922 l 1447 768 b 1447 768 1447 768 1447 768 l 1436 768 b 1426 789 1436 768 1432 775 b 1376 899 1425 792 1408 828 l 1376 768 b 1375 768 1376 768 1376 768 l 1368 768 b 1368 768 1368 768 1368 768 l 1368 922 b 1368 922 1368 922 1368 922 m 1482 922 b 1482 922 1482 922 1482 922 l 1482 776 l 1540 776 b 1538 768 1539 771 1539 768 l 1468 768 b 1467 768 1468 768 1467 768 l 1467 922 b 1468 922 1468 922 1468 922 m 1538 922 b 1571 857 1538 922 1549 900 b 1603 922 1574 861 1583 883 l 1613 922 b 1575 847 1613 922 1600 897 l 1575 768 b 1575 768 1575 768 1575 768 l 1561 768 b 1560 768 1560 768 1560 768 l 1560 846 b 1522 922 1560 847 1547 872 m 493 846 b 500 788 493 814 496 794 b 522 774 504 779 511 774 b 544 789 533 774 542 779 b 550 846 549 796 550 815 b 543 906 550 879 549 899 b 522 917 539 913 532 917 l 521 917 b 497 897 508 917 501 910 b 493 846 494 889 493 871 m 1276 839 b 1285 783 1276 808 1279 790 b 1306 774 1289 778 1296 774 b 1329 790 1317 774 1325 779 b 1333 839 1332 800 1333 815 l 1333 851 b 1324 908 1333 883 1331 903 b 1306 917 1319 914 1314 917 l 1304 917 b 1282 901 1293 917 1286 911 b 1276 851 1278 893 1276 876 m 115 846 l 146 846 b 168 856 157 846 165 849 b 172 879 171 860 172 868 b 161 911 172 897 168 907 b 140 914 160 913 151 914 l 115 914 m 313 850 l 336 850 b 361 857 350 850 358 851 b 367 882 365 860 367 868 b 358 910 367 897 364 907 b 336 914 354 913 347 914 l 313 914 m 725 893 b 706 822 725 893 719 869 l 746 822 b 725 893 733 867 726 890 m 1144 674 b 1151 664 1147 672 1150 668 b 1163 639 1154 654 1157 646 b 1164 636 1164 638 1164 636 b 1154 614 1164 635 1161 628 b 1092 449 1132 567 1111 511 b 1072 363 1085 424 1079 396 b 1069 333 1071 346 1069 336 b 1075 346 1071 333 1072 338 b 1129 450 1094 393 1113 428 b 1176 485 1146 474 1161 485 l 1178 485 b 1186 483 1183 485 1186 483 l 1194 483 b 1210 475 1203 483 1208 481 l 1210 474 b 1200 450 1210 471 1207 463 b 1163 311 1175 401 1163 354 l 1163 306 b 1204 229 1163 274 1176 249 b 1249 217 1218 221 1233 217 b 1233 201 1244 208 1240 204 b 1201 196 1224 197 1213 196 b 1128 249 1167 196 1142 214 b 1122 282 1125 258 1122 269 l 1122 286 b 1144 414 1122 318 1131 361 b 1149 429 1147 421 1147 426 b 1082 286 1119 372 1097 324 b 1058 222 1071 261 1064 240 b 1050 208 1056 214 1051 208 l 1049 208 b 1039 215 1047 208 1044 211 b 1026 225 1032 218 1028 221 b 1025 243 1025 226 1025 233 l 1025 246 b 1028 306 1025 261 1026 282 b 1000 285 1018 297 1010 290 b 964 271 986 275 975 271 b 940 285 956 271 947 275 b 922 308 935 292 928 300 l 921 311 b 917 301 919 311 918 308 b 897 211 911 285 904 254 b 886 186 893 194 889 186 b 874 193 885 186 881 188 b 857 210 865 197 860 203 b 854 233 854 214 854 222 l 854 243 b 894 463 854 293 867 367 b 942 608 907 506 922 554 b 939 610 942 610 940 610 l 910 610 b 769 590 853 610 806 603 b 735 568 757 585 746 578 l 728 558 b 719 544 724 554 722 549 b 713 567 717 550 714 557 b 711 576 711 571 711 575 b 760 633 711 606 728 624 b 794 639 775 638 788 639 b 896 644 821 643 856 644 b 942 647 922 644 939 646 b 965 658 953 647 960 650 b 969 660 968 660 969 660 l 971 660 b 982 642 976 660 979 654 b 990 625 985 635 988 629 b 993 622 992 625 992 624 b 983 601 993 621 990 614 b 924 440 961 553 942 500 b 904 358 917 418 910 390 b 901 335 903 349 901 340 b 971 489 925 406 949 456 b 1006 513 983 504 994 513 b 1032 492 1018 513 1026 506 b 1033 475 1033 486 1033 481 l 1033 474 b 1013 390 1033 451 1026 424 b 992 357 1007 381 1000 369 b 968 335 982 346 974 338 b 949 325 963 331 956 328 b 944 322 946 325 944 324 b 957 307 944 319 949 315 b 969 303 961 304 965 303 l 971 303 b 1007 326 981 303 992 310 b 1032 361 1018 339 1026 350 b 1043 385 1039 369 1042 378 b 1060 456 1046 404 1051 428 b 1124 647 1076 518 1099 582 b 1132 667 1128 658 1131 665 b 1140 674 1136 671 1139 672 m 1371 672 b 1374 671 1372 672 1374 672 l 1374 669 b 1363 643 1374 668 1369 660 l 1363 642 b 1365 640 1363 640 1364 640 l 1372 640 b 1443 631 1396 640 1419 638 b 1457 619 1453 626 1457 622 b 1456 617 1457 618 1457 617 b 1436 624 1453 618 1447 621 b 1385 629 1419 626 1403 629 b 1363 628 1378 629 1369 628 l 1360 628 b 1354 625 1357 628 1356 628 b 1329 560 1343 600 1335 578 b 1325 549 1326 553 1325 549 b 1329 544 1326 546 1328 544 b 1339 551 1331 544 1333 546 b 1363 578 1349 561 1357 569 b 1381 590 1365 583 1372 588 b 1365 561 1378 585 1374 575 b 1360 546 1363 556 1361 551 b 1368 554 1363 546 1365 549 b 1397 593 1385 576 1394 589 b 1406 597 1401 596 1403 597 b 1413 593 1410 596 1413 594 b 1376 507 1400 564 1388 536 b 1365 460 1369 483 1365 468 b 1367 450 1365 456 1367 451 b 1354 463 1361 451 1357 457 b 1353 472 1353 467 1353 469 b 1369 524 1353 481 1358 499 b 1382 554 1375 538 1379 549 b 1361 526 1374 543 1367 533 b 1354 522 1358 524 1356 522 b 1344 536 1351 522 1347 528 l 1344 539 b 1325 522 1335 528 1329 522 b 1313 538 1322 522 1318 528 b 1311 549 1311 542 1311 544 b 1321 583 1311 556 1314 567 b 1335 624 1326 596 1331 610 b 1335 625 1335 625 1335 625 l 1333 625 b 1311 617 1325 625 1318 622 b 1301 604 1307 613 1304 608 l 1301 603 b 1292 613 1297 604 1294 607 b 1292 617 1292 614 1292 615 b 1322 636 1292 626 1303 633 b 1340 640 1335 638 1340 639 b 1343 647 1342 640 1342 643 b 1349 663 1346 654 1347 660 b 1356 668 1349 665 1351 667 b 1371 672 1358 668 1363 669 m 596 619 b 618 603 608 619 615 614 b 619 599 619 601 619 600 l 619 594 b 607 544 617 575 613 558 b 521 454 590 504 563 475 b 490 442 503 446 492 442 b 457 433 483 439 472 436 b 439 431 444 432 439 431 b 419 385 436 426 431 411 b 385 272 406 350 394 313 b 371 178 376 233 371 203 b 428 57 371 128 390 88 b 515 26 456 38 485 26 l 517 26 b 731 71 564 26 636 42 l 882 118 b 1024 157 928 133 975 146 b 1133 171 1065 167 1101 171 l 1135 171 b 1257 147 1181 171 1221 163 b 1292 128 1268 143 1279 136 b 1315 107 1299 122 1307 115 b 1338 72 1329 92 1338 81 l 1338 71 l 1336 71 b 1149 125 1296 107 1233 125 l 1147 125 b 829 60 1063 125 957 103 b 685 13 768 40 719 24 b 525 -17 618 -7 565 -17 l 517 -17 b 379 40 458 -17 413 1 b 333 178 349 76 333 122 b 358 329 333 224 342 274 b 390 407 369 358 379 385 b 403 432 399 422 403 431 b 347 433 401 433 383 433 b 208 394 278 433 231 421 b 199 379 206 390 203 386 b 193 408 194 390 193 400 b 232 463 193 435 206 453 b 308 471 247 468 272 471 b 407 467 326 471 358 469 b 419 467 408 467 413 467 b 429 476 422 467 426 469 b 472 535 442 494 456 514 b 525 588 494 561 513 578 b 554 607 536 596 546 603 b 596 619 569 615 583 619 m 1481 600 b 1493 578 1488 600 1492 593 b 1494 569 1494 575 1494 572 b 1479 535 1494 557 1490 546 b 1469 531 1476 532 1472 531 l 1465 531 b 1451 540 1461 531 1456 533 b 1451 546 1451 543 1451 544 b 1463 586 1451 560 1456 574 b 1468 589 1465 588 1467 589 l 1469 589 b 1478 578 1475 589 1478 585 l 1478 575 b 1461 546 1478 564 1472 554 b 1461 543 1461 544 1461 544 b 1464 539 1463 540 1463 539 l 1465 539 b 1479 553 1469 540 1475 544 b 1483 575 1482 560 1483 567 b 1481 599 1483 581 1483 589 b 1481 600 1481 600 1481 600 m 1424 593 b 1432 588 1429 592 1432 590 b 1425 575 1432 588 1429 582 b 1410 539 1419 564 1414 553 b 1424 565 1411 540 1415 549 l 1438 590 b 1439 590 1439 590 1439 590 b 1447 567 1444 590 1447 583 l 1447 563 b 1440 533 1447 549 1444 539 b 1433 531 1438 532 1435 531 l 1432 531 b 1421 536 1429 531 1425 533 b 1419 536 1421 536 1421 536 b 1414 525 1419 536 1418 532 b 1382 457 1399 496 1388 474 b 1379 453 1381 454 1379 453 l 1378 453 b 1372 463 1374 456 1372 460 l 1372 464 b 1407 564 1374 475 1385 508 b 1419 592 1414 579 1418 589 b 1422 593 1421 593 1422 593 m 464 468 b 533 494 486 468 508 478 b 563 524 546 506 556 515 b 576 549 568 533 572 542 b 586 582 582 564 586 575 b 588 589 586 582 588 585 b 521 542 568 578 546 561 b 476 496 501 522 486 507 b 457 469 468 486 463 478 l 457 468 m 1469 575 b 1464 560 1467 569 1464 564 b 1464 558 1464 560 1464 558 b 1471 575 1468 564 1471 569 l 1469 575 m 1436 568 b 1422 540 1435 564 1431 556 b 1435 546 1429 540 1433 543 b 1438 558 1438 550 1438 554 l 1438 564 b 1438 568 1438 567 1438 568 l 1436 568 m 746 519 b 768 501 756 519 764 513 b 776 476 772 494 775 486 b 781 469 778 472 779 469 b 822 481 792 472 806 476 b 842 489 835 486 840 488 b 853 497 843 489 847 492 b 865 504 857 501 861 504 b 879 492 871 504 876 500 l 879 488 b 872 460 879 485 878 475 b 826 229 842 356 826 279 b 844 147 826 201 832 174 l 844 146 b 842 144 843 144 843 144 l 839 144 b 796 165 822 144 807 151 b 783 199 788 176 783 188 l 783 203 b 813 356 783 219 793 271 b 835 449 822 397 829 428 b 842 461 836 453 839 457 b 842 461 842 461 842 461 b 783 443 826 456 807 449 b 782 440 782 443 782 443 b 782 417 782 435 782 426 b 767 292 782 382 776 340 b 725 218 753 243 739 218 b 711 229 721 218 717 222 b 700 239 707 235 703 238 b 685 257 693 242 689 247 b 681 315 682 267 681 286 l 681 321 b 644 224 667 271 656 239 b 635 215 640 218 638 215 l 633 215 b 624 224 631 215 628 218 b 614 228 622 225 619 226 b 601 244 608 231 604 236 b 599 269 599 253 599 261 b 613 351 599 293 603 321 b 636 400 619 369 626 386 b 672 432 650 422 663 432 b 693 406 682 432 689 424 b 708 428 697 414 703 422 b 722 433 713 432 717 433 b 736 429 726 433 732 432 l 738 429 l 738 428 b 729 415 738 428 735 424 b 717 385 725 407 721 397 b 704 311 708 358 704 333 l 704 304 b 713 261 704 286 707 272 b 717 256 714 257 715 256 b 732 288 721 258 726 269 b 753 406 746 331 753 371 l 753 415 b 749 449 753 424 751 435 b 743 453 749 450 746 451 b 715 489 725 460 715 472 b 735 517 715 501 722 511 b 746 519 738 518 742 519 m 1331 508 b 1338 503 1333 508 1336 507 b 1338 493 1338 500 1338 497 b 1318 408 1338 481 1331 453 b 1294 272 1303 354 1294 308 b 1317 196 1294 238 1303 213 b 1342 186 1325 189 1333 186 l 1344 186 b 1383 203 1356 186 1368 192 b 1397 217 1389 207 1394 213 b 1432 349 1421 247 1432 292 l 1432 354 b 1426 425 1432 379 1431 403 b 1418 438 1424 433 1421 438 b 1399 407 1414 438 1407 428 b 1375 308 1383 371 1375 338 b 1385 268 1375 292 1378 279 b 1388 265 1386 267 1386 265 b 1374 261 1382 263 1378 261 b 1349 300 1361 261 1353 274 b 1342 317 1346 307 1344 313 b 1338 339 1339 324 1338 332 l 1338 340 b 1360 404 1338 357 1344 378 b 1379 429 1364 411 1371 419 b 1403 450 1390 440 1399 449 b 1431 458 1413 456 1421 458 b 1471 438 1449 458 1461 451 b 1482 389 1479 425 1482 408 l 1482 383 b 1467 293 1482 358 1478 329 b 1444 240 1460 274 1453 256 b 1356 172 1418 194 1389 172 b 1293 201 1332 172 1313 182 b 1269 256 1282 215 1274 233 b 1264 303 1265 272 1264 288 b 1274 360 1264 322 1268 340 b 1274 364 1274 363 1274 364 l 1274 365 b 1231 265 1256 317 1242 283 b 1219 257 1228 260 1224 257 b 1210 267 1215 257 1213 261 b 1197 276 1207 271 1203 275 b 1189 282 1194 276 1192 278 b 1183 306 1185 289 1183 297 l 1183 308 b 1196 379 1183 324 1188 347 b 1221 440 1203 404 1213 424 b 1242 472 1228 454 1235 464 b 1271 490 1253 483 1263 490 b 1293 460 1281 490 1288 481 b 1293 460 1293 460 1293 460 b 1310 492 1303 481 1307 492 b 1317 497 1310 493 1313 494 b 1329 508 1322 504 1326 508 m 939 354 b 956 365 943 356 949 360 b 974 392 964 374 969 382 b 992 432 981 401 986 415 b 1004 478 996 443 999 458 b 988 456 999 474 993 465 b 960 407 978 440 969 424 b 938 354 946 378 938 360 m 1215 306 b 1217 294 1215 303 1215 299 b 1250 365 1224 306 1233 329 l 1283 442 l 1283 443 b 1275 465 1281 453 1279 461 l 1274 467 b 1261 450 1272 467 1267 461 b 1232 388 1250 432 1240 411 b 1218 336 1226 374 1222 357 b 1215 310 1217 322 1215 314 m 593 447 b 613 443 594 447 601 446 b 618 438 615 442 618 440 b 608 404 617 433 614 422 b 572 265 596 367 583 319 b 565 194 568 240 565 217 b 571 167 565 181 567 171 b 576 165 572 165 574 165 b 611 175 579 165 592 168 b 693 193 649 188 675 193 b 746 172 717 193 735 186 l 746 171 b 699 165 739 171 724 169 b 640 149 676 161 657 156 b 597 131 628 144 613 139 b 583 128 593 129 588 128 b 558 146 574 128 565 133 b 547 157 554 150 550 154 b 532 201 538 165 532 181 b 549 293 532 217 538 247 b 553 314 551 306 553 313 l 553 315 l 551 315 b 513 190 538 278 525 236 b 499 106 504 153 499 124 l 499 101 l 499 100 b 497 97 499 97 499 97 l 496 97 b 482 104 492 97 488 100 b 463 181 469 117 463 143 b 476 288 463 210 467 244 l 476 289 b 446 203 463 253 451 224 b 442 192 444 196 443 192 b 442 192 442 192 442 192 b 422 199 436 192 429 194 b 406 235 411 206 406 218 l 406 239 b 435 358 406 263 415 301 b 461 410 447 392 457 410 b 483 406 474 408 482 407 b 486 401 486 404 486 403 b 475 375 486 400 482 390 b 438 253 450 314 438 274 l 438 251 b 514 411 468 322 493 376 b 529 426 521 421 525 426 l 531 426 b 546 419 535 425 539 424 b 549 417 547 418 549 418 b 536 388 549 414 544 406 b 510 306 526 365 518 339 b 494 211 500 267 494 235 b 496 210 496 210 496 210 b 568 417 522 301 547 369 b 586 446 576 432 582 440 b 593 447 589 447 590 447 m 356 415 b 363 406 360 415 361 413 l 363 401 b 338 328 363 392 354 367 b 310 194 318 278 310 233 l 310 186 b 336 65 310 139 318 100 b 338 63 338 64 338 64 b 326 60 338 61 333 60 b 283 83 308 60 294 68 b 271 131 275 97 271 113 l 271 138 b 279 239 271 157 274 190 l 279 240 b 269 222 278 240 275 233 b 235 156 256 194 244 172 b 221 144 231 147 225 144 b 211 154 217 144 214 147 b 199 164 208 160 204 163 b 192 169 196 165 193 167 b 188 189 189 175 188 181 l 188 193 b 204 264 188 207 193 232 b 232 322 213 286 221 306 b 256 354 238 333 246 344 b 286 372 268 367 278 372 l 288 372 b 306 349 296 372 303 364 b 328 393 318 375 325 390 b 344 408 333 400 339 406 b 354 415 350 414 353 415 l 356 415 m 626 265 b 632 246 628 253 629 246 l 633 246 b 643 269 635 246 639 254 b 675 365 650 289 661 321 b 679 381 678 372 679 376 b 672 400 679 386 676 392 l 669 400 b 653 375 665 399 660 390 b 636 324 647 364 642 347 b 628 272 633 313 631 296 b 626 265 626 268 626 265 m 219 189 b 219 182 219 185 219 182 b 231 199 224 186 226 192 b 293 318 256 246 275 285 b 296 328 294 321 296 325 b 290 347 296 333 293 339 b 289 349 289 349 289 349 b 276 336 286 349 282 344 b 235 256 261 314 246 288 b 224 218 228 235 224 222 b 219 189 221 210 219 200 m 581 -115 l 581 -239 b 579 -239 581 -239 581 -239 l 569 -239 b 568 -239 568 -239 568 -239 l 568 -119 b 581 -114 568 -118 572 -117 m 860 -115 l 860 -185 l 894 -154 l 904 -154 b 874 -182 904 -154 893 -164 l 874 -183 l 913 -239 l 899 -239 b 865 -190 882 -217 871 -201 l 864 -190 l 860 -194 l 860 -239 b 860 -239 860 -239 860 -239 l 849 -239 b 849 -239 849 -239 849 -239 l 849 -119 b 860 -114 849 -118 853 -117 m 936 -115 l 936 -160 b 953 -154 940 -156 946 -154 l 956 -154 b 979 -172 968 -154 975 -160 b 982 -189 981 -178 982 -183 l 982 -239 b 982 -239 982 -239 982 -239 l 969 -239 b 969 -239 969 -239 969 -239 l 969 -192 b 961 -162 969 -176 967 -165 b 953 -160 960 -161 956 -160 b 936 -175 944 -160 939 -165 b 936 -179 936 -176 936 -178 l 936 -239 b 935 -239 936 -239 936 -239 l 924 -239 b 924 -239 924 -239 924 -239 l 924 -119 b 936 -114 924 -118 928 -117 m 1086 -132 l 1086 -154 l 1101 -154 b 1101 -154 1101 -154 1101 -154 l 1101 -160 b 1101 -160 1101 -160 1101 -160 l 1086 -160 l 1086 -203 b 1092 -231 1086 -219 1088 -229 b 1097 -232 1093 -232 1096 -232 l 1100 -232 b 1113 -226 1103 -232 1107 -231 b 1110 -239 1111 -235 1110 -239 l 1103 -239 b 1081 -232 1090 -239 1082 -236 b 1075 -201 1076 -226 1075 -217 l 1075 -160 l 1063 -160 b 1063 -160 1063 -160 1063 -160 l 1063 -154 b 1063 -154 1063 -154 1063 -154 l 1075 -154 l 1075 -137 b 1086 -132 1075 -137 1078 -135 m 1226 -153 b 1251 -168 1239 -153 1247 -158 b 1254 -194 1254 -174 1254 -182 l 1254 -199 b 1242 -236 1254 -219 1250 -232 b 1226 -240 1238 -239 1232 -240 b 1208 -235 1219 -240 1214 -237 l 1208 -275 b 1197 -281 1208 -275 1204 -276 l 1196 -281 l 1196 -171 b 1194 -160 1196 -167 1196 -162 b 1203 -156 1194 -158 1199 -157 l 1207 -160 b 1226 -153 1211 -156 1218 -153 m 607 -153 l 607 -158 b 622 -154 611 -156 617 -154 l 626 -154 b 647 -164 636 -154 643 -157 b 647 -165 647 -164 647 -164 b 656 -156 647 -162 651 -160 b 667 -154 660 -154 664 -154 l 671 -154 b 693 -168 682 -154 689 -158 b 696 -192 694 -175 696 -182 l 696 -239 b 696 -239 696 -239 696 -239 l 685 -239 b 683 -239 685 -239 683 -239 l 683 -194 b 679 -164 683 -178 682 -168 b 668 -160 676 -161 672 -160 b 651 -179 658 -160 653 -167 l 651 -239 b 651 -239 651 -239 651 -239 l 640 -239 b 639 -239 639 -239 639 -239 l 639 -203 b 635 -165 639 -181 638 -168 b 624 -160 633 -162 629 -160 b 608 -174 615 -160 610 -165 b 607 -179 607 -175 607 -178 l 607 -239 b 607 -239 607 -239 607 -239 l 596 -239 b 594 -239 594 -239 594 -239 l 594 -158 b 607 -153 594 -157 599 -156 m 794 -153 l 794 -164 b 808 -154 796 -160 800 -157 b 814 -154 810 -154 813 -154 l 831 -154 b 836 -168 832 -154 833 -158 b 815 -160 829 -162 822 -160 b 796 -182 806 -160 800 -168 b 794 -211 794 -190 794 -200 l 794 -239 b 793 -239 794 -239 794 -239 l 782 -239 b 782 -239 782 -239 782 -239 l 782 -158 b 794 -153 782 -157 786 -156 m 1133 -153 l 1133 -196 b 1140 -229 1133 -214 1136 -225 b 1149 -232 1142 -231 1144 -232 l 1151 -232 b 1168 -217 1160 -232 1165 -226 b 1168 -211 1168 -214 1168 -212 l 1168 -158 b 1179 -153 1168 -157 1172 -156 l 1179 -237 b 1161 -276 1179 -258 1174 -272 b 1151 -279 1157 -279 1154 -279 l 1133 -279 b 1129 -265 1133 -279 1132 -275 b 1147 -272 1136 -269 1143 -272 l 1150 -272 b 1167 -253 1158 -272 1164 -267 b 1168 -236 1168 -247 1168 -242 l 1168 -233 b 1150 -239 1163 -237 1157 -239 l 1149 -239 b 1125 -224 1138 -239 1129 -235 b 1121 -200 1122 -218 1121 -210 l 1121 -158 b 1133 -153 1122 -157 1126 -156 m 1517 -153 l 1517 -158 b 1532 -154 1521 -156 1526 -154 l 1536 -154 b 1557 -162 1546 -154 1551 -157 b 1557 -165 1557 -164 1557 -164 b 1564 -157 1557 -162 1560 -160 b 1576 -154 1568 -154 1572 -154 l 1581 -154 b 1604 -171 1593 -154 1600 -160 b 1606 -196 1606 -176 1606 -185 l 1606 -239 b 1606 -239 1606 -239 1606 -239 l 1594 -239 b 1594 -239 1594 -239 1594 -239 l 1594 -203 b 1589 -165 1594 -181 1592 -168 b 1578 -160 1588 -162 1583 -160 b 1563 -174 1569 -160 1565 -165 b 1561 -183 1561 -176 1561 -181 l 1561 -239 b 1561 -239 1561 -239 1561 -239 l 1550 -239 b 1549 -239 1549 -239 1549 -239 l 1549 -192 b 1543 -164 1549 -176 1547 -167 b 1533 -160 1540 -161 1538 -160 b 1518 -172 1525 -160 1521 -164 b 1517 -181 1517 -175 1517 -178 l 1517 -239 b 1517 -239 1517 -239 1517 -239 l 1506 -239 b 1504 -239 1504 -239 1504 -239 l 1504 -158 b 1517 -153 1504 -157 1508 -156 m 1299 -153 b 1322 -168 1310 -153 1318 -158 b 1326 -190 1325 -174 1326 -182 l 1326 -193 b 1313 -196 1326 -193 1322 -194 b 1281 -203 1313 -196 1301 -199 l 1281 -204 b 1290 -231 1281 -219 1283 -228 b 1300 -232 1293 -232 1296 -232 l 1303 -232 b 1322 -225 1308 -232 1315 -229 b 1318 -239 1319 -233 1318 -239 l 1297 -239 b 1268 -204 1278 -239 1268 -228 l 1268 -189 b 1288 -154 1268 -171 1275 -158 b 1299 -153 1292 -153 1294 -153 m 1461 -153 b 1489 -176 1476 -153 1485 -161 b 1490 -194 1490 -182 1490 -187 l 1490 -197 b 1461 -240 1490 -225 1481 -240 b 1431 -197 1440 -240 1431 -225 b 1447 -156 1431 -175 1436 -161 b 1461 -153 1450 -154 1456 -153 m 121 -154 b 133 -187 121 -154 125 -165 l 144 -218 l 158 -179 l 149 -154 l 150 -154 l 161 -154 b 185 -218 161 -154 169 -175 b 208 -154 192 -199 200 -176 l 215 -154 b 185 -239 215 -157 204 -185 l 179 -239 b 161 -189 179 -239 174 -222 b 144 -239 161 -192 156 -208 l 139 -239 b 136 -232 138 -239 138 -236 b 108 -154 118 -182 108 -156 m 240 -154 b 246 -168 240 -154 242 -158 b 263 -218 257 -200 263 -217 b 275 -185 263 -218 267 -207 b 278 -179 275 -185 276 -183 b 268 -154 271 -162 268 -154 l 281 -154 b 290 -181 282 -156 285 -164 b 304 -218 292 -183 296 -196 b 328 -154 311 -197 319 -175 l 333 -154 b 335 -154 335 -154 335 -154 l 304 -239 l 299 -239 b 290 -215 299 -239 296 -231 b 281 -190 285 -200 282 -190 b 264 -239 269 -221 264 -237 l 258 -239 b 250 -217 257 -237 254 -231 b 228 -154 249 -217 242 -194 m 360 -154 b 369 -185 360 -154 363 -164 b 382 -218 371 -186 375 -197 l 396 -179 l 388 -154 l 389 -154 l 400 -154 b 406 -168 400 -154 403 -158 b 424 -218 407 -171 413 -187 b 432 -194 424 -218 426 -211 b 447 -154 442 -169 446 -156 l 454 -154 b 424 -239 454 -154 444 -183 l 418 -239 b 414 -228 418 -239 417 -235 b 400 -189 414 -228 408 -215 b 382 -239 389 -222 383 -239 l 376 -239 b 374 -231 376 -239 376 -236 b 347 -154 357 -182 347 -156 m 522 -154 b 550 -176 538 -154 547 -161 b 550 -192 550 -181 550 -186 l 550 -226 b 554 -239 550 -232 551 -236 l 553 -239 b 543 -239 549 -239 544 -239 b 539 -232 542 -237 540 -235 b 517 -240 533 -237 526 -240 b 494 -222 506 -240 499 -233 b 493 -214 494 -219 493 -217 l 493 -210 b 511 -181 493 -194 500 -186 b 538 -176 519 -178 528 -176 b 533 -164 538 -172 536 -168 b 519 -160 531 -161 525 -160 b 500 -167 511 -160 504 -162 b 497 -168 499 -167 499 -168 b 503 -154 500 -158 501 -154 m 739 -154 b 764 -168 751 -154 758 -158 b 767 -190 765 -174 767 -182 l 767 -225 b 769 -239 767 -232 768 -236 b 760 -239 764 -239 761 -239 b 756 -231 758 -239 757 -236 b 733 -240 750 -236 742 -240 b 711 -224 722 -240 715 -235 b 710 -212 710 -219 710 -215 l 710 -211 b 726 -182 710 -196 715 -186 b 754 -176 733 -178 743 -176 b 750 -164 754 -172 753 -168 b 736 -160 747 -161 743 -160 b 715 -167 728 -160 721 -162 b 714 -168 715 -168 714 -168 b 718 -154 717 -158 718 -154 m 1025 -154 b 1050 -172 1038 -154 1046 -160 b 1053 -199 1053 -176 1053 -186 l 1053 -229 b 1056 -239 1053 -232 1054 -235 b 1044 -239 1050 -239 1046 -239 b 1042 -231 1042 -236 1042 -233 b 1019 -240 1035 -236 1028 -240 b 997 -224 1008 -240 1001 -235 b 996 -211 996 -221 996 -217 b 1011 -182 996 -197 1000 -187 b 1039 -176 1018 -179 1028 -176 l 1040 -176 b 1036 -165 1039 -171 1038 -167 b 1022 -160 1033 -161 1028 -160 b 1000 -168 1014 -160 1007 -162 b 1000 -168 1000 -168 1000 -168 b 1004 -154 1003 -158 1004 -154 m 1415 -154 b 1419 -168 1417 -154 1418 -158 b 1400 -160 1413 -162 1406 -160 b 1382 -167 1390 -160 1385 -162 b 1379 -197 1381 -169 1379 -181 b 1385 -228 1379 -215 1381 -226 b 1397 -232 1386 -231 1390 -232 l 1401 -232 b 1419 -225 1407 -232 1413 -229 b 1415 -239 1418 -235 1417 -239 l 1396 -239 b 1369 -222 1382 -239 1374 -233 b 1365 -196 1367 -215 1365 -207 b 1381 -157 1365 -175 1371 -162 b 1394 -154 1385 -154 1389 -154 m 1208 -214 b 1218 -232 1208 -222 1211 -228 b 1226 -233 1221 -232 1224 -233 b 1239 -225 1232 -233 1238 -231 b 1243 -192 1242 -218 1243 -207 b 1236 -162 1243 -176 1240 -167 b 1226 -160 1233 -161 1229 -160 l 1225 -160 b 1210 -172 1217 -160 1211 -164 b 1208 -179 1208 -175 1208 -178 m 1281 -194 l 1314 -189 l 1314 -187 b 1303 -161 1314 -174 1311 -165 b 1297 -160 1300 -160 1299 -160 b 1283 -169 1290 -160 1286 -162 b 1281 -192 1281 -175 1281 -183 m 1443 -199 b 1451 -231 1443 -217 1446 -226 b 1461 -233 1454 -232 1457 -233 b 1475 -222 1468 -233 1472 -229 b 1478 -199 1476 -217 1478 -208 l 1478 -194 b 1469 -162 1478 -176 1475 -167 b 1461 -160 1467 -161 1464 -160 b 1447 -171 1454 -160 1449 -162 b 1443 -194 1444 -175 1443 -183 m 506 -210 b 521 -231 506 -224 510 -231 b 539 -221 528 -231 535 -228 l 539 -189 b 539 -183 539 -187 539 -186 b 510 -192 525 -183 515 -186 b 506 -210 507 -197 506 -203 m 722 -211 b 733 -231 722 -222 725 -229 l 736 -231 b 754 -221 744 -231 751 -228 l 754 -185 l 754 -183 b 726 -193 740 -183 731 -187 b 722 -208 724 -197 722 -203 m 1007 -211 b 1022 -231 1007 -224 1013 -231 b 1040 -221 1031 -231 1036 -228 l 1040 -183 b 1010 -196 1025 -183 1014 -187 b 1007 -211 1008 -200 1007 -204 m 475 -224 b 482 -231 478 -224 481 -226 l 482 -232 b 476 -239 482 -235 479 -237 b 474 -239 476 -239 475 -239 b 467 -233 471 -239 468 -237 l 467 -231 b 474 -224 467 -228 468 -225 l 475 -224 m 1347 -224 b 1354 -229 1350 -224 1351 -225 b 1354 -232 1354 -231 1354 -232 b 1349 -239 1354 -235 1353 -237 l 1346 -239 b 1339 -233 1343 -239 1340 -237 b 1339 -232 1339 -232 1339 -232 b 1346 -224 1339 -228 1342 -225 l 1347 -224 "},"'":{"ha":422,"x_min":0,"x_max":0,"o":"m 336 1093 l 306 728 l 124 728 l 93 1093 "},"(":{"ha":397,"x_min":0,"x_max":0,"o":"m 319 1032 l 319 -61 l 501 -61 l 501 -244 l 258 -244 l 76 -61 l 76 1032 l 258 1214 l 501 1214 l 501 1032 "},")":{"ha":397,"x_min":0,"x_max":0,"o":"m 319 1032 l 319 -61 l 138 -244 l -106 -244 l -106 -61 l 76 -61 l 76 1032 l -106 1032 l -106 1214 l 138 1214 "},"*":{"ha":479,"x_min":0,"x_max":0,"o":"m 335 754 l 419 696 l 272 588 l 239 683 l 206 588 l 58 696 l 143 754 l 38 758 l 94 932 l 179 867 l 147 971 l 331 971 l 299 867 l 385 932 l 440 758 "},"+":{"ha":760,"x_min":0,"x_max":0,"o":"m 719 425 l 719 242 l 501 242 l 501 -1 l 258 -1 l 258 242 l 39 242 l 39 425 l 258 425 l 258 668 l 501 668 l 501 425 "},",":{"ha":317,"x_min":0,"x_max":0,"o":"m 281 242 l 281 60 l 99 -122 l 38 -122 l 38 242 "},"-":{"ha":699,"x_min":0,"x_max":0,"o":"m 33 242 l 33 425 l 665 425 l 665 242 "},"":{"ha":699,"x_min":0,"x_max":0,"o":"m 665 242 l 665 425 l 33 425 l 33 242 "},".":{"ha":318,"x_min":0,"x_max":0,"o":"m 281 242 l 281 -1 l 38 -1 l 38 242 "},"/":{"ha":547,"x_min":0,"x_max":0,"o":"m 517 971 l 274 -1 l 31 -1 l 274 971 "},":":{"ha":351,"x_min":0,"x_max":0,"o":"m 297 242 l 297 -1 l 54 -1 l 54 242 m 297 668 l 297 425 l 54 425 l 54 668 "},";":{"ha":351,"x_min":0,"x_max":0,"o":"m 297 242 l 297 60 l 115 -122 l 54 -122 l 54 242 m 297 668 l 297 425 l 54 425 l 54 668 "},"":{"ha":351,"x_min":0,"x_max":0,"o":"m 54 242 l 54 -122 l 115 -122 l 297 60 l 297 242 m 54 668 l 54 425 l 297 425 l 297 668 "},"<":{"ha":815,"x_min":0,"x_max":0,"o":"m 763 394 l 404 333 l 763 272 l 763 90 l 46 211 l 46 454 l 763 576 "},"=":{"ha":726,"x_min":0,"x_max":0,"o":"m 47 90 l 47 272 l 679 272 l 679 90 m 47 394 l 47 576 l 679 576 l 679 394 "},">":{"ha":815,"x_min":0,"x_max":0,"o":"m 768 454 l 768 211 l 51 90 l 51 272 l 410 333 l 51 394 l 51 576 "},"?":{"ha":1685,"x_min":0,"x_max":0,"o":"m 522 925 b 560 896 542 925 554 915 b 565 850 564 883 565 868 l 565 840 b 539 769 565 801 557 778 b 521 765 535 767 528 765 b 482 801 501 765 488 778 b 478 842 479 814 478 828 l 478 849 b 501 919 478 888 486 911 b 522 925 507 924 514 925 m 1304 925 b 1343 893 1325 925 1338 914 b 1349 844 1347 882 1349 865 b 1324 769 1349 803 1340 778 b 1304 765 1318 767 1313 765 b 1265 799 1285 765 1272 776 b 1261 846 1263 811 1261 826 b 1286 921 1261 888 1269 913 b 1304 925 1290 924 1297 925 m 147 922 b 186 901 168 922 181 915 b 189 879 188 896 189 888 b 171 842 189 860 183 847 b 143 838 165 839 156 838 l 115 838 l 115 768 b 115 768 115 768 115 768 l 101 768 b 101 768 101 768 101 768 l 101 922 b 101 922 101 922 101 922 m 272 922 b 275 914 272 922 274 919 l 221 914 b 221 914 221 914 221 914 l 221 854 l 264 854 b 264 853 264 854 264 854 l 264 846 b 264 844 264 846 264 844 l 221 844 l 221 776 l 279 776 b 276 768 278 771 276 768 l 206 768 b 206 768 206 768 206 768 l 206 922 b 206 922 206 922 206 922 m 343 922 b 381 901 363 922 376 915 b 383 882 383 896 383 889 b 365 844 383 861 378 849 b 361 843 364 844 363 843 b 390 768 369 833 379 808 l 389 768 l 375 768 b 369 788 374 768 372 775 b 346 840 360 824 351 840 l 313 840 l 313 768 b 313 768 313 768 313 768 l 299 768 b 299 768 299 768 299 768 l 299 922 b 299 922 299 922 299 922 m 454 922 b 458 908 456 922 457 918 b 458 907 458 908 458 908 b 443 914 451 911 447 914 b 428 897 433 914 428 908 l 428 894 b 443 850 428 883 433 868 b 458 803 453 832 458 817 b 439 771 458 788 451 776 b 425 768 435 768 431 768 l 414 768 b 408 785 413 768 411 774 l 410 785 b 424 776 415 779 419 776 l 425 776 b 443 794 435 776 440 782 b 443 801 443 796 443 799 b 425 850 443 813 438 829 b 413 889 417 867 413 879 l 413 893 b 431 921 413 907 419 915 b 440 922 435 922 438 922 m 599 922 b 656 797 601 919 619 878 l 657 797 l 657 922 b 657 922 657 922 657 922 l 665 922 b 665 922 665 922 665 922 l 665 768 b 665 768 665 768 665 768 l 654 768 b 607 868 653 769 636 804 b 593 899 607 871 601 881 l 593 768 b 593 768 593 768 593 768 l 586 768 b 585 768 585 768 585 768 l 585 922 b 586 922 585 922 585 922 m 732 922 b 738 903 733 922 735 915 b 778 768 764 818 776 772 l 763 768 b 758 779 763 768 761 772 b 749 814 758 782 754 793 l 703 814 b 689 768 694 786 690 771 l 681 768 b 681 768 681 768 681 768 b 725 922 708 867 724 918 l 732 922 m 811 922 b 811 922 811 922 811 922 l 811 776 l 869 776 b 868 768 869 771 868 768 l 797 768 b 797 768 797 768 797 768 l 797 922 b 797 922 797 922 797 922 m 958 922 b 958 922 958 922 958 922 l 958 836 b 967 783 958 807 961 789 b 988 774 969 778 976 774 b 1011 788 999 774 1007 779 b 1015 833 1014 796 1015 810 l 1015 922 b 1015 922 1015 922 1015 922 l 1025 922 b 1025 922 1025 922 1025 922 l 1025 854 b 1019 788 1025 817 1022 794 b 1006 769 1015 779 1011 772 b 986 765 1000 767 994 765 b 951 785 969 765 957 772 b 943 844 946 796 943 815 l 943 922 b 943 922 943 922 943 922 m 1088 922 b 1092 908 1088 922 1089 918 b 1092 907 1092 908 1092 908 b 1075 914 1085 911 1079 914 b 1060 896 1065 914 1060 908 b 1075 850 1060 883 1065 868 b 1090 803 1085 832 1090 815 b 1071 771 1090 788 1085 776 b 1057 768 1067 768 1063 768 l 1046 768 b 1042 785 1046 768 1044 774 b 1056 776 1047 779 1053 776 l 1057 776 b 1075 797 1068 776 1074 783 l 1075 800 b 1075 801 1075 800 1075 800 b 1075 801 1075 801 1075 801 l 1075 803 b 1058 849 1075 814 1069 829 b 1044 892 1050 865 1044 879 b 1064 921 1044 907 1051 917 b 1074 922 1068 922 1071 922 m 1181 922 b 1183 914 1182 922 1182 919 l 1129 914 l 1129 854 l 1172 854 b 1174 853 1172 854 1174 854 l 1174 846 b 1172 844 1174 846 1172 844 l 1129 844 l 1129 776 l 1188 776 b 1188 776 1188 776 1188 776 b 1186 768 1186 771 1186 768 l 1115 768 b 1114 768 1114 768 1114 768 l 1114 922 b 1115 922 1114 922 1115 922 m 1382 922 b 1389 907 1382 922 1385 917 b 1439 797 1392 901 1408 865 l 1439 922 b 1440 922 1439 922 1440 922 l 1447 922 b 1447 922 1447 922 1447 922 l 1447 768 b 1447 768 1447 768 1447 768 l 1436 768 b 1426 789 1436 768 1432 775 b 1376 899 1425 792 1408 828 l 1376 768 b 1375 768 1376 768 1376 768 l 1368 768 b 1368 768 1368 768 1368 768 l 1368 922 b 1368 922 1368 922 1368 922 m 1482 922 b 1482 922 1482 922 1482 922 l 1482 776 l 1540 776 b 1538 768 1539 771 1539 768 l 1468 768 b 1467 768 1468 768 1467 768 l 1467 922 b 1468 922 1468 922 1468 922 m 1538 922 b 1571 857 1538 922 1549 900 b 1603 922 1574 861 1583 883 l 1613 922 b 1575 847 1613 922 1600 897 l 1575 768 b 1575 768 1575 768 1575 768 l 1561 768 b 1560 768 1560 768 1560 768 l 1560 846 b 1522 922 1560 847 1547 872 m 493 846 b 500 788 493 814 496 794 b 522 774 504 779 511 774 b 544 789 533 774 542 779 b 550 846 549 796 550 815 b 543 906 550 879 549 899 b 522 917 539 913 532 917 l 521 917 b 497 897 508 917 501 910 b 493 846 494 889 493 871 m 1276 839 b 1285 783 1276 808 1279 790 b 1306 774 1289 778 1296 774 b 1329 790 1317 774 1325 779 b 1333 839 1332 800 1333 815 l 1333 851 b 1324 908 1333 883 1331 903 b 1306 917 1319 914 1314 917 l 1304 917 b 1282 901 1293 917 1286 911 b 1276 851 1278 893 1276 876 m 115 846 l 146 846 b 168 856 157 846 165 849 b 172 879 171 860 172 868 b 161 911 172 897 168 907 b 140 914 160 913 151 914 l 115 914 m 313 850 l 336 850 b 361 857 350 850 358 851 b 367 882 365 860 367 868 b 358 910 367 897 364 907 b 336 914 354 913 347 914 l 313 914 m 725 893 b 706 822 725 893 719 869 l 746 822 b 725 893 733 867 726 890 m 1144 674 b 1151 664 1147 672 1150 668 b 1163 639 1154 654 1157 646 b 1164 636 1164 638 1164 636 b 1154 614 1164 635 1161 628 b 1092 449 1132 567 1111 511 b 1072 363 1085 424 1079 396 b 1069 333 1071 346 1069 336 b 1075 346 1071 333 1072 338 b 1129 450 1094 393 1113 428 b 1176 485 1146 474 1161 485 l 1178 485 b 1186 483 1183 485 1186 483 l 1194 483 b 1210 475 1203 483 1208 481 l 1210 474 b 1200 450 1210 471 1207 463 b 1163 311 1175 401 1163 354 l 1163 306 b 1204 229 1163 274 1176 249 b 1249 217 1218 221 1233 217 b 1233 201 1244 208 1240 204 b 1201 196 1224 197 1213 196 b 1128 249 1167 196 1142 214 b 1122 282 1125 258 1122 269 l 1122 286 b 1144 414 1122 318 1131 361 b 1149 429 1147 421 1147 426 b 1082 286 1119 372 1097 324 b 1058 222 1071 261 1064 240 b 1050 208 1056 214 1051 208 l 1049 208 b 1039 215 1047 208 1044 211 b 1026 225 1032 218 1028 221 b 1025 243 1025 226 1025 233 l 1025 246 b 1028 306 1025 261 1026 282 b 1000 285 1018 297 1010 290 b 964 271 986 275 975 271 b 940 285 956 271 947 275 b 922 308 935 292 928 300 l 921 311 b 917 301 919 311 918 308 b 897 211 911 285 904 254 b 886 186 893 194 889 186 b 874 193 885 186 881 188 b 857 210 865 197 860 203 b 854 233 854 214 854 222 l 854 243 b 894 463 854 293 867 367 b 942 608 907 506 922 554 b 939 610 942 610 940 610 l 910 610 b 769 590 853 610 806 603 b 735 568 757 585 746 578 l 728 558 b 719 544 724 554 722 549 b 713 567 717 550 714 557 b 711 576 711 571 711 575 b 760 633 711 606 728 624 b 794 639 775 638 788 639 b 896 644 821 643 856 644 b 942 647 922 644 939 646 b 965 658 953 647 960 650 b 969 660 968 660 969 660 l 971 660 b 982 642 976 660 979 654 b 990 625 985 635 988 629 b 993 622 992 625 992 624 b 983 601 993 621 990 614 b 924 440 961 553 942 500 b 904 358 917 418 910 390 b 901 335 903 349 901 340 b 971 489 925 406 949 456 b 1006 513 983 504 994 513 b 1032 492 1018 513 1026 506 b 1033 475 1033 486 1033 481 l 1033 474 b 1013 390 1033 451 1026 424 b 992 357 1007 381 1000 369 b 968 335 982 346 974 338 b 949 325 963 331 956 328 b 944 322 946 325 944 324 b 957 307 944 319 949 315 b 969 303 961 304 965 303 l 971 303 b 1007 326 981 303 992 310 b 1032 361 1018 339 1026 350 b 1043 385 1039 369 1042 378 b 1060 456 1046 404 1051 428 b 1124 647 1076 518 1099 582 b 1132 667 1128 658 1131 665 b 1140 674 1136 671 1139 672 m 1371 672 b 1374 671 1372 672 1374 672 l 1374 669 b 1363 643 1374 668 1369 660 l 1363 642 b 1365 640 1363 640 1364 640 l 1372 640 b 1443 631 1396 640 1419 638 b 1457 619 1453 626 1457 622 b 1456 617 1457 618 1457 617 b 1436 624 1453 618 1447 621 b 1385 629 1419 626 1403 629 b 1363 628 1378 629 1369 628 l 1360 628 b 1354 625 1357 628 1356 628 b 1329 560 1343 600 1335 578 b 1325 549 1326 553 1325 549 b 1329 544 1326 546 1328 544 b 1339 551 1331 544 1333 546 b 1363 578 1349 561 1357 569 b 1381 590 1365 583 1372 588 b 1365 561 1378 585 1374 575 b 1360 546 1363 556 1361 551 b 1368 554 1363 546 1365 549 b 1397 593 1385 576 1394 589 b 1406 597 1401 596 1403 597 b 1413 593 1410 596 1413 594 b 1376 507 1400 564 1388 536 b 1365 460 1369 483 1365 468 b 1367 450 1365 456 1367 451 b 1354 463 1361 451 1357 457 b 1353 472 1353 467 1353 469 b 1369 524 1353 481 1358 499 b 1382 554 1375 538 1379 549 b 1361 526 1374 543 1367 533 b 1354 522 1358 524 1356 522 b 1344 536 1351 522 1347 528 l 1344 539 b 1325 522 1335 528 1329 522 b 1313 538 1322 522 1318 528 b 1311 549 1311 542 1311 544 b 1321 583 1311 556 1314 567 b 1335 624 1326 596 1331 610 b 1335 625 1335 625 1335 625 l 1333 625 b 1311 617 1325 625 1318 622 b 1301 604 1307 613 1304 608 l 1301 603 b 1292 613 1297 604 1294 607 b 1292 617 1292 614 1292 615 b 1322 636 1292 626 1303 633 b 1340 640 1335 638 1340 639 b 1343 647 1342 640 1342 643 b 1349 663 1346 654 1347 660 b 1356 668 1349 665 1351 667 b 1371 672 1358 668 1363 669 m 596 619 b 618 603 608 619 615 614 b 619 599 619 601 619 600 l 619 594 b 607 544 617 575 613 558 b 521 454 590 504 563 475 b 490 442 503 446 492 442 b 457 433 483 439 472 436 b 439 431 444 432 439 431 b 419 385 436 426 431 411 b 385 272 406 350 394 313 b 371 178 376 233 371 203 b 428 57 371 128 390 88 b 515 26 456 38 485 26 l 517 26 b 731 71 564 26 636 42 l 882 118 b 1024 157 928 133 975 146 b 1133 171 1065 167 1101 171 l 1135 171 b 1257 147 1181 171 1221 163 b 1292 128 1268 143 1279 136 b 1315 107 1299 122 1307 115 b 1338 72 1329 92 1338 81 l 1338 71 l 1336 71 b 1149 125 1296 107 1233 125 l 1147 125 b 829 60 1063 125 957 103 b 685 13 768 40 719 24 b 525 -17 618 -7 565 -17 l 517 -17 b 379 40 458 -17 413 1 b 333 178 349 76 333 122 b 358 329 333 224 342 274 b 390 407 369 358 379 385 b 403 432 399 422 403 431 b 347 433 401 433 383 433 b 208 394 278 433 231 421 b 199 379 206 390 203 386 b 193 408 194 390 193 400 b 232 463 193 435 206 453 b 308 471 247 468 272 471 b 407 467 326 471 358 469 b 419 467 408 467 413 467 b 429 476 422 467 426 469 b 472 535 442 494 456 514 b 525 588 494 561 513 578 b 554 607 536 596 546 603 b 596 619 569 615 583 619 m 1481 600 b 1493 578 1488 600 1492 593 b 1494 569 1494 575 1494 572 b 1479 535 1494 557 1490 546 b 1469 531 1476 532 1472 531 l 1465 531 b 1451 540 1461 531 1456 533 b 1451 546 1451 543 1451 544 b 1463 586 1451 560 1456 574 b 1468 589 1465 588 1467 589 l 1469 589 b 1478 578 1475 589 1478 585 l 1478 575 b 1461 546 1478 564 1472 554 b 1461 543 1461 544 1461 544 b 1464 539 1463 540 1463 539 l 1465 539 b 1479 553 1469 540 1475 544 b 1483 575 1482 560 1483 567 b 1481 599 1483 581 1483 589 b 1481 600 1481 600 1481 600 m 1424 593 b 1432 588 1429 592 1432 590 b 1425 575 1432 588 1429 582 b 1410 539 1419 564 1414 553 b 1424 565 1411 540 1415 549 l 1438 590 b 1439 590 1439 590 1439 590 b 1447 567 1444 590 1447 583 l 1447 563 b 1440 533 1447 549 1444 539 b 1433 531 1438 532 1435 531 l 1432 531 b 1421 536 1429 531 1425 533 b 1419 536 1421 536 1421 536 b 1414 525 1419 536 1418 532 b 1382 457 1399 496 1388 474 b 1379 453 1381 454 1379 453 l 1378 453 b 1372 463 1374 456 1372 460 l 1372 464 b 1407 564 1374 475 1385 508 b 1419 592 1414 579 1418 589 b 1422 593 1421 593 1422 593 m 464 468 b 533 494 486 468 508 478 b 563 524 546 506 556 515 b 576 549 568 533 572 542 b 586 582 582 564 586 575 b 588 589 586 582 588 585 b 521 542 568 578 546 561 b 476 496 501 522 486 507 b 457 469 468 486 463 478 l 457 468 m 1469 575 b 1464 560 1467 569 1464 564 b 1464 558 1464 560 1464 558 b 1471 575 1468 564 1471 569 l 1469 575 m 1436 568 b 1422 540 1435 564 1431 556 b 1435 546 1429 540 1433 543 b 1438 558 1438 550 1438 554 l 1438 564 b 1438 568 1438 567 1438 568 l 1436 568 m 746 519 b 768 501 756 519 764 513 b 776 476 772 494 775 486 b 781 469 778 472 779 469 b 822 481 792 472 806 476 b 842 489 835 486 840 488 b 853 497 843 489 847 492 b 865 504 857 501 861 504 b 879 492 871 504 876 500 l 879 488 b 872 460 879 485 878 475 b 826 229 842 356 826 279 b 844 147 826 201 832 174 l 844 146 b 842 144 843 144 843 144 l 839 144 b 796 165 822 144 807 151 b 783 199 788 176 783 188 l 783 203 b 813 356 783 219 793 271 b 835 449 822 397 829 428 b 842 461 836 453 839 457 b 842 461 842 461 842 461 b 783 443 826 456 807 449 b 782 440 782 443 782 443 b 782 417 782 435 782 426 b 767 292 782 382 776 340 b 725 218 753 243 739 218 b 711 229 721 218 717 222 b 700 239 707 235 703 238 b 685 257 693 242 689 247 b 681 315 682 267 681 286 l 681 321 b 644 224 667 271 656 239 b 635 215 640 218 638 215 l 633 215 b 624 224 631 215 628 218 b 614 228 622 225 619 226 b 601 244 608 231 604 236 b 599 269 599 253 599 261 b 613 351 599 293 603 321 b 636 400 619 369 626 386 b 672 432 650 422 663 432 b 693 406 682 432 689 424 b 708 428 697 414 703 422 b 722 433 713 432 717 433 b 736 429 726 433 732 432 l 738 429 l 738 428 b 729 415 738 428 735 424 b 717 385 725 407 721 397 b 704 311 708 358 704 333 l 704 304 b 713 261 704 286 707 272 b 717 256 714 257 715 256 b 732 288 721 258 726 269 b 753 406 746 331 753 371 l 753 415 b 749 449 753 424 751 435 b 743 453 749 450 746 451 b 715 489 725 460 715 472 b 735 517 715 501 722 511 b 746 519 738 518 742 519 m 1331 508 b 1338 503 1333 508 1336 507 b 1338 493 1338 500 1338 497 b 1318 408 1338 481 1331 453 b 1294 272 1303 354 1294 308 b 1317 196 1294 238 1303 213 b 1342 186 1325 189 1333 186 l 1344 186 b 1383 203 1356 186 1368 192 b 1397 217 1389 207 1394 213 b 1432 349 1421 247 1432 292 l 1432 354 b 1426 425 1432 379 1431 403 b 1418 438 1424 433 1421 438 b 1399 407 1414 438 1407 428 b 1375 308 1383 371 1375 338 b 1385 268 1375 292 1378 279 b 1388 265 1386 267 1386 265 b 1374 261 1382 263 1378 261 b 1349 300 1361 261 1353 274 b 1342 317 1346 307 1344 313 b 1338 339 1339 324 1338 332 l 1338 340 b 1360 404 1338 357 1344 378 b 1379 429 1364 411 1371 419 b 1403 450 1390 440 1399 449 b 1431 458 1413 456 1421 458 b 1471 438 1449 458 1461 451 b 1482 389 1479 425 1482 408 l 1482 383 b 1467 293 1482 358 1478 329 b 1444 240 1460 274 1453 256 b 1356 172 1418 194 1389 172 b 1293 201 1332 172 1313 182 b 1269 256 1282 215 1274 233 b 1264 303 1265 272 1264 288 b 1274 360 1264 322 1268 340 b 1274 364 1274 363 1274 364 l 1274 365 b 1231 265 1256 317 1242 283 b 1219 257 1228 260 1224 257 b 1210 267 1215 257 1213 261 b 1197 276 1207 271 1203 275 b 1189 282 1194 276 1192 278 b 1183 306 1185 289 1183 297 l 1183 308 b 1196 379 1183 324 1188 347 b 1221 440 1203 404 1213 424 b 1242 472 1228 454 1235 464 b 1271 490 1253 483 1263 490 b 1293 460 1281 490 1288 481 b 1293 460 1293 460 1293 460 b 1310 492 1303 481 1307 492 b 1317 497 1310 493 1313 494 b 1329 508 1322 504 1326 508 m 939 354 b 956 365 943 356 949 360 b 974 392 964 374 969 382 b 992 432 981 401 986 415 b 1004 478 996 443 999 458 b 988 456 999 474 993 465 b 960 407 978 440 969 424 b 938 354 946 378 938 360 m 1215 306 b 1217 294 1215 303 1215 299 b 1250 365 1224 306 1233 329 l 1283 442 l 1283 443 b 1275 465 1281 453 1279 461 l 1274 467 b 1261 450 1272 467 1267 461 b 1232 388 1250 432 1240 411 b 1218 336 1226 374 1222 357 b 1215 310 1217 322 1215 314 m 593 447 b 613 443 594 447 601 446 b 618 438 615 442 618 440 b 608 404 617 433 614 422 b 572 265 596 367 583 319 b 565 194 568 240 565 217 b 571 167 565 181 567 171 b 576 165 572 165 574 165 b 611 175 579 165 592 168 b 693 193 649 188 675 193 b 746 172 717 193 735 186 l 746 171 b 699 165 739 171 724 169 b 640 149 676 161 657 156 b 597 131 628 144 613 139 b 583 128 593 129 588 128 b 558 146 574 128 565 133 b 547 157 554 150 550 154 b 532 201 538 165 532 181 b 549 293 532 217 538 247 b 553 314 551 306 553 313 l 553 315 l 551 315 b 513 190 538 278 525 236 b 499 106 504 153 499 124 l 499 101 l 499 100 b 497 97 499 97 499 97 l 496 97 b 482 104 492 97 488 100 b 463 181 469 117 463 143 b 476 288 463 210 467 244 l 476 289 b 446 203 463 253 451 224 b 442 192 444 196 443 192 b 442 192 442 192 442 192 b 422 199 436 192 429 194 b 406 235 411 206 406 218 l 406 239 b 435 358 406 263 415 301 b 461 410 447 392 457 410 b 483 406 474 408 482 407 b 486 401 486 404 486 403 b 475 375 486 400 482 390 b 438 253 450 314 438 274 l 438 251 b 514 411 468 322 493 376 b 529 426 521 421 525 426 l 531 426 b 546 419 535 425 539 424 b 549 417 547 418 549 418 b 536 388 549 414 544 406 b 510 306 526 365 518 339 b 494 211 500 267 494 235 b 496 210 496 210 496 210 b 568 417 522 301 547 369 b 586 446 576 432 582 440 b 593 447 589 447 590 447 m 356 415 b 363 406 360 415 361 413 l 363 401 b 338 328 363 392 354 367 b 310 194 318 278 310 233 l 310 186 b 336 65 310 139 318 100 b 338 63 338 64 338 64 b 326 60 338 61 333 60 b 283 83 308 60 294 68 b 271 131 275 97 271 113 l 271 138 b 279 239 271 157 274 190 l 279 240 b 269 222 278 240 275 233 b 235 156 256 194 244 172 b 221 144 231 147 225 144 b 211 154 217 144 214 147 b 199 164 208 160 204 163 b 192 169 196 165 193 167 b 188 189 189 175 188 181 l 188 193 b 204 264 188 207 193 232 b 232 322 213 286 221 306 b 256 354 238 333 246 344 b 286 372 268 367 278 372 l 288 372 b 306 349 296 372 303 364 b 328 393 318 375 325 390 b 344 408 333 400 339 406 b 354 415 350 414 353 415 l 356 415 m 626 265 b 632 246 628 253 629 246 l 633 246 b 643 269 635 246 639 254 b 675 365 650 289 661 321 b 679 381 678 372 679 376 b 672 400 679 386 676 392 l 669 400 b 653 375 665 399 660 390 b 636 324 647 364 642 347 b 628 272 633 313 631 296 b 626 265 626 268 626 265 m 219 189 b 219 182 219 185 219 182 b 231 199 224 186 226 192 b 293 318 256 246 275 285 b 296 328 294 321 296 325 b 290 347 296 333 293 339 b 289 349 289 349 289 349 b 276 336 286 349 282 344 b 235 256 261 314 246 288 b 224 218 228 235 224 222 b 219 189 221 210 219 200 m 581 -115 l 581 -239 b 579 -239 581 -239 581 -239 l 569 -239 b 568 -239 568 -239 568 -239 l 568 -119 b 581 -114 568 -118 572 -117 m 860 -115 l 860 -185 l 894 -154 l 904 -154 b 874 -182 904 -154 893 -164 l 874 -183 l 913 -239 l 899 -239 b 865 -190 882 -217 871 -201 l 864 -190 l 860 -194 l 860 -239 b 860 -239 860 -239 860 -239 l 849 -239 b 849 -239 849 -239 849 -239 l 849 -119 b 860 -114 849 -118 853 -117 m 936 -115 l 936 -160 b 953 -154 940 -156 946 -154 l 956 -154 b 979 -172 968 -154 975 -160 b 982 -189 981 -178 982 -183 l 982 -239 b 982 -239 982 -239 982 -239 l 969 -239 b 969 -239 969 -239 969 -239 l 969 -192 b 961 -162 969 -176 967 -165 b 953 -160 960 -161 956 -160 b 936 -175 944 -160 939 -165 b 936 -179 936 -176 936 -178 l 936 -239 b 935 -239 936 -239 936 -239 l 924 -239 b 924 -239 924 -239 924 -239 l 924 -119 b 936 -114 924 -118 928 -117 m 1086 -132 l 1086 -154 l 1101 -154 b 1101 -154 1101 -154 1101 -154 l 1101 -160 b 1101 -160 1101 -160 1101 -160 l 1086 -160 l 1086 -203 b 1092 -231 1086 -219 1088 -229 b 1097 -232 1093 -232 1096 -232 l 1100 -232 b 1113 -226 1103 -232 1107 -231 b 1110 -239 1111 -235 1110 -239 l 1103 -239 b 1081 -232 1090 -239 1082 -236 b 1075 -201 1076 -226 1075 -217 l 1075 -160 l 1063 -160 b 1063 -160 1063 -160 1063 -160 l 1063 -154 b 1063 -154 1063 -154 1063 -154 l 1075 -154 l 1075 -137 b 1086 -132 1075 -137 1078 -135 m 1226 -153 b 1251 -168 1239 -153 1247 -158 b 1254 -194 1254 -174 1254 -182 l 1254 -199 b 1242 -236 1254 -219 1250 -232 b 1226 -240 1238 -239 1232 -240 b 1208 -235 1219 -240 1214 -237 l 1208 -275 b 1197 -281 1208 -275 1204 -276 l 1196 -281 l 1196 -171 b 1194 -160 1196 -167 1196 -162 b 1203 -156 1194 -158 1199 -157 l 1207 -160 b 1226 -153 1211 -156 1218 -153 m 607 -153 l 607 -158 b 622 -154 611 -156 617 -154 l 626 -154 b 647 -164 636 -154 643 -157 b 647 -165 647 -164 647 -164 b 656 -156 647 -162 651 -160 b 667 -154 660 -154 664 -154 l 671 -154 b 693 -168 682 -154 689 -158 b 696 -192 694 -175 696 -182 l 696 -239 b 696 -239 696 -239 696 -239 l 685 -239 b 683 -239 685 -239 683 -239 l 683 -194 b 679 -164 683 -178 682 -168 b 668 -160 676 -161 672 -160 b 651 -179 658 -160 653 -167 l 651 -239 b 651 -239 651 -239 651 -239 l 640 -239 b 639 -239 639 -239 639 -239 l 639 -203 b 635 -165 639 -181 638 -168 b 624 -160 633 -162 629 -160 b 608 -174 615 -160 610 -165 b 607 -179 607 -175 607 -178 l 607 -239 b 607 -239 607 -239 607 -239 l 596 -239 b 594 -239 594 -239 594 -239 l 594 -158 b 607 -153 594 -157 599 -156 m 794 -153 l 794 -164 b 808 -154 796 -160 800 -157 b 814 -154 810 -154 813 -154 l 831 -154 b 836 -168 832 -154 833 -158 b 815 -160 829 -162 822 -160 b 796 -182 806 -160 800 -168 b 794 -211 794 -190 794 -200 l 794 -239 b 793 -239 794 -239 794 -239 l 782 -239 b 782 -239 782 -239 782 -239 l 782 -158 b 794 -153 782 -157 786 -156 m 1133 -153 l 1133 -196 b 1140 -229 1133 -214 1136 -225 b 1149 -232 1142 -231 1144 -232 l 1151 -232 b 1168 -217 1160 -232 1165 -226 b 1168 -211 1168 -214 1168 -212 l 1168 -158 b 1179 -153 1168 -157 1172 -156 l 1179 -237 b 1161 -276 1179 -258 1174 -272 b 1151 -279 1157 -279 1154 -279 l 1133 -279 b 1129 -265 1133 -279 1132 -275 b 1147 -272 1136 -269 1143 -272 l 1150 -272 b 1167 -253 1158 -272 1164 -267 b 1168 -236 1168 -247 1168 -242 l 1168 -233 b 1150 -239 1163 -237 1157 -239 l 1149 -239 b 1125 -224 1138 -239 1129 -235 b 1121 -200 1122 -218 1121 -210 l 1121 -158 b 1133 -153 1122 -157 1126 -156 m 1517 -153 l 1517 -158 b 1532 -154 1521 -156 1526 -154 l 1536 -154 b 1557 -162 1546 -154 1551 -157 b 1557 -165 1557 -164 1557 -164 b 1564 -157 1557 -162 1560 -160 b 1576 -154 1568 -154 1572 -154 l 1581 -154 b 1604 -171 1593 -154 1600 -160 b 1606 -196 1606 -176 1606 -185 l 1606 -239 b 1606 -239 1606 -239 1606 -239 l 1594 -239 b 1594 -239 1594 -239 1594 -239 l 1594 -203 b 1589 -165 1594 -181 1592 -168 b 1578 -160 1588 -162 1583 -160 b 1563 -174 1569 -160 1565 -165 b 1561 -183 1561 -176 1561 -181 l 1561 -239 b 1561 -239 1561 -239 1561 -239 l 1550 -239 b 1549 -239 1549 -239 1549 -239 l 1549 -192 b 1543 -164 1549 -176 1547 -167 b 1533 -160 1540 -161 1538 -160 b 1518 -172 1525 -160 1521 -164 b 1517 -181 1517 -175 1517 -178 l 1517 -239 b 1517 -239 1517 -239 1517 -239 l 1506 -239 b 1504 -239 1504 -239 1504 -239 l 1504 -158 b 1517 -153 1504 -157 1508 -156 m 1299 -153 b 1322 -168 1310 -153 1318 -158 b 1326 -190 1325 -174 1326 -182 l 1326 -193 b 1313 -196 1326 -193 1322 -194 b 1281 -203 1313 -196 1301 -199 l 1281 -204 b 1290 -231 1281 -219 1283 -228 b 1300 -232 1293 -232 1296 -232 l 1303 -232 b 1322 -225 1308 -232 1315 -229 b 1318 -239 1319 -233 1318 -239 l 1297 -239 b 1268 -204 1278 -239 1268 -228 l 1268 -189 b 1288 -154 1268 -171 1275 -158 b 1299 -153 1292 -153 1294 -153 m 1461 -153 b 1489 -176 1476 -153 1485 -161 b 1490 -194 1490 -182 1490 -187 l 1490 -197 b 1461 -240 1490 -225 1481 -240 b 1431 -197 1440 -240 1431 -225 b 1447 -156 1431 -175 1436 -161 b 1461 -153 1450 -154 1456 -153 m 121 -154 b 133 -187 121 -154 125 -165 l 144 -218 l 158 -179 l 149 -154 l 150 -154 l 161 -154 b 185 -218 161 -154 169 -175 b 208 -154 192 -199 200 -176 l 215 -154 b 185 -239 215 -157 204 -185 l 179 -239 b 161 -189 179 -239 174 -222 b 144 -239 161 -192 156 -208 l 139 -239 b 136 -232 138 -239 138 -236 b 108 -154 118 -182 108 -156 m 240 -154 b 246 -168 240 -154 242 -158 b 263 -218 257 -200 263 -217 b 275 -185 263 -218 267 -207 b 278 -179 275 -185 276 -183 b 268 -154 271 -162 268 -154 l 281 -154 b 290 -181 282 -156 285 -164 b 304 -218 292 -183 296 -196 b 328 -154 311 -197 319 -175 l 333 -154 b 335 -154 335 -154 335 -154 l 304 -239 l 299 -239 b 290 -215 299 -239 296 -231 b 281 -190 285 -200 282 -190 b 264 -239 269 -221 264 -237 l 258 -239 b 250 -217 257 -237 254 -231 b 228 -154 249 -217 242 -194 m 360 -154 b 369 -185 360 -154 363 -164 b 382 -218 371 -186 375 -197 l 396 -179 l 388 -154 l 389 -154 l 400 -154 b 406 -168 400 -154 403 -158 b 424 -218 407 -171 413 -187 b 432 -194 424 -218 426 -211 b 447 -154 442 -169 446 -156 l 454 -154 b 424 -239 454 -154 444 -183 l 418 -239 b 414 -228 418 -239 417 -235 b 400 -189 414 -228 408 -215 b 382 -239 389 -222 383 -239 l 376 -239 b 374 -231 376 -239 376 -236 b 347 -154 357 -182 347 -156 m 522 -154 b 550 -176 538 -154 547 -161 b 550 -192 550 -181 550 -186 l 550 -226 b 554 -239 550 -232 551 -236 l 553 -239 b 543 -239 549 -239 544 -239 b 539 -232 542 -237 540 -235 b 517 -240 533 -237 526 -240 b 494 -222 506 -240 499 -233 b 493 -214 494 -219 493 -217 l 493 -210 b 511 -181 493 -194 500 -186 b 538 -176 519 -178 528 -176 b 533 -164 538 -172 536 -168 b 519 -160 531 -161 525 -160 b 500 -167 511 -160 504 -162 b 497 -168 499 -167 499 -168 b 503 -154 500 -158 501 -154 m 739 -154 b 764 -168 751 -154 758 -158 b 767 -190 765 -174 767 -182 l 767 -225 b 769 -239 767 -232 768 -236 b 760 -239 764 -239 761 -239 b 756 -231 758 -239 757 -236 b 733 -240 750 -236 742 -240 b 711 -224 722 -240 715 -235 b 710 -212 710 -219 710 -215 l 710 -211 b 726 -182 710 -196 715 -186 b 754 -176 733 -178 743 -176 b 750 -164 754 -172 753 -168 b 736 -160 747 -161 743 -160 b 715 -167 728 -160 721 -162 b 714 -168 715 -168 714 -168 b 718 -154 717 -158 718 -154 m 1025 -154 b 1050 -172 1038 -154 1046 -160 b 1053 -199 1053 -176 1053 -186 l 1053 -229 b 1056 -239 1053 -232 1054 -235 b 1044 -239 1050 -239 1046 -239 b 1042 -231 1042 -236 1042 -233 b 1019 -240 1035 -236 1028 -240 b 997 -224 1008 -240 1001 -235 b 996 -211 996 -221 996 -217 b 1011 -182 996 -197 1000 -187 b 1039 -176 1018 -179 1028 -176 l 1040 -176 b 1036 -165 1039 -171 1038 -167 b 1022 -160 1033 -161 1028 -160 b 1000 -168 1014 -160 1007 -162 b 1000 -168 1000 -168 1000 -168 b 1004 -154 1003 -158 1004 -154 m 1415 -154 b 1419 -168 1417 -154 1418 -158 b 1400 -160 1413 -162 1406 -160 b 1382 -167 1390 -160 1385 -162 b 1379 -197 1381 -169 1379 -181 b 1385 -228 1379 -215 1381 -226 b 1397 -232 1386 -231 1390 -232 l 1401 -232 b 1419 -225 1407 -232 1413 -229 b 1415 -239 1418 -235 1417 -239 l 1396 -239 b 1369 -222 1382 -239 1374 -233 b 1365 -196 1367 -215 1365 -207 b 1381 -157 1365 -175 1371 -162 b 1394 -154 1385 -154 1389 -154 m 1208 -214 b 1218 -232 1208 -222 1211 -228 b 1226 -233 1221 -232 1224 -233 b 1239 -225 1232 -233 1238 -231 b 1243 -192 1242 -218 1243 -207 b 1236 -162 1243 -176 1240 -167 b 1226 -160 1233 -161 1229 -160 l 1225 -160 b 1210 -172 1217 -160 1211 -164 b 1208 -179 1208 -175 1208 -178 m 1281 -194 l 1314 -189 l 1314 -187 b 1303 -161 1314 -174 1311 -165 b 1297 -160 1300 -160 1299 -160 b 1283 -169 1290 -160 1286 -162 b 1281 -192 1281 -175 1281 -183 m 1443 -199 b 1451 -231 1443 -217 1446 -226 b 1461 -233 1454 -232 1457 -233 b 1475 -222 1468 -233 1472 -229 b 1478 -199 1476 -217 1478 -208 l 1478 -194 b 1469 -162 1478 -176 1475 -167 b 1461 -160 1467 -161 1464 -160 b 1447 -171 1454 -160 1449 -162 b 1443 -194 1444 -175 1443 -183 m 506 -210 b 521 -231 506 -224 510 -231 b 539 -221 528 -231 535 -228 l 539 -189 b 539 -183 539 -187 539 -186 b 510 -192 525 -183 515 -186 b 506 -210 507 -197 506 -203 m 722 -211 b 733 -231 722 -222 725 -229 l 736 -231 b 754 -221 744 -231 751 -228 l 754 -185 l 754 -183 b 726 -193 740 -183 731 -187 b 722 -208 724 -197 722 -203 m 1007 -211 b 1022 -231 1007 -224 1013 -231 b 1040 -221 1031 -231 1036 -228 l 1040 -183 b 1010 -196 1025 -183 1014 -187 b 1007 -211 1008 -200 1007 -204 m 475 -224 b 482 -231 478 -224 481 -226 l 482 -232 b 476 -239 482 -235 479 -237 b 474 -239 476 -239 475 -239 b 467 -233 471 -239 468 -237 l 467 -231 b 474 -224 467 -228 468 -225 l 475 -224 m 1347 -224 b 1354 -229 1350 -224 1351 -225 b 1354 -232 1354 -231 1354 -232 b 1349 -239 1354 -235 1353 -237 l 1346 -239 b 1339 -233 1343 -239 1340 -237 b 1339 -232 1339 -232 1339 -232 b 1346 -224 1339 -228 1342 -225 l 1347 -224 "}}}
